STARTFONT 2.1
COMMENT
COMMENT Converted from OpenType font "Vollda-Bold.otf" by "otf2bdf 3.0".
COMMENT
FONT -FreeType-Vollda-Bold-R-Normal--25-180-100-100-P-139-ISO10646-1
SIZE 18 100 100
FONTBOUNDINGBOX 79 34 -4 -7
STARTPROPERTIES 19
FOUNDRY "FreeType"
FAMILY_NAME "Vollda"
WEIGHT_NAME "Bold"
SLANT "R"
SETWIDTH_NAME "Normal"
ADD_STYLE_NAME ""
PIXEL_SIZE 25
POINT_SIZE 180
RESOLUTION_X 100
RESOLUTION_Y 100
SPACING "P"
AVERAGE_WIDTH 139
CHARSET_REGISTRY "ISO10646"
CHARSET_ENCODING "1"
FONT_ASCENT 23
FONT_DESCENT 11
COPYRIGHT "Copyright 2023 Vollda (https://github.com/alexburba/vollda)"
_OTF_FONTFILE "Vollda-Bold.otf"
_OTF_PSNAME "Vollda-Bold"
ENDPROPERTIES
CHARS 1220
STARTCHAR 0000
ENCODING 0
SWIDTH 0 0
DWIDTH 0 0
BBX 0 0 0 0
BITMAP
ENDCHAR
STARTCHAR 000D
ENCODING 13
SWIDTH 200 0
DWIDTH 5 0
BBX 0 0 0 0
BITMAP
ENDCHAR
STARTCHAR 0020
ENCODING 32
SWIDTH 200 0
DWIDTH 5 0
BBX 0 0 0 0
BITMAP
ENDCHAR
STARTCHAR 0021
ENCODING 33
SWIDTH 400 0
DWIDTH 10 0
BBX 4 18 3 0
BITMAP
30
F0
F0
F0
F0
70
70
60
60
60
60
60
00
00
60
F0
F0
70
ENDCHAR
STARTCHAR 0022
ENCODING 34
SWIDTH 360 0
DWIDTH 9 0
BBX 6 7 2 11
BITMAP
4C
DC
CC
CC
CC
CC
C8
ENDCHAR
STARTCHAR 0023
ENCODING 35
SWIDTH 600 0
DWIDTH 15 0
BBX 14 18 1 0
BITMAP
0430
0430
0C30
0C20
0C60
7FFC
7FF8
1860
1840
18C0
18C0
FFF8
FFF0
3080
3080
3180
2180
6180
ENDCHAR
STARTCHAR 0024
ENCODING 36
SWIDTH 520 0
DWIDTH 13 0
BBX 12 21 1 -2
BITMAP
0400
0600
1FC0
3FE0
76E0
76E0
7660
7E00
7E00
7F80
3FC0
1FE0
07F0
07F0
E6F0
E670
E6F0
FFE0
3F80
0600
0600
ENDCHAR
STARTCHAR 0025
ENCODING 37
SWIDTH 840 0
DWIDTH 21 0
BBX 17 17 2 0
BITMAP
3C0300
7E0300
E70600
E30C00
E31800
E73000
7E7000
3C6000
00C000
018E00
033F00
063180
0E7180
0C7180
183180
303B80
601F00
ENDCHAR
STARTCHAR 0026
ENCODING 38
SWIDTH 760 0
DWIDTH 19 0
BBX 17 18 1 0
BITMAP
07E000
0FF000
1C7000
1C3000
1E2000
1E0000
1E1080
0F1F80
1F8600
3FC600
73C400
F1EC00
F0FC00
F07800
F07C00
787E00
3FFF80
1F8F80
ENDCHAR
STARTCHAR 0027
ENCODING 39
SWIDTH 200 0
DWIDTH 5 0
BBX 2 7 2 11
BITMAP
40
C0
C0
C0
C0
C0
C0
ENDCHAR
STARTCHAR 0028
ENCODING 40
SWIDTH 320 0
DWIDTH 8 0
BBX 6 25 1 -6
BITMAP
0C
18
10
30
70
60
60
E0
E0
E0
E0
E0
E0
E0
E0
E0
E0
60
70
70
30
38
18
08
0C
ENDCHAR
STARTCHAR 0029
ENCODING 41
SWIDTH 320 0
DWIDTH 8 0
BBX 6 25 1 -6
BITMAP
40
60
30
30
38
18
18
1C
1C
1C
1C
1C
1C
1C
1C
1C
1C
18
18
38
30
30
60
40
C0
ENDCHAR
STARTCHAR 002A
ENCODING 42
SWIDTH 440 0
DWIDTH 11 0
BBX 8 9 2 10
BITMAP
0C
8C
C8
7F
1F
68
EC
4E
0C
ENDCHAR
STARTCHAR 002B
ENCODING 43
SWIDTH 520 0
DWIDTH 13 0
BBX 12 13 1 0
BITMAP
0200
0600
0600
0600
0600
0600
FFF0
0600
0600
0600
0600
0600
0600
ENDCHAR
STARTCHAR 002C
ENCODING 44
SWIDTH 280 0
DWIDTH 7 0
BBX 4 8 2 -5
BITMAP
E0
F0
F0
70
60
60
C0
80
ENDCHAR
STARTCHAR 002D
ENCODING 45
SWIDTH 400 0
DWIDTH 10 0
BBX 8 3 1 5
BITMAP
7F
7F
FF
ENDCHAR
STARTCHAR 002E
ENCODING 46
SWIDTH 280 0
DWIDTH 7 0
BBX 5 4 1 0
BITMAP
70
F8
F8
70
ENDCHAR
STARTCHAR 002F
ENCODING 47
SWIDTH 360 0
DWIDTH 9 0
BBX 8 18 1 0
BITMAP
03
03
06
06
06
0C
0C
08
18
18
30
30
30
60
60
40
C0
C0
ENDCHAR
STARTCHAR 0030
ENCODING 48
SWIDTH 600 0
DWIDTH 15 0
BBX 14 13 1 0
BITMAP
0700
1FE0
78F0
7078
F078
E038
E03C
F038
F038
F038
7870
3FF0
1FC0
ENDCHAR
STARTCHAR 0031
ENCODING 49
SWIDTH 400 0
DWIDTH 10 0
BBX 8 13 1 0
BITMAP
FF
FF
3C
3C
3C
3C
3C
3C
3C
3C
3C
7E
FF
ENDCHAR
STARTCHAR 0032
ENCODING 50
SWIDTH 520 0
DWIDTH 13 0
BBX 11 13 1 0
BITMAP
0E00
7F80
63C0
63C0
63C0
03C0
0780
0E00
1C00
3860
7FE0
FFE0
FFE0
ENDCHAR
STARTCHAR 0033
ENCODING 51
SWIDTH 480 0
DWIDTH 12 0
BBX 11 17 1 -4
BITMAP
7FC0
7FC0
7FC0
7F80
C300
0700
0E00
0E00
1FC0
1FC0
03E0
01E0
01E0
01E0
03C0
EF80
FF00
ENDCHAR
STARTCHAR 0034
ENCODING 52
SWIDTH 600 0
DWIDTH 15 0
BBX 13 17 1 -4
BITMAP
00C0
01E0
03E0
03E0
07E0
0DE0
19E0
39E0
31E0
61E0
FFF8
FFF8
FFF8
01E0
01E0
01E0
01E0
ENDCHAR
STARTCHAR 0035
ENCODING 53
SWIDTH 480 0
DWIDTH 12 0
BBX 10 18 1 -4
BITMAP
00C0
3F80
3F80
7F80
7F80
6000
4000
7C00
FF00
7F80
0FC0
03C0
03C0
03C0
03C0
0780
DF00
FE00
ENDCHAR
STARTCHAR 0036
ENCODING 54
SWIDTH 520 0
DWIDTH 13 0
BBX 12 16 1 0
BITMAP
01C0
07C0
1E00
3C00
7800
7000
F780
FFE0
F1E0
F0F0
F0F0
F0F0
F0F0
70E0
7FC0
1F80
ENDCHAR
STARTCHAR 0037
ENCODING 55
SWIDTH 440 0
DWIDTH 11 0
BBX 10 17 1 -4
BITMAP
FFC0
FFC0
FFC0
FF80
C180
4300
0600
0600
0E00
0C00
1C00
1C00
3C00
3C00
3C00
3C00
3000
ENDCHAR
STARTCHAR 0038
ENCODING 56
SWIDTH 520 0
DWIDTH 13 0
BBX 11 16 1 0
BITMAP
1F80
3FC0
71E0
70E0
78E0
7DC0
3F80
1F80
3FC0
73E0
F1E0
F0E0
F0E0
F0E0
79E0
3F80
ENDCHAR
STARTCHAR 0039
ENCODING 57
SWIDTH 520 0
DWIDTH 13 0
BBX 12 17 1 -4
BITMAP
0E00
3FC0
71E0
F0E0
E0F0
E0F0
F0F0
F0F0
78F0
7FF0
0EE0
01E0
01C0
0380
0F00
3E00
7800
ENDCHAR
STARTCHAR 003A
ENCODING 58
SWIDTH 280 0
DWIDTH 7 0
BBX 4 11 2 0
BITMAP
E0
F0
E0
E0
00
00
00
E0
F0
E0
E0
ENDCHAR
STARTCHAR 003B
ENCODING 59
SWIDTH 280 0
DWIDTH 7 0
BBX 4 16 2 -5
BITMAP
E0
F0
F0
60
00
00
00
00
F0
F0
F0
70
60
60
C0
80
ENDCHAR
STARTCHAR 003C
ENCODING 60
SWIDTH 520 0
DWIDTH 13 0
BBX 11 13 1 0
BITMAP
0040
00E0
0380
0F00
1C00
7000
E000
7000
3C00
0F00
03C0
00E0
0020
ENDCHAR
STARTCHAR 003D
ENCODING 61
SWIDTH 520 0
DWIDTH 13 0
BBX 11 6 1 3
BITMAP
FFE0
0000
0000
0000
FFE0
FFE0
ENDCHAR
STARTCHAR 003E
ENCODING 62
SWIDTH 520 0
DWIDTH 13 0
BBX 10 12 2 0
BITMAP
4000
E000
7800
1C00
0700
03C0
00C0
03C0
0700
1C00
7800
E000
ENDCHAR
STARTCHAR 003F
ENCODING 63
SWIDTH 520 0
DWIDTH 13 0
BBX 9 18 3 0
BITMAP
3E00
FF00
C780
C780
C780
0F00
0E00
1C00
3C00
3800
3800
1800
1800
0000
1C00
3C00
3C00
3C00
ENDCHAR
STARTCHAR 0040
ENCODING 64
SWIDTH 960 0
DWIDTH 24 0
BBX 19 21 3 -4
BITMAP
07FE00
0E0780
1801C0
3000E0
60EC60
C3FE60
C71E20
C71E20
CF1E20
CF1E20
CF1E60
CF1E60
CF3E40
CF7EC0
C7DF80
678F00
700000
300040
1C01C0
0FFF00
03FC00
ENDCHAR
STARTCHAR 0041
ENCODING 65
SWIDTH 680 0
DWIDTH 17 0
BBX 17 17 0 0
BITMAP
00C000
01C000
01C000
03E000
03E000
02F000
06F000
047800
0C7800
0C3C00
083C00
1FFE00
181E00
301E00
300F00
781F80
F83F80
ENDCHAR
STARTCHAR 0042
ENCODING 66
SWIDTH 640 0
DWIDTH 16 0
BBX 15 17 1 0
BITMAP
FFE0
FFF8
3C78
3C3C
3C3C
3C38
3C78
3FE0
3FF8
3C7C
3C3C
3C3E
3C1E
3C3E
3C3C
FFF8
FFE0
ENDCHAR
STARTCHAR 0043
ENCODING 67
SWIDTH 640 0
DWIDTH 16 0
BBX 14 17 1 0
BITMAP
07F0
1F7C
3C1C
781C
700C
F000
F000
F000
F000
F000
F000
F000
7800
7C00
3E04
1FFC
07F0
ENDCHAR
STARTCHAR 0044
ENCODING 68
SWIDTH 720 0
DWIDTH 18 0
BBX 16 17 1 0
BITMAP
FFE0
FFFC
3C3E
3C1E
3C0F
3C0F
3C0F
3C07
3C07
3C07
3C07
3C0F
3C0F
3C0E
3C1C
FFF8
FFE0
ENDCHAR
STARTCHAR 0045
ENCODING 69
SWIDTH 600 0
DWIDTH 15 0
BBX 14 17 1 0
BITMAP
FFF8
FFF8
3C38
3C18
3C10
3C00
3C40
3CC0
3FC0
3DC0
3C40
3C00
3C08
3C0C
3C1C
FFF8
FFF8
ENDCHAR
STARTCHAR 0046
ENCODING 70
SWIDTH 560 0
DWIDTH 14 0
BBX 13 17 1 0
BITMAP
FFF8
FFF8
3C38
3C18
3C10
3C00
3C20
3C60
3FE0
3FE0
3C60
3C60
3C00
3C00
3C00
FF00
FF00
ENDCHAR
STARTCHAR 0047
ENCODING 71
SWIDTH 680 0
DWIDTH 17 0
BBX 16 17 1 0
BITMAP
07F8
1F3E
3C0C
780C
700C
F000
F000
F000
F000
F07F
F03E
F01E
781E
781E
3C1E
1F7E
07F8
ENDCHAR
STARTCHAR 0048
ENCODING 72
SWIDTH 760 0
DWIDTH 19 0
BBX 17 17 1 0
BITMAP
FE3F80
FE3F80
3C0F00
3C0F00
3C0F00
3C0F00
3C0F00
3C0F00
3FFF00
3C0F00
3C0F00
3C0F00
3C0F00
3C0F00
3C0F00
FE3F80
FE3F80
ENDCHAR
STARTCHAR 0049
ENCODING 73
SWIDTH 360 0
DWIDTH 9 0
BBX 7 17 1 0
BITMAP
FE
FE
3C
3C
3C
3C
3C
3C
3C
3C
3C
3C
3C
3C
3C
FE
FE
ENDCHAR
STARTCHAR 004A
ENCODING 74
SWIDTH 360 0
DWIDTH 9 0
BBX 8 23 0 -6
BITMAP
7F
7F
3C
1C
1C
1C
1C
1C
1C
1C
1C
1C
1C
1C
1C
1C
1C
3C
3C
38
78
F0
C0
ENDCHAR
STARTCHAR 004B
ENCODING 75
SWIDTH 720 0
DWIDTH 18 0
BBX 17 17 1 0
BITMAP
FE3F00
FE3F00
3C1800
3C3000
3C6000
3CC000
3D8000
3F8000
3FC000
3FE000
3DE000
3CF000
3CF800
3C7C00
3C3C00
FE3F80
FE1F80
ENDCHAR
STARTCHAR 004C
ENCODING 76
SWIDTH 600 0
DWIDTH 15 0
BBX 14 17 1 0
BITMAP
FE00
FE00
3C00
3C00
3C00
3C00
3C00
3C00
3C00
3C00
3C00
3C00
3C08
3C1C
3C18
FFF8
FFF8
ENDCHAR
STARTCHAR 004D
ENCODING 77
SWIDTH 960 0
DWIDTH 24 0
BBX 23 17 1 0
BITMAP
7C00FC
7E00F8
3E01F0
1F01F0
3F03F0
3F83F0
3782F0
3786F0
33C6F0
33C4F0
31EC70
21E878
21F878
20F878
60F078
F871FC
F861FE
ENDCHAR
STARTCHAR 004E
ENCODING 78
SWIDTH 720 0
DWIDTH 18 0
BBX 16 17 1 0
BITMAP
F81F
FC1F
3E06
3E06
3F06
3F86
37C6
33C6
33E6
31F6
30FE
307E
307E
303E
301E
F80E
F80E
ENDCHAR
STARTCHAR 004F
ENCODING 79
SWIDTH 720 0
DWIDTH 18 0
BBX 17 17 1 0
BITMAP
07F000
1FFC00
381E00
781E00
700F00
F00F00
F00780
F00780
F00780
F00780
F00780
F00700
780F00
780E00
3C1E00
1F3C00
07F000
ENDCHAR
STARTCHAR 0050
ENCODING 80
SWIDTH 600 0
DWIDTH 15 0
BBX 14 17 1 0
BITMAP
FFE0
FFF8
3C7C
3C3C
3C3C
3C3C
3C3C
3C3C
3C38
3EF0
3FE0
3C00
3C00
3C00
3C00
FF00
FF00
ENDCHAR
STARTCHAR 0051
ENCODING 81
SWIDTH 720 0
DWIDTH 18 0
BBX 18 22 1 -5
BITMAP
07F000
1FFC00
381E00
781E00
700F00
F00F00
F00780
F00780
F00780
F00780
F00780
F00700
780F00
780E00
3C1E00
1F3C00
07F000
007800
001E00
000FC0
000FC0
000700
ENDCHAR
STARTCHAR 0052
ENCODING 82
SWIDTH 680 0
DWIDTH 17 0
BBX 16 17 1 0
BITMAP
FFE0
FFF8
3C3C
3C3C
3C3C
3C3C
3C3C
3C78
3FF0
3FE0
3DF0
3CF0
3C78
3C7C
3C3C
FE3F
FE1F
ENDCHAR
STARTCHAR 0053
ENCODING 83
SWIDTH 520 0
DWIDTH 13 0
BBX 12 17 1 0
BITMAP
1FC0
3FE0
70E0
70E0
7060
7800
7E00
7F80
3FC0
0FE0
03F0
01F0
E0F0
E070
E0F0
FBE0
3F80
ENDCHAR
STARTCHAR 0054
ENCODING 84
SWIDTH 640 0
DWIDTH 16 0
BBX 15 17 1 0
BITMAP
FFFC
FFFC
C78C
C786
C784
0780
0780
0780
0780
0780
0780
0780
0780
0780
0780
1FE0
1FE0
ENDCHAR
STARTCHAR 0055
ENCODING 85
SWIDTH 680 0
DWIDTH 17 0
BBX 15 17 1 0
BITMAP
FE3E
FE3E
780C
780C
780C
780C
780C
780C
780C
780C
780C
780C
3808
3C08
3C18
1FF0
0FE0
ENDCHAR
STARTCHAR 0056
ENCODING 86
SWIDTH 680 0
DWIDTH 17 0
BBX 17 17 0 0
BITMAP
FF0F80
7F0F80
3C0700
3C0600
1E0600
1E0400
0F0C00
0F0800
0F1800
079800
079000
03B000
03E000
03E000
01E000
01C000
00C000
ENDCHAR
STARTCHAR 0057
ENCODING 87
SWIDTH 960 0
DWIDTH 24 0
BBX 24 17 0 0
BITMAP
FF0C1F
7F0E1F
3C0E06
3C1F06
3E1F04
1E1F0C
1E378C
1E3788
0F2788
0F63D8
0F63D0
07C3F0
07C1F0
07C1F0
0380E0
0380E0
0380E0
ENDCHAR
STARTCHAR 0058
ENCODING 88
SWIDTH 680 0
DWIDTH 17 0
BBX 16 17 1 0
BITMAP
FF3E
FE3E
3E1C
3E18
1F30
0F20
0FE0
07C0
03C0
03E0
07E0
0CF0
18F8
1878
307C
F8FE
FCFF
ENDCHAR
STARTCHAR 0059
ENCODING 89
SWIDTH 600 0
DWIDTH 15 0
BBX 15 17 0 0
BITMAP
FF1E
7F1E
3E0C
1E08
1E18
0F10
0F30
07A0
07E0
03C0
03C0
03C0
03C0
03C0
03C0
0FF0
0FF0
ENDCHAR
STARTCHAR 005A
ENCODING 90
SWIDTH 600 0
DWIDTH 15 0
BBX 13 17 1 0
BITMAP
7FF0
7FF8
70F0
61F0
61E0
03C0
07C0
0780
0F80
0F00
1F00
1E00
3C10
7C18
7838
F9F8
FFF0
ENDCHAR
STARTCHAR 005B
ENCODING 91
SWIDTH 280 0
DWIDTH 7 0
BBX 5 26 1 -7
BITMAP
F8
F8
E0
C0
C0
C0
C0
C0
C0
C0
C0
C0
C0
C0
C0
C0
C0
C0
C0
C0
C0
C0
C0
E0
F8
F8
ENDCHAR
STARTCHAR 005C
ENCODING 92
SWIDTH 360 0
DWIDTH 9 0
BBX 8 18 1 0
BITMAP
C0
C0
C0
60
60
20
30
30
18
18
18
0C
0C
04
06
06
03
03
ENDCHAR
STARTCHAR 005D
ENCODING 93
SWIDTH 280 0
DWIDTH 7 0
BBX 5 26 1 -7
BITMAP
F8
F8
38
18
18
18
18
18
18
18
18
18
18
18
18
18
18
18
18
18
18
18
18
18
F8
F8
ENDCHAR
STARTCHAR 005E
ENCODING 94
SWIDTH 520 0
DWIDTH 13 0
BBX 11 8 1 9
BITMAP
0200
0E00
0F00
1980
3180
60C0
E060
C060
ENDCHAR
STARTCHAR 005F
ENCODING 95
SWIDTH 520 0
DWIDTH 13 0
BBX 12 2 1 -4
BITMAP
FFF0
FFF0
ENDCHAR
STARTCHAR 0060
ENCODING 96
SWIDTH 280 0
DWIDTH 7 0
BBX 4 5 2 13
BITMAP
E0
E0
60
30
30
ENDCHAR
STARTCHAR 0061
ENCODING 97
SWIDTH 480 0
DWIDTH 12 0
BBX 12 12 1 0
BITMAP
0E00
3F80
6780
E3C0
E3C0
07C0
1FC0
F3C0
E3C0
E3C0
FFF0
7BE0
ENDCHAR
STARTCHAR 0062
ENCODING 98
SWIDTH 600 0
DWIDTH 15 0
BBX 14 18 0 0
BITMAP
1800
F800
7800
3800
3800
3800
38C0
3BF8
3E78
383C
383C
383C
383C
383C
383C
3838
7CF0
1FE0
ENDCHAR
STARTCHAR 0063
ENCODING 99
SWIDTH 440 0
DWIDTH 11 0
BBX 10 12 1 0
BITMAP
0F00
3FC0
71C0
F1C0
F080
E000
E000
F000
F000
7840
7FC0
1F80
ENDCHAR
STARTCHAR 0064
ENCODING 100
SWIDTH 600 0
DWIDTH 15 0
BBX 14 18 1 0
BITMAP
0030
01F0
01F0
00F0
0070
0070
0370
1FF0
78F0
7070
F070
F070
F070
F070
F070
F878
7FFC
3E70
ENDCHAR
STARTCHAR 0065
ENCODING 101
SWIDTH 480 0
DWIDTH 12 0
BBX 11 12 1 0
BITMAP
0600
3F80
71C0
F1E0
F1E0
FFE0
FFE0
F000
F000
7800
7FE0
1F80
ENDCHAR
STARTCHAR 0066
ENCODING 102
SWIDTH 360 0
DWIDTH 9 0
BBX 11 18 1 0
BITMAP
07C0
1FE0
1CC0
38C0
3800
3800
3800
FF00
7E00
3800
3800
3800
3800
3800
3800
3C00
FF00
FF00
ENDCHAR
STARTCHAR 0067
ENCODING 103
SWIDTH 520 0
DWIDTH 13 0
BBX 12 18 1 -6
BITMAP
0E00
7FF0
71C0
F1E0
F1E0
F1E0
71C0
3F80
6400
6000
FFC0
7FE0
7FF0
E0F0
E070
E0E0
FBC0
7F00
ENDCHAR
STARTCHAR 0068
ENCODING 104
SWIDTH 640 0
DWIDTH 16 0
BBX 14 18 1 0
BITMAP
1800
F800
F800
7800
3800
3800
3880
3BF0
3FF8
3878
3878
3878
3878
3878
3878
7878
FCFC
FEFC
ENDCHAR
STARTCHAR 0069
ENCODING 105
SWIDTH 320 0
DWIDTH 8 0
BBX 7 17 1 0
BITMAP
78
78
78
00
00
08
F8
F8
38
38
38
38
38
38
38
FE
FE
ENDCHAR
STARTCHAR 006A
ENCODING 106
SWIDTH 280 0
DWIDTH 7 0
BBX 5 23 1 -6
BITMAP
78
78
78
00
00
08
F8
F8
38
38
38
38
38
38
38
38
38
38
78
70
E0
E0
80
ENDCHAR
STARTCHAR 006B
ENCODING 107
SWIDTH 600 0
DWIDTH 15 0
BBX 14 18 1 0
BITMAP
1800
F800
F800
7800
3800
3800
3800
38FC
3870
38C0
3980
3B80
3BC0
3BE0
39E0
78F0
FC7C
FE3C
ENDCHAR
STARTCHAR 006C
ENCODING 108
SWIDTH 320 0
DWIDTH 8 0
BBX 7 18 1 0
BITMAP
18
F8
F8
78
38
38
38
38
38
38
38
38
38
38
38
78
FE
FE
ENDCHAR
STARTCHAR 006D
ENCODING 109
SWIDTH 960 0
DWIDTH 24 0
BBX 22 12 1 0
BITMAP
08C000
FBF3F0
FFFFF0
387878
387878
383878
383878
383878
383878
387878
FEFCFC
FEFEFC
ENDCHAR
STARTCHAR 006E
ENCODING 110
SWIDTH 640 0
DWIDTH 16 0
BBX 15 12 1 0
BITMAP
0800
FBF0
FFF8
3878
3838
3838
3838
3838
3838
3878
FCFC
FEFE
ENDCHAR
STARTCHAR 006F
ENCODING 111
SWIDTH 560 0
DWIDTH 14 0
BBX 12 12 1 0
BITMAP
0600
3FC0
71E0
F0F0
F0F0
F070
F070
F070
F070
70F0
7DE0
1F80
ENDCHAR
STARTCHAR 0070
ENCODING 112
SWIDTH 600 0
DWIDTH 15 0
BBX 14 18 1 -6
BITMAP
08E0
FBF0
FEF8
383C
383C
383C
383C
383C
3838
3878
3CF0
3FC0
3800
3800
3800
3C00
FE00
FF00
ENDCHAR
STARTCHAR 0071
ENCODING 113
SWIDTH 560 0
DWIDTH 14 0
BBX 14 18 1 -6
BITMAP
0300
1FF0
78F0
70F0
F0F0
F0F0
F0F0
F0F0
F0F0
F0F0
7FF0
3EF0
00F0
00F0
00F0
00F0
01F8
03FC
ENDCHAR
STARTCHAR 0072
ENCODING 114
SWIDTH 440 0
DWIDTH 11 0
BBX 10 12 1 0
BITMAP
0800
FBC0
FFC0
3CC0
38C0
3800
3800
3800
3800
3C00
FE00
FF00
ENDCHAR
STARTCHAR 0073
ENCODING 115
SWIDTH 440 0
DWIDTH 11 0
BBX 10 12 1 0
BITMAP
1E00
7F80
E380
E180
F800
7E00
3F80
0F80
C3C0
C3C0
F780
FF00
ENDCHAR
STARTCHAR 0074
ENCODING 116
SWIDTH 360 0
DWIDTH 9 0
BBX 9 15 0 1
BITMAP
1C00
3C00
3C00
3C00
FF80
7F00
3C00
3C00
3C00
3C00
3C00
3C00
3C00
3F80
1F80
ENDCHAR
STARTCHAR 0075
ENCODING 117
SWIDTH 600 0
DWIDTH 15 0
BBX 15 12 0 0
BITMAP
0808
FCF8
FCF8
3C78
3C38
3C38
3C38
3C38
3C38
3C3C
3FFE
1F3C
ENDCHAR
STARTCHAR 0076
ENCODING 118
SWIDTH 520 0
DWIDTH 13 0
BBX 14 12 0 0
BITMAP
C244
FE78
7C30
3C30
1C20
1E60
1E40
0FC0
0FC0
0780
0780
0300
ENDCHAR
STARTCHAR 0077
ENCODING 119
SWIDTH 760 0
DWIDTH 19 0
BBX 19 12 0 0
BITMAP
C63120
FE31E0
7C78C0
3C78C0
3C7880
1CFC80
1E9D80
1F9F00
0F9F00
0F0F00
0F0E00
060600
ENDCHAR
STARTCHAR 0078
ENCODING 120
SWIDTH 560 0
DWIDTH 14 0
BBX 12 12 1 0
BITMAP
0200
FEF0
7CE0
3CC0
1F80
1F80
0F80
1F80
33C0
33E0
F3F0
F3F0
ENDCHAR
STARTCHAR 0079
ENCODING 121
SWIDTH 560 0
DWIDTH 14 0
BBX 14 18 0 -6
BITMAP
C244
FE7C
7C38
3C30
1E30
1E60
0E60
0F40
0FC0
0780
0780
0380
0300
0300
0600
7E00
7C00
7800
ENDCHAR
STARTCHAR 007A
ENCODING 122
SWIDTH 480 0
DWIDTH 12 0
BBX 11 12 1 0
BITMAP
60C0
FFE0
E3C0
E780
0F80
0F00
1E00
3E00
3C60
78E0
FFE0
FFE0
ENDCHAR
STARTCHAR 007B
ENCODING 123
SWIDTH 360 0
DWIDTH 9 0
BBX 7 26 1 -7
BITMAP
02
0E
1C
38
38
38
38
38
3C
3C
3C
78
F0
F0
38
3C
3C
3C
38
38
38
38
38
1C
0E
02
ENDCHAR
STARTCHAR 007C
ENCODING 124
SWIDTH 160 0
DWIDTH 4 0
BBX 2 24 1 -6
BITMAP
C0
C0
C0
C0
C0
C0
C0
C0
C0
C0
C0
C0
C0
C0
C0
C0
C0
C0
C0
C0
C0
C0
C0
C0
ENDCHAR
STARTCHAR 007D
ENCODING 125
SWIDTH 360 0
DWIDTH 9 0
BBX 8 26 1 -7
BITMAP
80
E0
38
38
38
38
38
38
38
38
38
3C
0E
1F
3C
38
38
38
38
38
38
38
38
30
F0
C0
ENDCHAR
STARTCHAR 007E
ENCODING 126
SWIDTH 520 0
DWIDTH 13 0
BBX 12 3 1 4
BITMAP
3C30
7FE0
C3C0
ENDCHAR
STARTCHAR 00A0
ENCODING 160
SWIDTH 200 0
DWIDTH 5 0
BBX 0 0 0 0
BITMAP
ENDCHAR
STARTCHAR 00A1
ENCODING 161
SWIDTH 400 0
DWIDTH 10 0
BBX 4 18 3 -6
BITMAP
60
F0
F0
F0
00
00
20
60
60
60
60
60
70
70
F0
F0
F0
F0
ENDCHAR
STARTCHAR 00A2
ENCODING 162
SWIDTH 440 0
DWIDTH 11 0
BBX 10 19 1 -4
BITMAP
0600
0600
0600
0F00
3FC0
77C0
F7C0
F680
E600
E600
F600
F600
7E40
7FC0
1F80
0600
0600
0600
0200
ENDCHAR
STARTCHAR 00A3
ENCODING 163
SWIDTH 560 0
DWIDTH 14 0
BBX 13 17 1 0
BITMAP
0FE0
3DE0
38E0
7860
7800
7800
7C00
3C00
FF80
FF80
1C00
1C00
1800
37F8
3FF0
7FE0
C1E0
ENDCHAR
STARTCHAR 00A4
ENCODING 164
SWIDTH 520 0
DWIDTH 13 0
BBX 10 10 2 1
BITMAP
DEC0
7F80
6180
C180
C080
C080
6180
7380
DEC0
8040
ENDCHAR
STARTCHAR 00A5
ENCODING 165
SWIDTH 600 0
DWIDTH 15 0
BBX 15 17 0 0
BITMAP
FF1E
7F1E
3E0C
1E08
1E18
0F10
0F30
1FBC
3FFC
03C0
03C0
3FFC
03C0
03C0
03C0
0FF0
0FF0
ENDCHAR
STARTCHAR 00A6
ENCODING 166
SWIDTH 160 0
DWIDTH 4 0
BBX 2 24 1 -6
BITMAP
C0
C0
C0
C0
C0
C0
C0
C0
C0
C0
00
00
00
00
C0
C0
C0
C0
C0
C0
C0
C0
C0
C0
ENDCHAR
STARTCHAR 00A7
ENCODING 167
SWIDTH 560 0
DWIDTH 14 0
BBX 12 24 1 -6
BITMAP
0F80
3FC0
31C0
70C0
7000
3C00
3F00
1F80
3FE0
77E0
E1F0
E0F0
E070
F060
7CE0
7FC0
3F80
0FC0
03C0
01C0
30C0
30C0
3FC0
1F00
ENDCHAR
STARTCHAR 00A8
ENCODING 168
SWIDTH 280 0
DWIDTH 7 0
BBX 9 3 -1 13
BITMAP
F380
F380
E380
ENDCHAR
STARTCHAR 00A9
ENCODING 169
SWIDTH 800 0
DWIDTH 20 0
BBX 18 17 1 -3
BITMAP
07F800
0E0C00
180700
33F900
673980
461880
4E18C0
4E00C0
CE00C0
4E00C0
4F0080
670880
23F980
31E300
180600
0FFC00
01F000
ENDCHAR
STARTCHAR 00AA
ENCODING 170
SWIDTH 400 0
DWIDTH 10 0
BBX 9 9 1 9
BITMAP
3C00
6E00
6700
0700
7F00
E700
E700
FF80
7700
ENDCHAR
STARTCHAR 00AB
ENCODING 171
SWIDTH 480 0
DWIDTH 12 0
BBX 9 8 2 2
BITMAP
3180
7300
E700
C600
E700
6700
3380
1180
ENDCHAR
STARTCHAR 00AC
ENCODING 172
SWIDTH 520 0
DWIDTH 13 0
BBX 12 6 1 3
BITMAP
FFF0
FFF0
0030
0030
0030
0030
ENDCHAR
STARTCHAR 00AD
ENCODING 173
SWIDTH 400 0
DWIDTH 10 0
BBX 8 3 1 5
BITMAP
7F
7F
FF
ENDCHAR
STARTCHAR 00AE
ENCODING 174
SWIDTH 520 0
DWIDTH 13 0
BBX 11 11 1 9
BITMAP
0E00
3B80
60C0
4F60
4920
CE20
4A20
4940
60C0
3F80
0600
ENDCHAR
STARTCHAR 00AF
ENCODING 175
SWIDTH 280 0
DWIDTH 7 0
BBX 9 2 -1 14
BITMAP
FF80
FF80
ENDCHAR
STARTCHAR 00B0
ENCODING 176
SWIDTH 400 0
DWIDTH 10 0
BBX 8 6 1 11
BITMAP
7E
67
E7
67
76
3C
ENDCHAR
STARTCHAR 00B1
ENCODING 177
SWIDTH 520 0
DWIDTH 13 0
BBX 11 11 1 1
BITMAP
0600
0600
0600
7FE0
7FC0
0600
0600
0600
0000
7FE0
FFE0
ENDCHAR
STARTCHAR 00B2
ENCODING 178
SWIDTH 360 0
DWIDTH 9 0
BBX 8 9 1 10
BITMAP
FC
CE
CE
0E
1C
3A
66
FF
FE
ENDCHAR
STARTCHAR 00B3
ENCODING 179
SWIDTH 360 0
DWIDTH 9 0
BBX 8 12 1 7
BITMAP
7E
FE
CC
18
10
3E
0E
07
07
0E
FC
78
ENDCHAR
STARTCHAR 00B4
ENCODING 180
SWIDTH 280 0
DWIDTH 7 0
BBX 5 5 1 13
BITMAP
38
70
60
60
C0
ENDCHAR
STARTCHAR 00B5
ENCODING 181
SWIDTH 600 0
DWIDTH 15 0
BBX 14 18 1 -6
BITMAP
0810
F9F8
F9F8
7878
7878
7878
7878
7878
7878
78F8
7FFC
7F38
7000
7000
7800
7800
7800
6000
ENDCHAR
STARTCHAR 00B6
ENCODING 182
SWIDTH 560 0
DWIDTH 14 0
BBX 13 23 1 -6
BITMAP
1FF8
7D78
F120
F120
F120
F120
F120
7920
3F20
0120
0120
0120
0120
0120
0120
0120
0120
0120
0120
0120
0120
0120
0120
ENDCHAR
STARTCHAR 00B7
ENCODING 183
SWIDTH 280 0
DWIDTH 7 0
BBX 4 3 2 5
BITMAP
E0
F0
E0
ENDCHAR
STARTCHAR 00B8
ENCODING 184
SWIDTH 280 0
DWIDTH 7 0
BBX 4 6 2 -6
BITMAP
40
E0
F0
30
70
C0
ENDCHAR
STARTCHAR 00B9
ENCODING 185
SWIDTH 320 0
DWIDTH 8 0
BBX 6 9 1 10
BITMAP
FC
7C
38
38
38
38
38
FC
FC
ENDCHAR
STARTCHAR 00BA
ENCODING 186
SWIDTH 400 0
DWIDTH 10 0
BBX 9 9 1 9
BITMAP
3E00
7700
E380
E380
E380
E380
E380
7700
3E00
ENDCHAR
STARTCHAR 00BB
ENCODING 187
SWIDTH 480 0
DWIDTH 12 0
BBX 9 8 2 2
BITMAP
CC00
E700
7380
7380
7380
6700
C600
CC00
ENDCHAR
STARTCHAR 00BC
ENCODING 188
SWIDTH 840 0
DWIDTH 21 0
BBX 20 18 1 0
BITMAP
780080
F80180
380180
380300
380600
380C00
380C00
3818C0
3C31C0
7C73C0
FE67C0
00C5C0
0189C0
039FF0
031FF0
0601C0
0C03E0
0C03F0
ENDCHAR
STARTCHAR 00BD
ENCODING 189
SWIDTH 960 0
DWIDTH 24 0
BBX 23 18 1 0
BITMAP
780080
F80180
380180
380300
380600
380C00
380C00
381BFC
3C33BC
7C739C
FE631C
00C01C
018038
038060
0300C6
0601FE
0C03FE
0C03FE
ENDCHAR
STARTCHAR 00BE
ENCODING 190
SWIDTH 840 0
DWIDTH 21 0
BBX 20 18 1 0
BITMAP
FE0080
FE0180
FC0300
980700
380600
3E0C00
1F1800
0F19C0
0F31C0
9E63C0
FCC7C0
00CDC0
0199C0
031FF0
061FE0
0601C0
0C03E0
1807E0
ENDCHAR
STARTCHAR 00BF
ENCODING 191
SWIDTH 520 0
DWIDTH 13 0
BBX 9 18 2 -6
BITMAP
1800
3C00
3C00
3C00
0000
0000
1800
1C00
1C00
1C00
1C00
3800
7000
F000
E380
E300
F380
7F00
ENDCHAR
STARTCHAR 00C0
ENCODING 192
SWIDTH 680 0
DWIDTH 17 0
BBX 17 22 0 0
BITMAP
070000
038000
018000
008000
000000
00C000
01C000
01C000
03E000
03E000
02F000
06F000
047800
0C7800
0C3C00
083C00
1FFE00
181E00
301E00
300F00
781F80
F83F80
ENDCHAR
STARTCHAR 00C1
ENCODING 193
SWIDTH 680 0
DWIDTH 17 0
BBX 17 22 0 0
BITMAP
007000
00E000
00C000
008000
000000
00C000
01C000
01C000
03E000
03E000
02F000
06F000
047800
0C7800
0C3C00
083C00
1FFE00
181E00
301E00
300F00
781F80
F83F80
ENDCHAR
STARTCHAR 00C2
ENCODING 194
SWIDTH 680 0
DWIDTH 17 0
BBX 17 22 0 0
BITMAP
01C000
03E000
077800
041000
000000
00C000
01C000
01C000
03E000
03E000
02F000
06F000
047800
0C7800
0C3C00
083C00
1FFE00
181E00
301E00
300F00
781F80
F83F80
ENDCHAR
STARTCHAR 00C3
ENCODING 195
SWIDTH 680 0
DWIDTH 17 0
BBX 17 22 0 0
BITMAP
030000
0FF800
0DF000
000000
000000
00C000
01C000
01C000
03E000
03E000
02F000
06F000
047800
0C7800
0C3C00
083C00
1FFE00
181E00
301E00
300F00
781F80
F83F80
ENDCHAR
STARTCHAR 00C4
ENCODING 196
SWIDTH 680 0
DWIDTH 17 0
BBX 17 22 0 0
BITMAP
061000
0F3800
0F3800
063800
000000
00C000
01C000
01C000
03E000
03E000
02F000
06F000
047800
0C7800
0C3C00
083C00
1FFE00
181E00
301E00
300F00
781F80
F83F80
ENDCHAR
STARTCHAR 00C5
ENCODING 197
SWIDTH 680 0
DWIDTH 17 0
BBX 17 22 0 0
BITMAP
03E000
032000
032000
01C000
000000
00C000
01C000
01C000
03E000
03E000
02F000
06F000
047800
0C7800
0C3C00
083C00
1FFE00
181E00
301E00
300F00
781F80
F83F80
ENDCHAR
STARTCHAR 00C6
ENCODING 198
SWIDTH 920 0
DWIDTH 23 0
BBX 23 17 0 0
BITMAP
00FFFC
00FFFC
006E0C
007E0C
00DE08
009E00
019E30
011E30
03FFF0
07FFF0
061E30
0C1E30
081E04
181E06
381E0E
7C3FFE
FC3FFE
ENDCHAR
STARTCHAR 00C7
ENCODING 199
SWIDTH 640 0
DWIDTH 16 0
BBX 14 23 1 -6
BITMAP
07F0
1F7C
3C1C
781C
700C
F000
F000
F000
F000
F000
F000
F000
7800
7C00
3E04
1FFC
07F0
0180
0380
01C0
00C0
00C0
0380
ENDCHAR
STARTCHAR 00C8
ENCODING 200
SWIDTH 600 0
DWIDTH 15 0
BBX 14 22 1 0
BITMAP
0C00
0E00
0600
0300
0000
FFF8
FFF8
3C38
3C18
3C10
3C00
3C40
3CC0
3FC0
3DC0
3C40
3C00
3C08
3C0C
3C1C
FFF8
FFF8
ENDCHAR
STARTCHAR 00C9
ENCODING 201
SWIDTH 600 0
DWIDTH 15 0
BBX 14 22 1 0
BITMAP
01C0
0380
0300
0200
0000
FFF8
FFF8
3C38
3C18
3C10
3C00
3C40
3CC0
3FC0
3DC0
3C40
3C00
3C08
3C0C
3C1C
FFF8
FFF8
ENDCHAR
STARTCHAR 00CA
ENCODING 202
SWIDTH 600 0
DWIDTH 15 0
BBX 14 22 1 0
BITMAP
0700
0F80
1DC0
1040
0000
FFF8
FFF8
3C38
3C18
3C10
3C00
3C40
3CC0
3FC0
3DC0
3C40
3C00
3C08
3C0C
3C1C
FFF8
FFF8
ENDCHAR
STARTCHAR 00CB
ENCODING 203
SWIDTH 600 0
DWIDTH 15 0
BBX 14 22 1 0
BITMAP
18C0
3DE0
3DE0
18E0
0000
FFF8
FFF8
3C38
3C18
3C10
3C00
3C40
3CC0
3FC0
3DC0
3C40
3C00
3C08
3C0C
3C1C
FFF8
FFF8
ENDCHAR
STARTCHAR 00CC
ENCODING 204
SWIDTH 360 0
DWIDTH 9 0
BBX 7 22 1 0
BITMAP
70
70
38
10
00
FE
FE
3C
3C
3C
3C
3C
3C
3C
3C
3C
3C
3C
3C
3C
FE
FE
ENDCHAR
STARTCHAR 00CD
ENCODING 205
SWIDTH 360 0
DWIDTH 9 0
BBX 7 22 1 0
BITMAP
0E
1C
18
10
00
FE
FE
3C
3C
3C
3C
3C
3C
3C
3C
3C
3C
3C
3C
3C
FE
FE
ENDCHAR
STARTCHAR 00CE
ENCODING 206
SWIDTH 360 0
DWIDTH 9 0
BBX 7 22 1 0
BITMAP
18
3C
7E
C6
00
FE
FE
3C
3C
3C
3C
3C
3C
3C
3C
3C
3C
3C
3C
3C
FE
FE
ENDCHAR
STARTCHAR 00CF
ENCODING 207
SWIDTH 360 0
DWIDTH 9 0
BBX 8 21 1 0
BITMAP
EF
EF
E6
00
FE
FE
3C
3C
3C
3C
3C
3C
3C
3C
3C
3C
3C
3C
3C
FE
FE
ENDCHAR
STARTCHAR 00D0
ENCODING 208
SWIDTH 720 0
DWIDTH 18 0
BBX 16 17 1 0
BITMAP
FFE0
FFFC
3C3E
3C1E
3C0F
3C0F
3C0F
3C07
FF87
3C07
3C07
3C0F
3C0F
3C0E
3C1C
FFF8
FFE0
ENDCHAR
STARTCHAR 00D1
ENCODING 209
SWIDTH 720 0
DWIDTH 18 0
BBX 16 22 1 0
BITMAP
0300
0FF8
0DF0
0000
0000
F81F
FC1F
3E06
3E06
3F06
3F86
37C6
33C6
33E6
31F6
30FE
307E
307E
303E
301E
F80E
F80E
ENDCHAR
STARTCHAR 00D2
ENCODING 210
SWIDTH 720 0
DWIDTH 18 0
BBX 17 22 1 0
BITMAP
070000
038000
018000
008000
000000
07F000
1FFC00
381E00
781E00
700F00
F00F00
F00780
F00780
F00780
F00780
F00780
F00700
780F00
780E00
3C1E00
1F3C00
07F000
ENDCHAR
STARTCHAR 00D3
ENCODING 211
SWIDTH 720 0
DWIDTH 18 0
BBX 17 22 1 0
BITMAP
00E000
00E000
01C000
008000
000000
07F000
1FFC00
381E00
781E00
700F00
F00F00
F00780
F00780
F00780
F00780
F00780
F00700
780F00
780E00
3C1E00
1F3C00
07F000
ENDCHAR
STARTCHAR 00D4
ENCODING 212
SWIDTH 720 0
DWIDTH 18 0
BBX 17 22 1 0
BITMAP
01C000
03E000
0F7000
0C1000
000000
07F000
1FFC00
381E00
781E00
700F00
F00F00
F00780
F00780
F00780
F00780
F00780
F00700
780F00
780E00
3C1E00
1F3C00
07F000
ENDCHAR
STARTCHAR 00D5
ENCODING 213
SWIDTH 720 0
DWIDTH 18 0
BBX 17 22 1 0
BITMAP
030000
0FF800
0DF000
000000
000000
07F000
1FFC00
381E00
781E00
700F00
F00F00
F00780
F00780
F00780
F00780
F00780
F00700
780F00
780E00
3C1E00
1F3C00
07F000
ENDCHAR
STARTCHAR 00D6
ENCODING 214
SWIDTH 720 0
DWIDTH 18 0
BBX 17 22 1 0
BITMAP
041000
0E7800
0E7800
0E3000
000000
07F000
1FFC00
381E00
781E00
700F00
F00F00
F00780
F00780
F00780
F00780
F00780
F00700
780F00
780E00
3C1E00
1F3C00
07F000
ENDCHAR
STARTCHAR 00D7
ENCODING 215
SWIDTH 520 0
DWIDTH 13 0
BBX 12 12 1 0
BITMAP
C070
60E0
31C0
1980
0F00
0600
0F00
1B80
31C0
60E0
E070
4000
ENDCHAR
STARTCHAR 00D8
ENCODING 216
SWIDTH 720 0
DWIDTH 18 0
BBX 17 18 1 0
BITMAP
07F300
1FFE00
381E00
781F00
703F00
F03F00
F06780
F0C780
F1C780
F18780
F30780
F60700
7E0F00
7C0E00
3C1E00
3F3C00
67F000
400000
ENDCHAR
STARTCHAR 00D9
ENCODING 217
SWIDTH 680 0
DWIDTH 17 0
BBX 15 22 1 0
BITMAP
0700
0380
0180
0080
0000
FE3E
FE3E
780C
780C
780C
780C
780C
780C
780C
780C
780C
780C
3808
3C08
3C18
1FF0
0FE0
ENDCHAR
STARTCHAR 00DA
ENCODING 218
SWIDTH 680 0
DWIDTH 17 0
BBX 15 22 1 0
BITMAP
0070
00E0
00C0
0080
0000
FE3E
FE3E
780C
780C
780C
780C
780C
780C
780C
780C
780C
780C
3808
3C08
3C18
1FF0
0FE0
ENDCHAR
STARTCHAR 00DB
ENCODING 219
SWIDTH 680 0
DWIDTH 17 0
BBX 15 22 1 0
BITMAP
01C0
03E0
0778
0410
0000
FE3E
FE3E
780C
780C
780C
780C
780C
780C
780C
780C
780C
780C
3808
3C08
3C18
1FF0
0FE0
ENDCHAR
STARTCHAR 00DC
ENCODING 220
SWIDTH 680 0
DWIDTH 17 0
BBX 15 22 1 0
BITMAP
0610
0F38
0F38
0638
0000
FE3E
FE3E
780C
780C
780C
780C
780C
780C
780C
780C
780C
780C
3808
3C08
3C18
1FF0
0FE0
ENDCHAR
STARTCHAR 00DD
ENCODING 221
SWIDTH 600 0
DWIDTH 15 0
BBX 15 22 0 0
BITMAP
0070
0060
00C0
00C0
0000
FF1E
7F1E
3E0C
1E08
1E18
0F10
0F30
07A0
07E0
03C0
03C0
03C0
03C0
03C0
03C0
0FF0
0FF0
ENDCHAR
STARTCHAR 00DE
ENCODING 222
SWIDTH 600 0
DWIDTH 15 0
BBX 14 17 1 0
BITMAP
FE00
FE00
3C00
3F80
3FF0
3C78
3C3C
3C3C
3C3C
3C3C
3C38
3C78
3FE0
3C00
3C00
FF00
FF00
ENDCHAR
STARTCHAR 00DF
ENCODING 223
SWIDTH 680 0
DWIDTH 17 0
BBX 15 18 1 0
BITMAP
07E0
0FF0
1C78
3838
3838
3830
38E0
F9C0
79C0
39F0
39F8
38FC
387E
381E
398E
398E
F99C
F9F8
ENDCHAR
STARTCHAR 00E0
ENCODING 224
SWIDTH 520 0
DWIDTH 13 0
BBX 11 18 2 0
BITMAP
7000
3000
3800
1800
0800
0000
0E00
3F80
6780
E3C0
E3C0
07C0
1FC0
F3C0
E3C0
E3C0
F7E0
7BE0
ENDCHAR
STARTCHAR 00E1
ENCODING 225
SWIDTH 520 0
DWIDTH 13 0
BBX 11 18 2 0
BITMAP
0700
0600
0C00
0C00
0800
0000
0E00
3F80
6780
E3C0
E3C0
07C0
1FC0
F3C0
E3C0
E3C0
F7E0
7BE0
ENDCHAR
STARTCHAR 00E2
ENCODING 226
SWIDTH 520 0
DWIDTH 13 0
BBX 11 18 2 0
BITMAP
0C00
1E00
3F00
E380
C180
0000
0E00
3F80
6780
E3C0
E3C0
07C0
1FC0
F3C0
E3C0
E3C0
F7E0
7BE0
ENDCHAR
STARTCHAR 00E3
ENCODING 227
SWIDTH 520 0
DWIDTH 13 0
BBX 11 17 2 0
BITMAP
7080
FF80
8F00
0000
0000
0E00
3F80
6780
E3C0
E3C0
07C0
1FC0
F3C0
E3C0
E3C0
F7E0
7BE0
ENDCHAR
STARTCHAR 00E4
ENCODING 228
SWIDTH 520 0
DWIDTH 13 0
BBX 11 16 2 0
BITMAP
E780
E780
E380
0000
0E00
3F80
6780
E3C0
E3C0
07C0
1FC0
F3C0
E3C0
E3C0
F7E0
7BE0
ENDCHAR
STARTCHAR 00E5
ENCODING 229
SWIDTH 520 0
DWIDTH 13 0
BBX 11 18 2 0
BITMAP
1C00
3600
6600
3600
3C00
0000
0E00
3F80
6780
E3C0
E3C0
07C0
1FC0
F3C0
E3C0
E3C0
F7E0
7BE0
ENDCHAR
STARTCHAR 00E6
ENCODING 230
SWIDTH 720 0
DWIDTH 18 0
BBX 16 12 1 0
BITMAP
1C18
7FFE
63C7
63C7
23C7
0FFF
7FFF
F3C0
E3C0
E3E1
FEFF
7C7E
ENDCHAR
STARTCHAR 00E7
ENCODING 231
SWIDTH 440 0
DWIDTH 11 0
BBX 10 18 1 -6
BITMAP
0F00
3FC0
71C0
F1C0
F080
E000
E000
F000
F000
7840
7FC0
1F80
0400
0E00
0F00
0300
0300
0E00
ENDCHAR
STARTCHAR 00E8
ENCODING 232
SWIDTH 480 0
DWIDTH 12 0
BBX 11 18 1 0
BITMAP
3800
1C00
0C00
0E00
0400
0000
0600
3F80
71C0
F1E0
F1E0
FFE0
FFE0
F000
F000
7800
7FE0
1F80
ENDCHAR
STARTCHAR 00E9
ENCODING 233
SWIDTH 480 0
DWIDTH 12 0
BBX 11 18 1 0
BITMAP
0380
0300
0700
0600
0400
0000
0600
3F80
71C0
F1E0
F1E0
FFE0
FFE0
F000
F000
7800
7FE0
1F80
ENDCHAR
STARTCHAR 00EA
ENCODING 234
SWIDTH 480 0
DWIDTH 12 0
BBX 11 18 1 0
BITMAP
0600
0F00
1F80
31C0
60C0
0000
0600
3F80
71C0
F1E0
F1E0
FFE0
FFE0
F000
F000
7800
7FE0
1F80
ENDCHAR
STARTCHAR 00EB
ENCODING 235
SWIDTH 480 0
DWIDTH 12 0
BBX 11 16 1 0
BITMAP
79C0
7BC0
71C0
0000
0600
3F80
71C0
F1E0
F1E0
FFE0
FFE0
F000
F000
7800
7FE0
1F80
ENDCHAR
STARTCHAR 00EC
ENCODING 236
SWIDTH 320 0
DWIDTH 8 0
BBX 7 18 1 0
BITMAP
E0
E0
70
30
10
00
08
F8
F8
38
38
38
38
38
38
38
FE
FE
ENDCHAR
STARTCHAR 00ED
ENCODING 237
SWIDTH 320 0
DWIDTH 8 0
BBX 7 18 1 0
BITMAP
0E
1C
18
18
10
00
08
F8
F8
38
38
38
38
38
38
38
FE
FE
ENDCHAR
STARTCHAR 00EE
ENCODING 238
SWIDTH 320 0
DWIDTH 8 0
BBX 7 18 1 0
BITMAP
30
38
7C
CE
86
00
08
F8
F8
38
38
38
38
38
38
38
FE
FE
ENDCHAR
STARTCHAR 00EF
ENCODING 239
SWIDTH 320 0
DWIDTH 8 0
BBX 9 16 0 0
BITMAP
F700
F780
E700
0000
0400
7C00
7C00
1C00
1C00
1C00
1C00
1C00
1C00
1C00
7F00
7F00
ENDCHAR
STARTCHAR 00F0
ENCODING 240
SWIDTH 560 0
DWIDTH 14 0
BBX 12 18 1 0
BITMAP
0C00
3F20
1FE0
07C0
1FC0
09E0
04E0
3FF0
78F0
F0F0
F070
F070
F070
F0F0
F0F0
F0E0
7FE0
1F80
ENDCHAR
STARTCHAR 00F1
ENCODING 241
SWIDTH 640 0
DWIDTH 16 0
BBX 15 17 1 0
BITMAP
0E10
1FF0
13E0
0000
0000
0800
FBF0
FFF8
3878
3838
3838
3838
3838
3838
3878
FCFC
FEFE
ENDCHAR
STARTCHAR 00F2
ENCODING 242
SWIDTH 560 0
DWIDTH 14 0
BBX 12 18 1 0
BITMAP
1C00
1C00
0C00
0600
0600
0000
0600
3FC0
71E0
F0F0
F0F0
F070
F070
F070
F070
70F0
7DE0
1F80
ENDCHAR
STARTCHAR 00F3
ENCODING 243
SWIDTH 560 0
DWIDTH 14 0
BBX 12 18 1 0
BITMAP
03C0
0380
0300
0600
0600
0000
0600
3FC0
71E0
F0F0
F0F0
F070
F070
F070
F070
70F0
7DE0
1F80
ENDCHAR
STARTCHAR 00F4
ENCODING 244
SWIDTH 560 0
DWIDTH 14 0
BBX 12 18 1 0
BITMAP
0600
0F00
1F80
39C0
2060
0000
0600
3FC0
71E0
F0F0
F0F0
F070
F070
F070
F070
70F0
7DE0
1F80
ENDCHAR
STARTCHAR 00F5
ENCODING 245
SWIDTH 560 0
DWIDTH 14 0
BBX 12 17 1 0
BITMAP
1C40
3FC0
67C0
0000
0000
0600
3FC0
71E0
F0F0
F0F0
F070
F070
F070
F070
70F0
7DE0
1F80
ENDCHAR
STARTCHAR 00F6
ENCODING 246
SWIDTH 560 0
DWIDTH 14 0
BBX 12 16 1 0
BITMAP
79E0
79E0
39C0
0000
0600
3FC0
71E0
F0F0
F0F0
F070
F070
F070
F070
70F0
7DE0
1F80
ENDCHAR
STARTCHAR 00F7
ENCODING 247
SWIDTH 520 0
DWIDTH 13 0
BBX 12 11 1 1
BITMAP
0E00
0F00
0600
0000
0000
FFF0
0000
0000
0600
0F00
0E00
ENDCHAR
STARTCHAR 00F8
ENCODING 248
SWIDTH 560 0
DWIDTH 14 0
BBX 12 13 1 -1
BITMAP
0730
3FF0
71E0
F1F0
F3F0
F370
F670
FC70
F870
70F0
7DE0
FF80
C000
ENDCHAR
STARTCHAR 00F9
ENCODING 249
SWIDTH 600 0
DWIDTH 15 0
BBX 15 18 0 0
BITMAP
0E00
0700
0700
0300
0100
0000
0808
FCF8
FCF8
3C78
3C38
3C38
3C38
3C38
3C38
3C3C
3FFE
1F3C
ENDCHAR
STARTCHAR 00FA
ENCODING 250
SWIDTH 600 0
DWIDTH 15 0
BBX 15 18 0 0
BITMAP
00E0
00C0
01C0
0180
0100
0000
0808
FCF8
FCF8
3C78
3C38
3C38
3C38
3C38
3C38
3C3C
3FFE
1F3C
ENDCHAR
STARTCHAR 00FB
ENCODING 251
SWIDTH 600 0
DWIDTH 15 0
BBX 15 18 0 0
BITMAP
0180
03C0
07E0
0C70
1830
0000
0808
FCF8
FCF8
3C78
3C38
3C38
3C38
3C38
3C38
3C3C
3FFE
1F3C
ENDCHAR
STARTCHAR 00FC
ENCODING 252
SWIDTH 600 0
DWIDTH 15 0
BBX 15 16 0 0
BITMAP
1CF0
1EF0
1C70
0000
0808
FCF8
FCF8
3C78
3C38
3C38
3C38
3C38
3C38
3C3C
3FFE
1F3C
ENDCHAR
STARTCHAR 00FD
ENCODING 253
SWIDTH 560 0
DWIDTH 14 0
BBX 14 24 0 -6
BITMAP
00F0
00E0
00C0
0180
0180
0000
C244
FE7C
7C38
3C30
1E30
1E60
0E60
0F40
0FC0
0780
0780
0380
0300
0300
0600
7E00
7C00
7800
ENDCHAR
STARTCHAR 00FE
ENCODING 254
SWIDTH 600 0
DWIDTH 15 0
BBX 14 24 1 -6
BITMAP
1800
F800
F800
7800
3800
3800
38C0
3BF0
3EF8
3C38
383C
383C
383C
3838
3838
3878
3CF0
3FC0
3800
3800
3800
7800
FE00
FF00
ENDCHAR
STARTCHAR 00FF
ENCODING 255
SWIDTH 560 0
DWIDTH 14 0
BBX 14 22 0 -6
BITMAP
1E78
1E78
0E70
0000
C244
FE7C
7C38
3C30
1E30
1E60
0E60
0F40
0FC0
0780
0780
0380
0300
0300
0600
7E00
7C00
7800
ENDCHAR
STARTCHAR 0100
ENCODING 256
SWIDTH 680 0
DWIDTH 17 0
BBX 17 20 0 0
BITMAP
0FF800
000000
000000
00C000
01C000
01C000
03E000
03E000
02F000
06F000
047800
0C7800
0C3C00
083C00
1FFE00
181E00
301E00
300F00
781F80
F83F80
ENDCHAR
STARTCHAR 0101
ENCODING 257
SWIDTH 520 0
DWIDTH 13 0
BBX 11 16 2 0
BITMAP
FF80
FF80
0000
0000
0E00
3F80
6780
E3C0
E3C0
07C0
1FC0
F3C0
E3C0
E3C0
F7E0
7BE0
ENDCHAR
STARTCHAR 0102
ENCODING 258
SWIDTH 680 0
DWIDTH 17 0
BBX 17 22 0 0
BITMAP
0C1800
073800
07F000
03E000
000000
00C000
01C000
01C000
03E000
03E000
02F000
06F000
047800
0C7800
0C3C00
083C00
1FFE00
181E00
301E00
300F00
781F80
F83F80
ENDCHAR
STARTCHAR 0103
ENCODING 259
SWIDTH 520 0
DWIDTH 13 0
BBX 11 18 2 0
BITMAP
C180
C180
F780
7F00
3E00
0000
0E00
3F80
6780
E3C0
E3C0
07C0
1FC0
F3C0
E3C0
E3C0
F7E0
7BE0
ENDCHAR
STARTCHAR 0104
ENCODING 260
SWIDTH 680 0
DWIDTH 17 0
BBX 17 23 0 -6
BITMAP
00C000
01C000
01C000
03E000
03E000
02F000
06F000
047800
0C7800
0C3C00
083C00
1FFE00
181E00
301E00
300F00
781F80
F83F80
000C00
001800
003800
003D00
003F00
001E00
ENDCHAR
STARTCHAR 0105
ENCODING 261
SWIDTH 520 0
DWIDTH 13 0
BBX 11 18 2 -6
BITMAP
0E00
3F80
6780
E3C0
E3C0
07C0
1FC0
F3C0
E3C0
E3C0
F7E0
7BE0
0180
0700
0700
07A0
07E0
03C0
ENDCHAR
STARTCHAR 0106
ENCODING 262
SWIDTH 640 0
DWIDTH 16 0
BBX 14 22 1 0
BITMAP
00E0
00E0
01C0
0180
0000
07F0
1F7C
3C1C
781C
700C
F000
F000
F000
F000
F000
F000
F000
7800
7C00
3E04
1FFC
07F0
ENDCHAR
STARTCHAR 0107
ENCODING 263
SWIDTH 440 0
DWIDTH 11 0
BBX 10 18 1 0
BITMAP
0380
0300
0700
0600
0400
0000
0F00
3FC0
71C0
F1C0
F080
E000
E000
F000
F000
7840
7FC0
1F80
ENDCHAR
STARTCHAR 0108
ENCODING 264
SWIDTH 640 0
DWIDTH 16 0
BBX 14 22 1 0
BITMAP
01C0
03E0
0F70
0410
0000
07F0
1F7C
3C1C
781C
700C
F000
F000
F000
F000
F000
F000
F000
7800
7C00
3E04
1FFC
07F0
ENDCHAR
STARTCHAR 0109
ENCODING 265
SWIDTH 440 0
DWIDTH 11 0
BBX 10 18 1 0
BITMAP
0600
0F00
1F80
31C0
60C0
0000
0F00
3FC0
71C0
F1C0
F080
E000
E000
F000
F000
7840
7FC0
1F80
ENDCHAR
STARTCHAR 010A
ENCODING 266
SWIDTH 640 0
DWIDTH 16 0
BBX 14 22 1 0
BITMAP
0080
03C0
03C0
01C0
0000
07F0
1F7C
3C1C
781C
700C
F000
F000
F000
F000
F000
F000
F000
7800
7C00
3E04
1FFC
07F0
ENDCHAR
STARTCHAR 010B
ENCODING 267
SWIDTH 440 0
DWIDTH 11 0
BBX 10 17 1 0
BITMAP
0400
0F00
1F00
0E00
0000
0F00
3FC0
71C0
F1C0
F080
E000
E000
F000
F000
7840
7FC0
1F80
ENDCHAR
STARTCHAR 010C
ENCODING 268
SWIDTH 640 0
DWIDTH 16 0
BBX 14 22 1 0
BITMAP
0E30
07F0
03C0
0180
0000
07F0
1F7C
3C1C
781C
700C
F000
F000
F000
F000
F000
F000
F000
7800
7C00
3E04
1FFC
07F0
ENDCHAR
STARTCHAR 010D
ENCODING 269
SWIDTH 440 0
DWIDTH 11 0
BBX 10 18 1 0
BITMAP
2040
71C0
3F80
1F00
0E00
0000
0F00
3FC0
71C0
F1C0
F080
E000
E000
F000
F000
7840
7FC0
1F80
ENDCHAR
STARTCHAR 010E
ENCODING 270
SWIDTH 720 0
DWIDTH 18 0
BBX 16 22 1 0
BITMAP
0C30
0FE0
07C0
0300
0000
FFE0
FFFC
3C3E
3C1E
3C0F
3C0F
3C0F
3C07
3C07
3C07
3C07
3C0F
3C0F
3C0E
3C1C
FFF8
FFE0
ENDCHAR
STARTCHAR 010F
ENCODING 271
SWIDTH 720 0
DWIDTH 18 0
BBX 17 18 1 0
BITMAP
003180
01F780
01F780
00F380
007180
007300
037300
1FF000
78F000
707000
F07000
F07000
F07000
F0F000
F0F000
F1F800
7F7C00
3E7800
ENDCHAR
STARTCHAR 0110
ENCODING 272
SWIDTH 720 0
DWIDTH 18 0
BBX 16 17 1 0
BITMAP
FFE0
FFFC
3C3E
3C1E
3C0F
3C0F
3C0F
3C07
FF87
3C07
3C07
3C0F
3C0F
3C0E
3C1C
FFF8
FFE0
ENDCHAR
STARTCHAR 0111
ENCODING 273
SWIDTH 600 0
DWIDTH 15 0
BBX 14 18 1 0
BITMAP
0030
01F0
01F0
00F0
03F8
0070
0370
1FF0
78F0
7070
F070
F070
F070
F070
F070
F878
7FFC
3E70
ENDCHAR
STARTCHAR 0112
ENCODING 274
SWIDTH 600 0
DWIDTH 15 0
BBX 14 20 1 0
BITMAP
3FE0
0000
0000
FFF8
FFF8
3C38
3C18
3C10
3C00
3C40
3CC0
3FC0
3DC0
3C40
3C00
3C08
3C0C
3C1C
FFF8
FFF8
ENDCHAR
STARTCHAR 0113
ENCODING 275
SWIDTH 480 0
DWIDTH 12 0
BBX 11 16 1 0
BITMAP
7FC0
7FC0
0000
0000
0600
3F80
71C0
F1E0
F1E0
FFE0
FFE0
F000
F000
7800
7FE0
1F80
ENDCHAR
STARTCHAR 0114
ENCODING 276
SWIDTH 600 0
DWIDTH 15 0
BBX 14 22 1 0
BITMAP
3060
3CE0
1FC0
0F80
0000
FFF8
FFF8
3C38
3C18
3C10
3C00
3C40
3CC0
3FC0
3DC0
3C40
3C00
3C08
3C0C
3C1C
FFF8
FFF8
ENDCHAR
STARTCHAR 0115
ENCODING 277
SWIDTH 480 0
DWIDTH 12 0
BBX 11 18 1 0
BITMAP
6040
60C0
79C0
3F80
1F00
0000
0600
3F80
71C0
F1E0
F1E0
FFE0
FFE0
F000
F000
7800
7FE0
1F80
ENDCHAR
STARTCHAR 0116
ENCODING 278
SWIDTH 600 0
DWIDTH 15 0
BBX 14 22 1 0
BITMAP
0200
0780
0F80
0700
0000
FFF8
FFF8
3C38
3C18
3C10
3C00
3C40
3CC0
3FC0
3DC0
3C40
3C00
3C08
3C0C
3C1C
FFF8
FFF8
ENDCHAR
STARTCHAR 0117
ENCODING 279
SWIDTH 480 0
DWIDTH 12 0
BBX 11 17 1 0
BITMAP
0400
0F00
0F00
0E00
0000
0600
3F80
71C0
F1E0
F1E0
FFE0
FFE0
F000
F000
7800
7FE0
1F80
ENDCHAR
STARTCHAR 0118
ENCODING 280
SWIDTH 600 0
DWIDTH 15 0
BBX 14 23 1 -6
BITMAP
FFF8
FFF8
3C38
3C18
3C10
3C00
3C40
3CC0
3FC0
3DC0
3C40
3C00
3C08
3C0C
3C1C
FFF8
FFF8
00E0
01C0
0180
03E0
03F0
01E0
ENDCHAR
STARTCHAR 0119
ENCODING 281
SWIDTH 480 0
DWIDTH 12 0
BBX 11 18 1 -6
BITMAP
0600
3F80
71C0
F1E0
F1E0
FFE0
FFE0
F000
F000
7800
7FE0
1F80
0300
0700
0700
0F80
07E0
0780
ENDCHAR
STARTCHAR 011A
ENCODING 282
SWIDTH 600 0
DWIDTH 15 0
BBX 14 22 1 0
BITMAP
38C0
1FC0
0F00
0600
0000
FFF8
FFF8
3C38
3C18
3C10
3C00
3C40
3CC0
3FC0
3DC0
3C40
3C00
3C08
3C0C
3C1C
FFF8
FFF8
ENDCHAR
STARTCHAR 011B
ENCODING 283
SWIDTH 480 0
DWIDTH 12 0
BBX 11 18 1 0
BITMAP
2040
71C0
3F80
1F00
0E00
0000
0600
3F80
71C0
F1E0
F1E0
FFE0
FFE0
F000
F000
7800
7FE0
1F80
ENDCHAR
STARTCHAR 011C
ENCODING 284
SWIDTH 680 0
DWIDTH 17 0
BBX 16 22 1 0
BITMAP
01C0
03E0
0778
0410
0000
07F8
1F3E
3C0C
780C
700C
F000
F000
F000
F000
F07F
F03E
F01E
781E
781E
3C1E
1F7E
07F8
ENDCHAR
STARTCHAR 011D
ENCODING 285
SWIDTH 520 0
DWIDTH 13 0
BBX 12 24 1 -6
BITMAP
0600
0F00
1F80
73C0
60C0
0000
0E00
7FF0
71C0
F1E0
F1E0
F1E0
71C0
3F80
6400
6000
FFC0
7FE0
7FF0
E0F0
E070
E0E0
FBC0
7F00
ENDCHAR
STARTCHAR 011E
ENCODING 286
SWIDTH 680 0
DWIDTH 17 0
BBX 16 22 1 0
BITMAP
0C18
0F38
07F0
03E0
0000
07F8
1F3E
3C0C
780C
700C
F000
F000
F000
F000
F07F
F03E
F01E
781E
781E
3C1E
1F7E
07F8
ENDCHAR
STARTCHAR 011F
ENCODING 287
SWIDTH 520 0
DWIDTH 13 0
BBX 12 24 1 -6
BITMAP
60C0
60C0
7BC0
3F80
1F00
0000
0E00
7FF0
71C0
F1E0
F1E0
F1E0
71C0
3F80
6400
6000
FFC0
7FE0
7FF0
E0F0
E070
E0E0
FBC0
7F00
ENDCHAR
STARTCHAR 0120
ENCODING 288
SWIDTH 680 0
DWIDTH 17 0
BBX 16 22 1 0
BITMAP
0080
01E0
03E0
01C0
0000
07F8
1F3E
3C0C
780C
700C
F000
F000
F000
F000
F07F
F03E
F01E
781E
781E
3C1E
1F7E
07F8
ENDCHAR
STARTCHAR 0121
ENCODING 289
SWIDTH 520 0
DWIDTH 13 0
BBX 12 23 1 -6
BITMAP
0400
1E00
1E00
0E00
0000
0E00
7FF0
71C0
F1E0
F1E0
F1E0
71C0
3F80
6400
6000
FFC0
7FE0
7FF0
E0F0
E070
E0E0
FBC0
7F00
ENDCHAR
STARTCHAR 0122
ENCODING 290
SWIDTH 680 0
DWIDTH 17 0
BBX 16 24 1 -7
BITMAP
07F8
1F3E
3C0C
780C
700C
F000
F000
F000
F000
F07F
F03E
F01E
781E
781E
3C1E
1F7E
07F8
0000
00C0
01C0
03C0
00C0
00C0
0180
ENDCHAR
STARTCHAR 0123
ENCODING 291
SWIDTH 520 0
DWIDTH 13 0
BBX 12 24 1 -6
BITMAP
0600
0C00
1C00
1E00
1E00
0000
0E00
7FF0
71C0
F1E0
F1E0
F1E0
71C0
3F80
6400
6000
FFC0
7FE0
7FF0
E0F0
E070
E0E0
FBC0
7F00
ENDCHAR
STARTCHAR 0124
ENCODING 292
SWIDTH 760 0
DWIDTH 19 0
BBX 17 22 1 0
BITMAP
01C000
03E000
077800
041000
000000
FE3F80
FE3F80
3C0F00
3C0F00
3C0F00
3C0F00
3C0F00
3C0F00
3FFF00
3C0F00
3C0F00
3C0F00
3C0F00
3C0F00
3C0F00
FE3F80
FE3F80
ENDCHAR
STARTCHAR 0125
ENCODING 293
SWIDTH 640 0
DWIDTH 16 0
BBX 14 22 1 0
BITMAP
0700
0F80
1DE0
1040
1800
F800
F800
7800
3800
3800
3880
3BF0
3FF8
3878
3878
3878
3878
3878
3878
7878
FCFC
FEFC
ENDCHAR
STARTCHAR 0126
ENCODING 294
SWIDTH 760 0
DWIDTH 19 0
BBX 17 17 1 0
BITMAP
FE3F80
FE3F80
3C0F00
3C0F00
FFFF80
FFFF80
3C0F00
3C0F00
3FFF00
3C0F00
3C0F00
3C0F00
3C0F00
3C0F00
3C0F00
FE3F80
FE3F80
ENDCHAR
STARTCHAR 0127
ENCODING 295
SWIDTH 640 0
DWIDTH 16 0
BBX 15 18 0 0
BITMAP
0C00
7C00
7C00
3C00
FF80
FF00
1C40
1DF8
1FFC
1C3C
1C3C
1C3C
1C3C
1C3C
1C3C
3C3C
7E7E
7F7E
ENDCHAR
STARTCHAR 0128
ENCODING 296
SWIDTH 360 0
DWIDTH 9 0
BBX 8 22 1 0
BITMAP
20
FF
FE
8C
00
FE
FE
3C
3C
3C
3C
3C
3C
3C
3C
3C
3C
3C
3C
3C
FE
FE
ENDCHAR
STARTCHAR 0129
ENCODING 297
SWIDTH 320 0
DWIDTH 8 0
BBX 8 17 0 0
BITMAP
30
7F
FF
8E
00
04
7C
7C
1C
1C
1C
1C
1C
1C
1C
7F
7F
ENDCHAR
STARTCHAR 012A
ENCODING 298
SWIDTH 360 0
DWIDTH 9 0
BBX 8 20 1 0
BITMAP
FF
00
00
FE
FE
3C
3C
3C
3C
3C
3C
3C
3C
3C
3C
3C
3C
3C
FE
FE
ENDCHAR
STARTCHAR 012B
ENCODING 299
SWIDTH 320 0
DWIDTH 8 0
BBX 7 16 1 0
BITMAP
FE
FC
00
00
08
F8
F8
38
38
38
38
38
38
38
FE
FE
ENDCHAR
STARTCHAR 012C
ENCODING 300
SWIDTH 360 0
DWIDTH 9 0
BBX 8 22 1 0
BITMAP
C3
C3
FE
7C
00
FE
FE
3C
3C
3C
3C
3C
3C
3C
3C
3C
3C
3C
3C
3C
FE
FE
ENDCHAR
STARTCHAR 012D
ENCODING 301
SWIDTH 320 0
DWIDTH 8 0
BBX 8 18 0 0
BITMAP
41
C3
F7
7F
3C
00
04
7C
7C
1C
1C
1C
1C
1C
1C
1C
7F
7F
ENDCHAR
STARTCHAR 012E
ENCODING 302
SWIDTH 360 0
DWIDTH 9 0
BBX 7 23 1 -6
BITMAP
FE
FE
3C
3C
3C
3C
3C
3C
3C
3C
3C
3C
3C
3C
3C
FE
FE
38
70
70
F8
7E
78
ENDCHAR
STARTCHAR 012F
ENCODING 303
SWIDTH 320 0
DWIDTH 8 0
BBX 7 23 1 -6
BITMAP
78
78
78
00
00
08
F8
F8
38
38
38
38
38
38
38
FE
FE
30
70
E0
F8
FC
78
ENDCHAR
STARTCHAR 0130
ENCODING 304
SWIDTH 360 0
DWIDTH 9 0
BBX 7 21 1 1
BITMAP
3C
3C
38
00
FE
FE
3C
3C
3C
3C
3C
3C
3C
3C
3C
3C
3C
3C
3C
FE
FE
ENDCHAR
STARTCHAR 0131
ENCODING 305
SWIDTH 320 0
DWIDTH 8 0
BBX 7 12 1 0
BITMAP
08
F8
F8
38
38
38
38
38
38
38
FE
FE
ENDCHAR
STARTCHAR 0132
ENCODING 306
SWIDTH 680 0
DWIDTH 17 0
BBX 15 23 1 -6
BITMAP
FEFE
FEFE
3C3C
3C3C
3C3C
3C3C
3C3C
3C3C
3C3C
3C3C
3C3C
3C3C
3C3C
3C3C
3C3C
FE38
FE38
0038
0038
0070
0070
00E0
0180
ENDCHAR
STARTCHAR 0133
ENCODING 307
SWIDTH 560 0
DWIDTH 14 0
BBX 13 23 1 -6
BITMAP
7870
78F8
7870
0000
0000
0810
F9F0
F9F0
3870
3870
3870
3870
3870
3870
3870
FE70
FE70
0070
0070
00E0
00E0
01C0
0180
ENDCHAR
STARTCHAR 0134
ENCODING 308
SWIDTH 360 0
DWIDTH 9 0
BBX 8 28 0 -6
BITMAP
0C
3E
7E
63
00
7F
7F
3C
1C
1C
1C
1C
1C
1C
1C
1C
1C
1C
1C
1C
1C
1C
3C
3C
38
78
F0
C0
ENDCHAR
STARTCHAR 0135
ENCODING 309
SWIDTH 280 0
DWIDTH 7 0
BBX 7 24 1 -6
BITMAP
30
78
7C
CC
86
00
08
F8
F8
38
38
38
38
38
38
38
38
38
38
78
70
E0
E0
80
ENDCHAR
STARTCHAR 0136
ENCODING 310
SWIDTH 720 0
DWIDTH 18 0
BBX 17 24 1 -7
BITMAP
FE3F00
FE3F00
3C1800
3C3000
3C6000
3CC000
3D8000
3F8000
3FC000
3FE000
3DE000
3CF000
3CF800
3C7C00
3C3C00
FE3F80
FE1F80
000000
00C000
03C000
03C000
01C000
018000
030000
ENDCHAR
STARTCHAR 0137
ENCODING 311
SWIDTH 600 0
DWIDTH 15 0
BBX 14 25 1 -7
BITMAP
1800
F800
F800
7800
3800
3800
3800
38FC
3870
38C0
3980
3B80
3BC0
3BE0
39E0
78F0
FC7C
FE3C
0000
0300
0780
0F00
0300
0300
0600
ENDCHAR
STARTCHAR 0138
ENCODING 312
SWIDTH 600 0
DWIDTH 15 0
BBX 14 12 1 0
BITMAP
0800
F9F8
F8E0
39C0
3B80
3F80
3FC0
3BC0
39E0
38F0
FCFC
FE7C
ENDCHAR
STARTCHAR 0139
ENCODING 313
SWIDTH 600 0
DWIDTH 15 0
BBX 14 22 1 0
BITMAP
0E00
1C00
1800
1000
0000
FE00
FE00
3C00
3C00
3C00
3C00
3C00
3C00
3C00
3C00
3C00
3C00
3C08
3C1C
3C18
FFF8
FFF8
ENDCHAR
STARTCHAR 013A
ENCODING 314
SWIDTH 320 0
DWIDTH 8 0
BBX 7 23 1 0
BITMAP
1E
1C
18
30
00
18
F8
F8
78
38
38
38
38
38
38
38
38
38
38
38
78
FE
FE
ENDCHAR
STARTCHAR 013B
ENCODING 315
SWIDTH 600 0
DWIDTH 15 0
BBX 14 24 1 -7
BITMAP
FE00
FE00
3C00
3C00
3C00
3C00
3C00
3C00
3C00
3C00
3C00
3C00
3C08
3C1C
3C18
FFF8
FFF8
0000
0300
0780
0780
0300
0300
0600
ENDCHAR
STARTCHAR 013C
ENCODING 316
SWIDTH 320 0
DWIDTH 8 0
BBX 7 25 1 -7
BITMAP
18
F8
F8
78
38
38
38
38
38
38
38
38
38
38
38
78
FE
FE
00
18
78
78
38
30
30
ENDCHAR
STARTCHAR 013D
ENCODING 317
SWIDTH 600 0
DWIDTH 15 0
BBX 14 18 1 0
BITMAP
0018
FE38
FE78
3C18
3C18
3C10
3C30
3C00
3C00
3C00
3C00
3C00
3C00
3C08
3C1C
3C18
FFF8
FFF8
ENDCHAR
STARTCHAR 013E
ENCODING 318
SWIDTH 480 0
DWIDTH 12 0
BBX 11 18 1 0
BITMAP
18C0
F9E0
F9E0
78C0
38C0
38C0
3980
3800
3800
3800
3800
3800
3800
3800
3800
7800
FE00
FE00
ENDCHAR
STARTCHAR 013F
ENCODING 319
SWIDTH 600 0
DWIDTH 15 0
BBX 14 17 1 0
BITMAP
FE00
FE00
3C00
3C00
3C00
3C00
3C10
3C38
3C38
3C00
3C00
3C00
3C08
3C1C
3C18
FFF8
FFF8
ENDCHAR
STARTCHAR 0140
ENCODING 320
SWIDTH 320 0
DWIDTH 8 0
BBX 9 18 1 0
BITMAP
1800
F800
F800
7800
3800
3800
3800
3800
3B80
3B80
3900
3800
3800
3800
3800
7800
FE00
FE00
ENDCHAR
STARTCHAR 0141
ENCODING 321
SWIDTH 600 0
DWIDTH 15 0
BBX 15 17 0 0
BITMAP
7F00
7F00
1E00
1E00
1E00
1E00
1F80
1F80
1E00
3E00
FE00
5E00
1E04
1E0E
1E0C
7FFC
7FFC
ENDCHAR
STARTCHAR 0142
ENCODING 322
SWIDTH 320 0
DWIDTH 8 0
BBX 9 18 0 0
BITMAP
0C00
7C00
7C00
3C00
1C00
1C00
1C00
1D80
1F00
1E00
7C00
FC00
9C00
1C00
1C00
3C00
7F00
7F00
ENDCHAR
STARTCHAR 0143
ENCODING 323
SWIDTH 720 0
DWIDTH 18 0
BBX 16 22 1 0
BITMAP
00E0
00C0
01C0
0080
0000
F81F
FC1F
3E06
3E06
3F06
3F86
37C6
33C6
33E6
31F6
30FE
307E
307E
303E
301E
F80E
F80E
ENDCHAR
STARTCHAR 0144
ENCODING 324
SWIDTH 640 0
DWIDTH 16 0
BBX 15 18 1 0
BITMAP
00E0
01C0
0180
0180
0100
0000
0800
FBF0
FFF8
3878
3838
3838
3838
3838
3838
3878
FCFC
FEFE
ENDCHAR
STARTCHAR 0145
ENCODING 325
SWIDTH 720 0
DWIDTH 18 0
BBX 16 24 1 -7
BITMAP
F81F
FC1F
3E06
3E06
3F06
3F86
37C6
33C6
33E6
31F6
30FE
307E
307E
303E
301E
F80E
F80E
0000
0040
01E0
01E0
00C0
00C0
0180
ENDCHAR
STARTCHAR 0146
ENCODING 326
SWIDTH 640 0
DWIDTH 16 0
BBX 15 19 1 -7
BITMAP
0800
FBF0
FFF8
3878
3838
3838
3838
3838
3838
3878
FCFC
FEFE
0000
0180
0780
0780
0180
0300
0300
ENDCHAR
STARTCHAR 0147
ENCODING 327
SWIDTH 720 0
DWIDTH 18 0
BBX 16 22 1 0
BITMAP
0C30
0FE0
03C0
0180
0000
F81F
FC1F
3E06
3E06
3F06
3F86
37C6
33C6
33E6
31F6
30FE
307E
307E
303E
301E
F80E
F80E
ENDCHAR
STARTCHAR 0148
ENCODING 328
SWIDTH 640 0
DWIDTH 16 0
BBX 15 18 1 0
BITMAP
1020
1C70
0FC0
0780
0300
0000
0800
FBF0
FFF8
3878
3838
3838
3838
3838
3838
3878
FCFC
FEFE
ENDCHAR
STARTCHAR 0149
ENCODING 329
SWIDTH 840 0
DWIDTH 21 0
BBX 18 18 2 0
BITMAP
600000
F00000
F00000
700000
600000
600000
C00400
8FBF00
0FFF00
078780
078780
078780
078780
078780
078780
078780
0FCFC0
0FEFC0
ENDCHAR
STARTCHAR 014A
ENCODING 330
SWIDTH 680 0
DWIDTH 17 0
BBX 15 23 1 -6
BITMAP
3CF8
FFFC
7F3E
3E1E
3C1E
3C1E
3C1E
3C1E
3C1E
3C1E
3C1E
3C1E
3C1E
3C1E
3C1E
7E1E
FE1E
001E
001E
001C
01FC
01F8
01F0
ENDCHAR
STARTCHAR 014B
ENCODING 331
SWIDTH 600 0
DWIDTH 15 0
BBX 13 18 1 -6
BITMAP
0840
FBF0
FFF8
3C78
3C38
3838
3838
3838
3838
3838
FE38
FE38
0038
0070
0070
07F0
07E0
07C0
ENDCHAR
STARTCHAR 014C
ENCODING 332
SWIDTH 720 0
DWIDTH 18 0
BBX 17 20 1 0
BITMAP
0FF800
000000
000000
07F000
1FFC00
381E00
781E00
700F00
F00F00
F00780
F00780
F00780
F00780
F00780
F00700
780F00
780E00
3C1E00
1F3C00
07F000
ENDCHAR
STARTCHAR 014D
ENCODING 333
SWIDTH 560 0
DWIDTH 14 0
BBX 12 16 1 0
BITMAP
7FE0
7FE0
0000
0000
0600
3FC0
71E0
F0F0
F0F0
F070
F070
F070
F070
70F0
7DE0
1F80
ENDCHAR
STARTCHAR 014E
ENCODING 334
SWIDTH 720 0
DWIDTH 18 0
BBX 17 22 1 0
BITMAP
0C1000
0E3000
07F000
03E000
000000
07F000
1FFC00
381E00
781E00
700F00
F00F00
F00780
F00780
F00780
F00780
F00780
F00700
780F00
780E00
3C1E00
1F3C00
07F000
ENDCHAR
STARTCHAR 014F
ENCODING 335
SWIDTH 560 0
DWIDTH 14 0
BBX 12 18 1 0
BITMAP
2060
7060
3DC0
3FC0
0F00
0000
0600
3FC0
71E0
F0F0
F0F0
F070
F070
F070
F070
70F0
7DE0
1F80
ENDCHAR
STARTCHAR 0150
ENCODING 336
SWIDTH 720 0
DWIDTH 18 0
BBX 17 22 1 0
BITMAP
03BC00
033800
063000
020000
000000
07F000
1FFC00
381E00
781E00
700F00
F00F00
F00780
F00780
F00780
F00780
F00780
F00700
780F00
780E00
3C1E00
1F3C00
07F000
ENDCHAR
STARTCHAR 0151
ENCODING 337
SWIDTH 560 0
DWIDTH 14 0
BBX 12 18 1 0
BITMAP
0E70
0CE0
1CC0
19C0
1180
0000
0600
3FC0
71E0
F0F0
F0F0
F070
F070
F070
F070
70F0
7DE0
1F80
ENDCHAR
STARTCHAR 0152
ENCODING 338
SWIDTH 960 0
DWIDTH 24 0
BBX 23 17 1 0
BITMAP
07FFFC
1FFFFC
383C0C
781E0C
701E00
F00F00
F00F30
F00F30
F00FF0
F00F70
F00F30
F00F00
700E04
781E06
3C1C0E
1E7FFE
0FFFFC
ENDCHAR
STARTCHAR 0153
ENCODING 339
SWIDTH 800 0
DWIDTH 20 0
BBX 19 12 1 0
BITMAP
070600
3FFF80
71F1C0
F0F1C0
F0F1E0
F0FFE0
F0FFC0
F0F000
F0F000
70F800
7DFFE0
1F9F80
ENDCHAR
STARTCHAR 0154
ENCODING 340
SWIDTH 680 0
DWIDTH 17 0
BBX 16 22 1 0
BITMAP
01C0
0180
0300
0100
0000
FFE0
FFF8
3C3C
3C3C
3C3C
3C3C
3C3C
3C78
3FF0
3FE0
3DF0
3CF0
3C78
3C7C
3C3C
FE3F
FE1F
ENDCHAR
STARTCHAR 0155
ENCODING 341
SWIDTH 440 0
DWIDTH 11 0
BBX 10 18 1 0
BITMAP
0380
0700
0600
0600
0C00
0000
0800
FBC0
FFC0
3CC0
38C0
3800
3800
3800
3800
3C00
FE00
FF00
ENDCHAR
STARTCHAR 0156
ENCODING 342
SWIDTH 680 0
DWIDTH 17 0
BBX 16 24 1 -7
BITMAP
FFE0
FFF8
3C3C
3C3C
3C3C
3C3C
3C3C
3C78
3FF0
3FE0
3DF0
3CF0
3C78
3C7C
3C3C
FE3F
FE1F
0000
00C0
03C0
03C0
00C0
0180
0180
ENDCHAR
STARTCHAR 0157
ENCODING 343
SWIDTH 440 0
DWIDTH 11 0
BBX 10 19 1 -7
BITMAP
0800
FBC0
FFC0
3CC0
38C0
3800
3800
3800
3800
3C00
FE00
FF00
0000
0800
3C00
3C00
1C00
1800
3000
ENDCHAR
STARTCHAR 0158
ENCODING 344
SWIDTH 680 0
DWIDTH 17 0
BBX 16 22 1 0
BITMAP
1860
1FC0
0780
0300
0000
FFE0
FFF8
3C3C
3C3C
3C3C
3C3C
3C3C
3C78
3FF0
3FE0
3DF0
3CF0
3C78
3C7C
3C3C
FE3F
FE1F
ENDCHAR
STARTCHAR 0159
ENCODING 345
SWIDTH 440 0
DWIDTH 11 0
BBX 10 18 1 0
BITMAP
4080
71C0
3F00
1E00
0C00
0000
0800
FBC0
FFC0
3CC0
38C0
3800
3800
3800
3800
3C00
FE00
FF00
ENDCHAR
STARTCHAR 015A
ENCODING 346
SWIDTH 520 0
DWIDTH 13 0
BBX 12 22 1 0
BITMAP
0380
0300
0600
0200
0000
1FC0
3FE0
70E0
70E0
7060
7800
7E00
7F80
3FC0
0FE0
03F0
01F0
E0F0
E070
E0F0
FBE0
3F80
ENDCHAR
STARTCHAR 015B
ENCODING 347
SWIDTH 440 0
DWIDTH 11 0
BBX 10 18 1 0
BITMAP
0700
0600
0E00
0C00
0800
0000
1E00
7F80
E380
E180
F800
7E00
3F80
0F80
C3C0
C3C0
F780
FF00
ENDCHAR
STARTCHAR 015C
ENCODING 348
SWIDTH 520 0
DWIDTH 13 0
BBX 12 22 1 0
BITMAP
0700
0F80
3BC0
20C0
0000
1FC0
3FE0
70E0
70E0
7060
7800
7E00
7F80
3FC0
0FE0
03F0
01F0
E0F0
E070
E0F0
FBE0
3F80
ENDCHAR
STARTCHAR 015D
ENCODING 349
SWIDTH 440 0
DWIDTH 11 0
BBX 10 18 1 0
BITMAP
0C00
1E00
3F00
6380
C180
0000
1E00
7F80
E380
E180
F800
7E00
3F80
0F80
C3C0
C3C0
F780
FF00
ENDCHAR
STARTCHAR 015E
ENCODING 350
SWIDTH 520 0
DWIDTH 13 0
BBX 12 23 1 -6
BITMAP
1FC0
3FE0
70E0
70E0
7060
7800
7E00
7F80
3FC0
0FE0
03F0
01F0
E0F0
E070
E0F0
FBE0
3F80
0400
0E00
0F00
0300
0300
0E00
ENDCHAR
STARTCHAR 015F
ENCODING 351
SWIDTH 440 0
DWIDTH 11 0
BBX 10 18 1 -6
BITMAP
1E00
7F80
E380
E180
F800
7E00
3F80
0F80
C3C0
C3C0
F780
FF00
1800
1C00
1C00
0600
0C00
1800
ENDCHAR
STARTCHAR 0160
ENCODING 352
SWIDTH 520 0
DWIDTH 13 0
BBX 12 22 1 0
BITMAP
30C0
3F80
0F00
0600
0000
1FC0
3FE0
70E0
70E0
7060
7800
7E00
7F80
3FC0
0FE0
03F0
01F0
E0F0
E070
E0F0
FBE0
3F80
ENDCHAR
STARTCHAR 0161
ENCODING 353
SWIDTH 440 0
DWIDTH 11 0
BBX 10 18 1 0
BITMAP
4080
E380
7F00
3E00
1C00
0000
1E00
7F80
E380
E180
F800
7E00
3F80
0F80
C3C0
C3C0
F780
FF00
ENDCHAR
STARTCHAR 0162
ENCODING 354
SWIDTH 640 0
DWIDTH 16 0
BBX 15 23 1 -6
BITMAP
FFFC
FFFC
C78C
C786
C784
0780
0780
0780
0780
0780
0780
0780
0780
0780
0780
1FE0
1FE0
0200
0700
0780
0180
0180
0700
ENDCHAR
STARTCHAR 0163
ENCODING 355
SWIDTH 360 0
DWIDTH 9 0
BBX 9 21 0 -5
BITMAP
1C00
3C00
3C00
3C00
FF80
7F00
3C00
3C00
3C00
3C00
3C00
3C00
3C00
3F80
1F80
0C00
0C00
0E00
0600
0600
1C00
ENDCHAR
STARTCHAR 0164
ENCODING 356
SWIDTH 640 0
DWIDTH 16 0
BBX 15 22 1 0
BITMAP
1860
0FE0
0780
0300
0000
FFFC
FFFC
C78C
C786
C784
0780
0780
0780
0780
0780
0780
0780
0780
0780
0780
1FE0
1FE0
ENDCHAR
STARTCHAR 0165
ENCODING 357
SWIDTH 520 0
DWIDTH 13 0
BBX 13 18 0 0
BITMAP
0018
0078
0078
1C18
3C18
3C30
3C30
FF80
7F00
3C00
3C00
3C00
3C00
3C00
3C00
3C00
3F80
1F80
ENDCHAR
STARTCHAR 0166
ENCODING 358
SWIDTH 640 0
DWIDTH 16 0
BBX 15 17 1 0
BITMAP
FFFC
FFFC
C78C
C786
C784
0780
0780
1FF0
3FF0
0780
0780
0780
0780
0780
0780
1FE0
1FE0
ENDCHAR
STARTCHAR 0167
ENCODING 359
SWIDTH 360 0
DWIDTH 9 0
BBX 9 15 0 1
BITMAP
1C00
3C00
3C00
3C00
FF80
7F00
3C00
3C00
FF00
FC00
3C00
3C00
3C00
3F80
1F80
ENDCHAR
STARTCHAR 0168
ENCODING 360
SWIDTH 680 0
DWIDTH 17 0
BBX 15 22 1 0
BITMAP
0300
0FF8
0DF0
0000
0000
FE3E
FE3E
780C
780C
780C
780C
780C
780C
780C
780C
780C
780C
3808
3C08
3C18
1FF0
0FE0
ENDCHAR
STARTCHAR 0169
ENCODING 361
SWIDTH 600 0
DWIDTH 15 0
BBX 15 17 0 0
BITMAP
0F10
1FF0
11E0
0000
0000
0808
FCF8
FCF8
3C78
3C38
3C38
3C38
3C38
3C38
3C3C
3FFE
1F3C
ENDCHAR
STARTCHAR 016A
ENCODING 362
SWIDTH 680 0
DWIDTH 17 0
BBX 15 20 1 0
BITMAP
0FF8
0000
0000
FE3E
FE3E
780C
780C
780C
780C
780C
780C
780C
780C
780C
780C
3808
3C08
3C18
1FF0
0FE0
ENDCHAR
STARTCHAR 016B
ENCODING 363
SWIDTH 600 0
DWIDTH 15 0
BBX 15 16 0 0
BITMAP
1FF0
1FF0
0000
0000
0808
FCF8
FCF8
3C78
3C38
3C38
3C38
3C38
3C38
3C3C
3FFE
1F3C
ENDCHAR
STARTCHAR 016C
ENCODING 364
SWIDTH 680 0
DWIDTH 17 0
BBX 15 22 1 0
BITMAP
0C18
0738
07F0
03E0
0000
FE3E
FE3E
780C
780C
780C
780C
780C
780C
780C
780C
780C
780C
3808
3C08
3C18
1FF0
0FE0
ENDCHAR
STARTCHAR 016D
ENCODING 365
SWIDTH 600 0
DWIDTH 15 0
BBX 15 18 0 0
BITMAP
1810
1830
1EF0
0FE0
07C0
0000
0808
FCF8
FCF8
3C78
3C38
3C38
3C38
3C38
3C38
3C3C
3FFE
1F3C
ENDCHAR
STARTCHAR 016E
ENCODING 366
SWIDTH 680 0
DWIDTH 17 0
BBX 15 22 1 0
BITMAP
03E0
0360
0360
01C0
0000
FE3E
FE3E
780C
780C
780C
780C
780C
780C
780C
780C
780C
780C
3808
3C08
3C18
1FF0
0FE0
ENDCHAR
STARTCHAR 016F
ENCODING 367
SWIDTH 600 0
DWIDTH 15 0
BBX 15 18 0 0
BITMAP
0380
06C0
0EC0
06C0
0380
0000
0808
FCF8
FCF8
3C78
3C38
3C38
3C38
3C38
3C38
3C3C
3FFE
1F3C
ENDCHAR
STARTCHAR 0170
ENCODING 368
SWIDTH 680 0
DWIDTH 17 0
BBX 15 22 1 0
BITMAP
039C
0338
0730
0200
0000
FE3E
FE3E
780C
780C
780C
780C
780C
780C
780C
780C
780C
780C
3808
3C08
3C18
1FF0
0FE0
ENDCHAR
STARTCHAR 0171
ENCODING 369
SWIDTH 600 0
DWIDTH 15 0
BBX 15 18 0 0
BITMAP
07B8
0730
0670
0C60
0C40
0000
0808
FCF8
FCF8
3C78
3C38
3C38
3C38
3C38
3C38
3C3C
3FFE
1F3C
ENDCHAR
STARTCHAR 0172
ENCODING 370
SWIDTH 680 0
DWIDTH 17 0
BBX 15 23 1 -6
BITMAP
FE3E
FE3E
780C
780C
780C
780C
780C
780C
780C
780C
780C
780C
3808
3C08
3C18
1FF0
0FE0
00C0
0180
0380
03E0
01F0
01E0
ENDCHAR
STARTCHAR 0173
ENCODING 371
SWIDTH 600 0
DWIDTH 15 0
BBX 15 18 0 -6
BITMAP
0808
FCF8
FCF8
3C78
3C38
3C38
3C38
3C38
3C38
3C3C
3FFE
1F3C
0030
0070
0060
00F8
007C
0078
ENDCHAR
STARTCHAR 0174
ENCODING 372
SWIDTH 960 0
DWIDTH 24 0
BBX 24 22 0 0
BITMAP
000E00
001F00
007B80
002080
000000
FF0C1F
7F0E1F
3C0E06
3C1F06
3E1F04
1E1F0C
1E378C
1E3788
0F2788
0F63D8
0F63D0
07C3F0
07C1F0
07C1F0
0380E0
0380E0
0380E0
ENDCHAR
STARTCHAR 0175
ENCODING 373
SWIDTH 760 0
DWIDTH 19 0
BBX 19 18 0 0
BITMAP
003000
007800
00FC00
01CE00
010600
000000
C63120
FE31E0
7C78C0
3C78C0
3C7880
1CFC80
1E9D80
1F9F00
0F9F00
0F0F00
0F0E00
060600
ENDCHAR
STARTCHAR 0176
ENCODING 374
SWIDTH 600 0
DWIDTH 15 0
BBX 15 22 0 0
BITMAP
00E0
03F0
0778
0410
0000
FF1E
7F1E
3E0C
1E08
1E18
0F10
0F30
07A0
07E0
03C0
03C0
03C0
03C0
03C0
03C0
0FF0
0FF0
ENDCHAR
STARTCHAR 0177
ENCODING 375
SWIDTH 560 0
DWIDTH 14 0
BBX 14 24 0 -6
BITMAP
0180
03C0
07E0
0E70
0818
0000
C244
FE7C
7C38
3C30
1E30
1E60
0E60
0F40
0FC0
0780
0780
0380
0300
0300
0600
7E00
7C00
7800
ENDCHAR
STARTCHAR 0178
ENCODING 376
SWIDTH 600 0
DWIDTH 15 0
BBX 15 22 0 0
BITMAP
0610
0F3C
0F3C
0618
0000
FF1E
7F1E
3E0C
1E08
1E18
0F10
0F30
07A0
07E0
03C0
03C0
03C0
03C0
03C0
03C0
0FF0
0FF0
ENDCHAR
STARTCHAR 0179
ENCODING 377
SWIDTH 600 0
DWIDTH 15 0
BBX 13 22 1 0
BITMAP
01C0
0380
0300
0200
0000
7FF0
7FF8
70F0
61F0
61E0
03C0
07C0
0780
0F80
0F00
1F00
1E00
3C10
7C18
7838
F9F8
FFF0
ENDCHAR
STARTCHAR 017A
ENCODING 378
SWIDTH 480 0
DWIDTH 12 0
BBX 11 18 1 0
BITMAP
0380
0300
0600
0600
0400
0000
60C0
FFE0
E3C0
E780
0F80
0F00
1E00
3E00
3C60
78E0
FFE0
FFE0
ENDCHAR
STARTCHAR 017B
ENCODING 379
SWIDTH 600 0
DWIDTH 15 0
BBX 13 21 1 1
BITMAP
0780
0780
0700
0000
7FF0
7FF8
70F0
61F0
61E0
03C0
07C0
0780
0F80
0F00
1F00
1E00
3C10
7C18
7838
F9F8
FFF0
ENDCHAR
STARTCHAR 017C
ENCODING 380
SWIDTH 480 0
DWIDTH 12 0
BBX 11 17 1 0
BITMAP
0400
1E00
1E00
0E00
0000
60C0
FFE0
E3C0
E780
0F80
0F00
1E00
3E00
3C60
78E0
FFE0
FFE0
ENDCHAR
STARTCHAR 017D
ENCODING 381
SWIDTH 600 0
DWIDTH 15 0
BBX 13 22 1 0
BITMAP
1860
1FC0
0F80
0600
0000
7FF0
7FF8
70F0
61F0
61E0
03C0
07C0
0780
0F80
0F00
1F00
1E00
3C10
7C18
7838
F9F8
FFF0
ENDCHAR
STARTCHAR 017E
ENCODING 382
SWIDTH 480 0
DWIDTH 12 0
BBX 11 18 1 0
BITMAP
4080
71C0
3F00
1E00
0C00
0000
60C0
FFE0
E3C0
E780
0F80
0F00
1E00
3E00
3C60
78E0
FFE0
FFE0
ENDCHAR
STARTCHAR 017F
ENCODING 383
SWIDTH 360 0
DWIDTH 9 0
BBX 11 18 1 0
BITMAP
07C0
1FE0
1CC0
38C0
3800
3800
3800
F800
7800
3800
3800
3800
3800
3800
3800
3C00
FF00
FF00
ENDCHAR
STARTCHAR 018E
ENCODING 398
SWIDTH 600 0
DWIDTH 15 0
BBX 14 17 1 0
BITMAP
7FFC
7FF8
60F0
60F0
00F0
00F0
18F0
1CF0
1FF0
1CF0
18F0
00F0
C0F0
C0F0
E0F0
FFF8
FFFC
ENDCHAR
STARTCHAR 018F
ENCODING 399
SWIDTH 640 0
DWIDTH 16 0
BBX 15 17 1 0
BITMAP
3FC0
79F0
6078
603C
603C
001E
001E
001E
FFFE
FFFE
F01E
F01C
F01C
703C
7838
3EF0
0FC0
ENDCHAR
STARTCHAR 0192
ENCODING 402
SWIDTH 400 0
DWIDTH 10 0
BBX 17 24 -4 -6
BITMAP
001F00
003F80
007300
00F300
00E000
01E000
01E000
07F800
01F000
01C000
01C000
03C000
03C000
03C000
03C000
038000
038000
038000
038000
070000
C70000
C70000
EE0000
FC0000
ENDCHAR
STARTCHAR 019D
ENCODING 413
SWIDTH 720 0
DWIDTH 18 0
BBX 20 23 -3 -6
BITMAP
0F81F0
0FC1F0
03E060
03E060
03F060
03F860
037C60
033C60
033E60
031F60
030FE0
0307E0
0307E0
0303E0
0301E0
0200E0
0200E0
020000
060000
060000
FC0000
FC0000
F80000
ENDCHAR
STARTCHAR 01A0
ENCODING 416
SWIDTH 720 0
DWIDTH 18 0
BBX 17 20 1 0
BITMAP
000300
000300
000300
07FF00
1FFC00
381E00
781E00
700F00
F00F00
F00780
F00780
F00780
F00780
F00780
F00700
780F00
780E00
3C1E00
1F3C00
07F000
ENDCHAR
STARTCHAR 01A1
ENCODING 417
SWIDTH 600 0
DWIDTH 15 0
BBX 13 14 1 0
BITMAP
0038
0038
0738
3FE0
71E0
F0F0
F0F0
F070
F070
F070
F070
70F0
7DE0
1F80
ENDCHAR
STARTCHAR 01AF
ENCODING 431
SWIDTH 760 0
DWIDTH 19 0
BBX 18 20 1 0
BITMAP
000180
0001C0
0001C0
FE3F80
FE3E00
780C00
780C00
780C00
780C00
780C00
780C00
780C00
780C00
780C00
780C00
380800
3C0800
3C1800
1FF000
0FE000
ENDCHAR
STARTCHAR 01B0
ENCODING 432
SWIDTH 640 0
DWIDTH 16 0
BBX 15 15 0 0
BITMAP
0002
0006
0006
080E
FCFC
FCF8
3C78
3C38
3C38
3C38
3C38
3C38
3C3C
3FFE
1F3C
ENDCHAR
STARTCHAR 01B7
ENCODING 439
SWIDTH 600 0
DWIDTH 15 0
BBX 13 17 1 0
BITMAP
7FF0
7FF0
60F0
61E0
C3E0
03C0
0780
0F00
0FE0
01F0
0078
0078
C078
E078
E0F8
FBF0
7FC0
ENDCHAR
STARTCHAR 01C4
ENCODING 452
SWIDTH 1320 0
DWIDTH 33 0
BBX 31 22 1 0
BITMAP
00000618
000003F8
000001E0
000000C0
00000000
FFE01FFE
FFFC1FFE
3C3E1C3C
3C1E183C
3C0F1878
3C0F00F8
3C0F00F0
3C0701F0
3C0701E0
3C0703E0
3C0703C0
3C0F0780
3C0F0F86
3C0E0F06
3C1C1F0E
FFF81E3E
FFE01FFE
ENDCHAR
STARTCHAR 01C5
ENCODING 453
SWIDTH 1240 0
DWIDTH 31 0
BBX 29 18 1 0
BITMAP
00000810
FFE01C70
FFFC0FE0
3C3E07C0
3C1E0380
3C0F0000
3C0F1818
3C0F1FF8
3C0718F0
3C0718F0
3C0709E0
3C0703C0
3C0F07C0
3C0F0780
3C0E0F18
3C1C1F18
FFF81FF8
FFE01FF8
ENDCHAR
STARTCHAR 01C6
ENCODING 454
SWIDTH 1080 0
DWIDTH 27 0
BBX 26 18 1 0
BITMAP
00304080
01F0E380
01F07F00
00F03E00
00701C00
00700000
0370C080
1FF0FFC0
78F0C780
7070CF80
F0704F00
F0701E00
F0703E00
F0703C00
F07078C0
F878F0C0
7FFDFFC0
3E70FFC0
ENDCHAR
STARTCHAR 01C7
ENCODING 455
SWIDTH 960 0
DWIDTH 24 0
BBX 22 23 1 -6
BITMAP
FE01FC
FE01FC
3C00F8
3C0070
3C0070
3C0070
3C0070
3C0070
3C0070
3C0070
3C0070
3C0070
3C0870
3C1C70
3C1870
FFF870
FFF870
000070
0000F0
0000E0
0001E0
0003C0
000300
ENDCHAR
STARTCHAR 01C8
ENCODING 456
SWIDTH 880 0
DWIDTH 22 0
BBX 20 23 1 -6
BITMAP
FE00F0
FE00F0
3C00F0
3C0000
3C0000
3C0010
3C01F0
3C01F0
3C0070
3C0070
3C0070
3C0070
3C0870
3C1C70
3C1870
FFF870
FFF870
000070
0000F0
0000E0
0000E0
0001C0
000100
ENDCHAR
STARTCHAR 01C9
ENCODING 457
SWIDTH 640 0
DWIDTH 16 0
BBX 14 24 1 -6
BITMAP
1800
F83C
F83C
783C
3800
3800
3800
38FC
38FC
383C
383C
383C
383C
383C
383C
783C
FE3C
FE3C
0038
0038
0038
0070
00E0
00C0
ENDCHAR
STARTCHAR 01CA
ENCODING 458
SWIDTH 1080 0
DWIDTH 27 0
BBX 25 23 1 -6
BITMAP
F81F3F80
FC1F3F80
3E060F00
3E060E00
3F060E00
3F860E00
37C60E00
33C60E00
33E60E00
31F60E00
30FE0E00
307E0E00
307E0E00
303E0E00
301E0E00
F80E0E00
F80E0E00
00000E00
00001E00
00001C00
00003C00
00003800
00006000
ENDCHAR
STARTCHAR 01CB
ENCODING 459
SWIDTH 1000 0
DWIDTH 25 0
BBX 23 23 1 -6
BITMAP
F81F0E
FC1F1E
3E061E
3E0600
3F0600
3F8602
37C63E
33C63E
33E60E
31F60E
30FE0E
307E0E
307E0E
303E0E
301E0E
F80E0E
F80E0E
00000E
00000E
00001C
00001C
000038
000030
ENDCHAR
STARTCHAR 01CC
ENCODING 460
SWIDTH 960 0
DWIDTH 24 0
BBX 22 23 1 -6
BITMAP
000038
00003C
000038
000000
000000
080008
FBF0FC
FFF8FC
38783C
38383C
38383C
38383C
38383C
38383C
38783C
FCFC3C
FEFE3C
000038
000038
000038
000070
0000E0
0000C0
ENDCHAR
STARTCHAR 01CD
ENCODING 461
SWIDTH 680 0
DWIDTH 17 0
BBX 17 22 0 0
BITMAP
0E3800
07F000
03C000
018000
000000
00C000
01C000
01C000
03E000
03E000
02F000
06F000
047800
0C7800
0C3C00
083C00
1FFE00
181E00
301E00
300F00
781F80
F83F80
ENDCHAR
STARTCHAR 01CE
ENCODING 462
SWIDTH 520 0
DWIDTH 13 0
BBX 11 18 2 0
BITMAP
0100
E380
7E00
3C00
1800
0000
0E00
3F80
6780
E3C0
E3C0
07C0
1FC0
F3C0
E3C0
E3C0
F7E0
7BE0
ENDCHAR
STARTCHAR 01CF
ENCODING 463
SWIDTH 360 0
DWIDTH 9 0
BBX 7 22 1 0
BITMAP
42
F6
7C
38
00
FE
FE
3C
3C
3C
3C
3C
3C
3C
3C
3C
3C
3C
3C
3C
FE
FE
ENDCHAR
STARTCHAR 01D0
ENCODING 464
SWIDTH 320 0
DWIDTH 8 0
BBX 7 18 1 0
BITMAP
C2
E6
7C
78
30
00
08
F8
F8
38
38
38
38
38
38
38
FE
FE
ENDCHAR
STARTCHAR 01D1
ENCODING 465
SWIDTH 720 0
DWIDTH 18 0
BBX 17 22 1 0
BITMAP
0E3000
07F000
03C000
018000
000000
07F000
1FFC00
381E00
781E00
700F00
F00F00
F00780
F00780
F00780
F00780
F00780
F00700
780F00
780E00
3C1E00
1F3C00
07F000
ENDCHAR
STARTCHAR 01D2
ENCODING 466
SWIDTH 560 0
DWIDTH 14 0
BBX 12 18 1 0
BITMAP
2040
38C0
1F80
0F00
0600
0000
0600
3FC0
71E0
F0F0
F0F0
F070
F070
F070
F070
70F0
7DE0
1F80
ENDCHAR
STARTCHAR 01D3
ENCODING 467
SWIDTH 680 0
DWIDTH 17 0
BBX 15 22 1 0
BITMAP
0E38
07F0
03C0
0180
0000
FE3E
FE3E
780C
780C
780C
780C
780C
780C
780C
780C
780C
780C
3808
3C08
3C18
1FF0
0FE0
ENDCHAR
STARTCHAR 01D4
ENCODING 468
SWIDTH 600 0
DWIDTH 15 0
BBX 15 18 0 0
BITMAP
0020
1C70
0FE0
0780
0300
0000
0808
FCF8
FCF8
3C78
3C38
3C38
3C38
3C38
3C38
3C3C
3FFE
1F3C
ENDCHAR
STARTCHAR 01D5
ENCODING 469
SWIDTH 680 0
DWIDTH 17 0
BBX 15 25 1 0
BITMAP
0FF8
0FF8
0000
0610
0F38
0F38
0638
0000
FE3E
FE3E
780C
780C
780C
780C
780C
780C
780C
780C
780C
780C
3808
3C08
3C18
1FF0
0FE0
ENDCHAR
STARTCHAR 01D6
ENCODING 470
SWIDTH 600 0
DWIDTH 15 0
BBX 15 19 0 0
BITMAP
1FF0
0000
0000
1C70
1EF0
1C70
0000
0808
FCF8
FCF8
3C78
3C38
3C38
3C38
3C38
3C38
3C3C
3FFE
1F3C
ENDCHAR
STARTCHAR 01D7
ENCODING 471
SWIDTH 680 0
DWIDTH 17 0
BBX 15 26 1 0
BITMAP
00E0
00E0
00C0
0000
0610
0F38
0F38
0638
0000
FE3E
FE3E
780C
780C
780C
780C
780C
780C
780C
780C
780C
780C
3808
3C08
3C18
1FF0
0FE0
ENDCHAR
STARTCHAR 01D8
ENCODING 472
SWIDTH 600 0
DWIDTH 15 0
BBX 15 21 0 0
BITMAP
00E0
01C0
0180
0300
0000
1C70
1EF0
1C70
0000
0808
FCF8
FCF8
3C78
3C38
3C38
3C38
3C38
3C38
3C3C
3FFE
1F3C
ENDCHAR
STARTCHAR 01D9
ENCODING 473
SWIDTH 680 0
DWIDTH 17 0
BBX 15 26 1 1
BITMAP
0E38
07E0
03C0
0000
0610
0F38
0F38
0638
0000
FE3E
FE3E
780C
780C
780C
780C
780C
780C
780C
780C
780C
780C
3808
3C08
3C18
1FF0
0FE0
ENDCHAR
STARTCHAR 01DA
ENCODING 474
SWIDTH 600 0
DWIDTH 15 0
BBX 15 21 0 0
BITMAP
1C20
0FE0
0780
0300
0000
1C70
1EF0
1C70
0000
0808
FCF8
FCF8
3C78
3C38
3C38
3C38
3C38
3C38
3C3C
3FFE
1F3C
ENDCHAR
STARTCHAR 01DB
ENCODING 475
SWIDTH 680 0
DWIDTH 17 0
BBX 15 26 1 0
BITMAP
0380
0180
01C0
0000
0610
0F38
0F38
0638
0000
FE3E
FE3E
780C
780C
780C
780C
780C
780C
780C
780C
780C
780C
3808
3C08
3C18
1FF0
0FE0
ENDCHAR
STARTCHAR 01DC
ENCODING 476
SWIDTH 600 0
DWIDTH 15 0
BBX 15 21 0 0
BITMAP
0600
0700
0300
0180
0000
1C70
1EF0
1C70
0000
0808
FCF8
FCF8
3C78
3C38
3C38
3C38
3C38
3C38
3C3C
3FFE
1F3C
ENDCHAR
STARTCHAR 01DD
ENCODING 477
SWIDTH 480 0
DWIDTH 12 0
BBX 11 12 1 0
BITMAP
0C00
7F80
C7C0
03C0
01E0
01E0
FFE0
E1E0
E1E0
F1C0
7B80
3F00
ENDCHAR
STARTCHAR 01E4
ENCODING 484
SWIDTH 680 0
DWIDTH 17 0
BBX 16 17 1 0
BITMAP
07F8
1F3E
3C0C
780C
700C
F000
F000
F000
F000
F07F
F03E
F01E
78FF
78FF
3C1E
1F7E
07F8
ENDCHAR
STARTCHAR 01E5
ENCODING 485
SWIDTH 520 0
DWIDTH 13 0
BBX 15 18 -1 -6
BITMAP
0380
1FFC
1C70
3C78
3C78
3C78
1C70
0FE0
1900
1800
3FF0
1FF8
1FFC
383C
FFFE
FFFE
3EF0
1FC0
ENDCHAR
STARTCHAR 01E6
ENCODING 486
SWIDTH 680 0
DWIDTH 17 0
BBX 16 22 1 0
BITMAP
0E30
07F0
03C0
0180
0000
07F8
1F3E
3C0C
780C
700C
F000
F000
F000
F000
F07F
F03E
F01E
781E
781E
3C1E
1F7E
07F8
ENDCHAR
STARTCHAR 01E7
ENCODING 487
SWIDTH 520 0
DWIDTH 13 0
BBX 12 24 1 -6
BITMAP
4080
71C0
3F00
1E00
0C00
0000
0E00
7FF0
71C0
F1E0
F1E0
F1E0
71C0
3F80
6400
6000
FFC0
7FE0
7FF0
E0F0
E070
E0E0
FBC0
7F00
ENDCHAR
STARTCHAR 01E8
ENCODING 488
SWIDTH 720 0
DWIDTH 18 0
BBX 17 22 1 0
BITMAP
0E3000
07F000
03C000
018000
000000
FE3F00
FE3F00
3C1800
3C3000
3C6000
3CC000
3D8000
3F8000
3FC000
3FE000
3DE000
3CF000
3CF800
3C7C00
3C3C00
FE3F80
FE1F80
ENDCHAR
STARTCHAR 01E9
ENCODING 489
SWIDTH 600 0
DWIDTH 15 0
BBX 14 22 1 0
BITMAP
1860
1FC0
0F80
0600
1800
F800
F800
7800
3800
3800
3800
38FC
3870
38C0
3980
3B80
3BC0
3BE0
39E0
78F0
FC7C
FE3C
ENDCHAR
STARTCHAR 01EA
ENCODING 490
SWIDTH 720 0
DWIDTH 18 0
BBX 17 23 1 -6
BITMAP
07F000
1FFC00
381E00
781E00
700F00
F00F00
F00780
F00780
F00780
F00780
F00780
F00700
780F00
780E00
3C1E00
1F3C00
07F000
00E000
01C000
01C000
01E000
01F800
00F000
ENDCHAR
STARTCHAR 01EB
ENCODING 491
SWIDTH 560 0
DWIDTH 14 0
BBX 12 18 1 -6
BITMAP
0600
3FC0
71E0
F0F0
F0F0
F070
F070
F070
F070
70F0
7DE0
1F80
0600
1C00
1C00
3E00
1F00
1E00
ENDCHAR
STARTCHAR 01EE
ENCODING 494
SWIDTH 600 0
DWIDTH 15 0
BBX 13 22 1 0
BITMAP
38C0
1FC0
0F00
0600
0000
7FF0
7FF0
60F0
61E0
C3E0
03C0
0780
0F00
0FE0
01F0
0078
0078
C078
E078
E0F8
FBF0
7FC0
ENDCHAR
STARTCHAR 01EF
ENCODING 495
SWIDTH 480 0
DWIDTH 12 0
BBX 11 24 1 -6
BITMAP
0080
71C0
3F80
1E00
0C00
0000
60C0
7FE0
E3C0
E3C0
0780
0F00
0F00
1E00
3F80
1FC0
01E0
01E0
01E0
01E0
C1E0
E1C0
F780
7F00
ENDCHAR
STARTCHAR 01F1
ENCODING 497
SWIDTH 1320 0
DWIDTH 33 0
BBX 31 17 1 0
BITMAP
FFE01FFE
FFFC1FFE
3C3E1C3C
3C1E183C
3C0F1878
3C0F00F8
3C0F00F0
3C0701F0
3C0701E0
3C0703E0
3C0703C0
3C0F0780
3C0F0F86
3C0E0F06
3C1C1F0E
FFF81E3E
FFE01FFE
ENDCHAR
STARTCHAR 01F2
ENCODING 498
SWIDTH 1240 0
DWIDTH 31 0
BBX 29 17 1 0
BITMAP
FFE00000
FFFC0000
3C3E0000
3C1E0000
3C0F0000
3C0F1818
3C0F1FF8
3C0718F0
3C0718F0
3C0709E0
3C0703C0
3C0F07C0
3C0F0780
3C0E0F18
3C1C1F18
FFF81FF8
FFE01FF8
ENDCHAR
STARTCHAR 01F3
ENCODING 499
SWIDTH 1080 0
DWIDTH 27 0
BBX 26 18 1 0
BITMAP
00300000
01F00000
01F00000
00F00000
00700000
00700000
0370C080
1FF0FFC0
78F0C780
7070CF80
F0704F00
F0701E00
F0703E00
F0703C00
F07078C0
F878F0C0
7FFDFFC0
3E70FFC0
ENDCHAR
STARTCHAR 01FA
ENCODING 506
SWIDTH 680 0
DWIDTH 17 0
BBX 17 27 0 0
BITMAP
007000
00E000
00C000
000000
000000
03E000
032000
032000
01C000
000000
00C000
01C000
01C000
03E000
03E000
02F000
06F000
047800
0C7800
0C3C00
083C00
1FFE00
181E00
301E00
300F00
781F80
F83F80
ENDCHAR
STARTCHAR 01FB
ENCODING 507
SWIDTH 520 0
DWIDTH 13 0
BBX 11 22 2 0
BITMAP
0F00
0E00
0C00
1800
0000
1C00
3600
2600
3600
0800
0E00
3F80
6780
E3C0
E3C0
07C0
1FC0
F3C0
E3C0
E3C0
F7E0
7BE0
ENDCHAR
STARTCHAR 01FC
ENCODING 508
SWIDTH 920 0
DWIDTH 23 0
BBX 23 22 0 0
BITMAP
000780
000700
000600
000400
000000
00FFFC
00FFFC
006E0C
007E0C
00DE08
009E00
019E30
011E30
03FFF0
07FFF0
061E30
0C1E30
081E04
181E06
381E0E
7C3FFE
FC3FFE
ENDCHAR
STARTCHAR 01FD
ENCODING 509
SWIDTH 720 0
DWIDTH 18 0
BBX 16 18 1 0
BITMAP
0070
00E0
00C0
00C0
0080
0000
1C18
7FFE
63C7
63C7
23C7
0FFF
7FFF
F3C0
E3C0
E3E1
FEFF
7C7E
ENDCHAR
STARTCHAR 01FE
ENCODING 510
SWIDTH 720 0
DWIDTH 18 0
BBX 17 23 1 -1
BITMAP
00E000
00E000
01C000
008000
000000
07F300
1FFE00
381E00
781F00
703F00
F03F00
F06780
F0C780
F1C780
F18780
F30780
F60700
7E0F00
7C0E00
3C1E00
3F3C00
67F000
400000
ENDCHAR
STARTCHAR 01FF
ENCODING 511
SWIDTH 560 0
DWIDTH 14 0
BBX 12 19 1 -1
BITMAP
03C0
0380
0300
0600
0600
0000
0730
3FF0
71E0
F1F0
F3F0
F370
F670
FC70
F870
70F0
7DE0
FF80
C000
ENDCHAR
STARTCHAR 0200
ENCODING 512
SWIDTH 680 0
DWIDTH 17 0
BBX 17 22 0 0
BITMAP
002000
0EE000
066000
073000
000000
00C000
01C000
01C000
03E000
03E000
02F000
06F000
047800
0C7800
0C3C00
083C00
1FFE00
181E00
301E00
300F00
781F80
F83F80
ENDCHAR
STARTCHAR 0201
ENCODING 513
SWIDTH 520 0
DWIDTH 13 0
BBX 12 18 1 0
BITMAP
E700
7700
3380
3980
1080
0000
0700
1FC0
33C0
71E0
71E0
03E0
0FE0
79E0
71E0
71E0
7BF0
3DF0
ENDCHAR
STARTCHAR 0202
ENCODING 514
SWIDTH 680 0
DWIDTH 17 0
BBX 17 22 0 0
BITMAP
03E000
07F000
067800
0C1800
000000
00C000
01C000
01C000
03E000
03E000
02F000
06F000
047800
0C7800
0C3C00
083C00
1FFE00
181E00
301E00
300F00
781F80
F83F80
ENDCHAR
STARTCHAR 0203
ENCODING 515
SWIDTH 520 0
DWIDTH 13 0
BBX 11 18 2 0
BITMAP
1C00
7F00
FF80
C180
8180
0000
0E00
3F80
6780
E3C0
E3C0
07C0
1FC0
F3C0
E3C0
E3C0
F7E0
7BE0
ENDCHAR
STARTCHAR 0204
ENCODING 516
SWIDTH 600 0
DWIDTH 15 0
BBX 14 22 1 0
BITMAP
1000
3380
1980
18C0
0000
FFF8
FFF8
3C38
3C18
3C10
3C00
3C40
3CC0
3FC0
3DC0
3C40
3C00
3C08
3C0C
3C1C
FFF8
FFF8
ENDCHAR
STARTCHAR 0205
ENCODING 517
SWIDTH 480 0
DWIDTH 12 0
BBX 11 18 1 0
BITMAP
F700
7300
3380
1980
1880
0000
0600
3F80
71C0
F1E0
F1E0
FFE0
FFE0
F000
F000
7800
7FE0
1F80
ENDCHAR
STARTCHAR 0206
ENCODING 518
SWIDTH 600 0
DWIDTH 15 0
BBX 14 22 1 0
BITMAP
0F80
1FC0
19E0
3060
0000
FFF8
FFF8
3C38
3C18
3C10
3C00
3C40
3CC0
3FC0
3DC0
3C40
3C00
3C08
3C0C
3C1C
FFF8
FFF8
ENDCHAR
STARTCHAR 0207
ENCODING 519
SWIDTH 480 0
DWIDTH 12 0
BBX 11 18 1 0
BITMAP
0F00
3F80
7FC0
60C0
60C0
0000
0600
3F80
71C0
F1E0
F1E0
FFE0
FFE0
F000
F000
7800
7FE0
1F80
ENDCHAR
STARTCHAR 0208
ENCODING 520
SWIDTH 360 0
DWIDTH 9 0
BBX 8 22 0 0
BITMAP
62
E6
67
33
00
7F
7F
1E
1E
1E
1E
1E
1E
1E
1E
1E
1E
1E
1E
1E
7F
7F
ENDCHAR
STARTCHAR 0209
ENCODING 521
SWIDTH 320 0
DWIDTH 8 0
BBX 9 18 -1 0
BITMAP
E600
6600
3300
3300
1100
0000
0200
3E00
3E00
0E00
0E00
0E00
0E00
0E00
0E00
0E00
3F80
3F80
ENDCHAR
STARTCHAR 020A
ENCODING 522
SWIDTH 360 0
DWIDTH 9 0
BBX 8 22 1 0
BITMAP
3C
7E
EE
83
00
FE
FE
3C
3C
3C
3C
3C
3C
3C
3C
3C
3C
3C
3C
3C
FE
FE
ENDCHAR
STARTCHAR 020B
ENCODING 523
SWIDTH 320 0
DWIDTH 8 0
BBX 8 18 0 0
BITMAP
1C
7E
7F
C3
C3
00
04
7C
7C
1C
1C
1C
1C
1C
1C
1C
7F
7F
ENDCHAR
STARTCHAR 020C
ENCODING 524
SWIDTH 720 0
DWIDTH 18 0
BBX 17 22 1 0
BITMAP
040000
1CE000
0E6000
063000
000000
07F000
1FFC00
381E00
781E00
700F00
F00F00
F00780
F00780
F00780
F00780
F00780
F00700
780F00
780E00
3C1E00
1F3C00
07F000
ENDCHAR
STARTCHAR 020D
ENCODING 525
SWIDTH 560 0
DWIDTH 14 0
BBX 12 18 1 0
BITMAP
7780
3380
3980
18C0
08C0
0000
0600
3FC0
71E0
F0F0
F0F0
F070
F070
F070
F070
70F0
7DE0
1F80
ENDCHAR
STARTCHAR 020E
ENCODING 526
SWIDTH 720 0
DWIDTH 18 0
BBX 17 22 1 0
BITMAP
03E000
07F000
0E7000
0C3800
000000
07F000
1FFC00
381E00
781E00
700F00
F00F00
F00780
F00780
F00780
F00780
F00780
F00700
780F00
780E00
3C1E00
1F3C00
07F000
ENDCHAR
STARTCHAR 020F
ENCODING 527
SWIDTH 560 0
DWIDTH 14 0
BBX 12 18 1 0
BITMAP
0F00
3FC0
3FC0
60E0
6060
0000
0600
3FC0
71E0
F0F0
F0F0
F070
F070
F070
F070
70F0
7DE0
1F80
ENDCHAR
STARTCHAR 0210
ENCODING 528
SWIDTH 680 0
DWIDTH 17 0
BBX 16 22 1 0
BITMAP
0880
3980
18C0
0CC0
0000
FFE0
FFF8
3C3C
3C3C
3C3C
3C3C
3C3C
3C78
3FF0
3FE0
3DF0
3CF0
3C78
3C7C
3C3C
FE3F
FE1F
ENDCHAR
STARTCHAR 0211
ENCODING 529
SWIDTH 440 0
DWIDTH 11 0
BBX 10 18 1 0
BITMAP
E700
7700
3380
3180
1080
0000
0800
FBC0
FFC0
3CC0
38C0
3800
3800
3800
3800
3C00
FE00
FF00
ENDCHAR
STARTCHAR 0212
ENCODING 530
SWIDTH 680 0
DWIDTH 17 0
BBX 16 22 1 0
BITMAP
0780
0FE0
1CE0
1860
0000
FFE0
FFF8
3C3C
3C3C
3C3C
3C3C
3C3C
3C78
3FF0
3FE0
3DF0
3CF0
3C78
3C7C
3C3C
FE3F
FE1F
ENDCHAR
STARTCHAR 0213
ENCODING 531
SWIDTH 440 0
DWIDTH 11 0
BBX 10 18 1 0
BITMAP
0E00
3F80
7FC0
60C0
40C0
0000
0800
FBC0
FFC0
3CC0
38C0
3800
3800
3800
3800
3C00
FE00
FF00
ENDCHAR
STARTCHAR 0214
ENCODING 532
SWIDTH 680 0
DWIDTH 17 0
BBX 15 21 1 1
BITMAP
0EE0
0660
0730
0000
FE3E
FE3E
780C
780C
780C
780C
780C
780C
780C
780C
780C
780C
3808
3C08
3C18
1FF0
0FE0
ENDCHAR
STARTCHAR 0215
ENCODING 533
SWIDTH 600 0
DWIDTH 15 0
BBX 15 18 0 0
BITMAP
39C0
1CC0
0CE0
0E60
0620
0000
0808
FCF8
FCF8
3C78
3C38
3C38
3C38
3C38
3C38
3C3C
3FFE
1F3C
ENDCHAR
STARTCHAR 0216
ENCODING 534
SWIDTH 680 0
DWIDTH 17 0
BBX 15 22 1 0
BITMAP
03E0
07F0
0678
0C18
0000
FE3E
FE3E
780C
780C
780C
780C
780C
780C
780C
780C
780C
780C
3808
3C08
3C18
1FF0
0FE0
ENDCHAR
STARTCHAR 0217
ENCODING 535
SWIDTH 600 0
DWIDTH 15 0
BBX 15 18 0 0
BITMAP
0380
0FE0
1FF0
1830
1030
0000
0808
FCF8
FCF8
3C78
3C38
3C38
3C38
3C38
3C38
3C3C
3FFE
1F3C
ENDCHAR
STARTCHAR 0218
ENCODING 536
SWIDTH 520 0
DWIDTH 13 0
BBX 12 24 1 -7
BITMAP
1FC0
3FE0
70E0
70E0
7060
7800
7E00
7F80
3FC0
0FE0
03F0
01F0
E0F0
E070
E0F0
FBE0
3F80
0000
0300
0F00
0F00
0700
0600
0E00
ENDCHAR
STARTCHAR 0219
ENCODING 537
SWIDTH 440 0
DWIDTH 11 0
BBX 10 19 1 -7
BITMAP
1E00
7F80
E380
E180
F800
7E00
3F80
0F80
C3C0
C3C0
F780
FF00
0000
0C00
1E00
1E00
0C00
0C00
1800
ENDCHAR
STARTCHAR 021A
ENCODING 538
SWIDTH 640 0
DWIDTH 16 0
BBX 15 24 1 -7
BITMAP
FFFC
FFFC
C78C
C786
C784
0780
0780
0780
0780
0780
0780
0780
0780
0780
0780
1FE0
1FE0
0000
0180
0780
0780
0380
0300
0600
ENDCHAR
STARTCHAR 021B
ENCODING 539
SWIDTH 360 0
DWIDTH 9 0
BBX 9 22 0 -6
BITMAP
1C00
3C00
3C00
3C00
FF80
7F00
3C00
3C00
3C00
3C00
3C00
3C00
3C00
3F80
1F80
0000
0600
1E00
1E00
0600
0E00
0C00
ENDCHAR
STARTCHAR 021C
ENCODING 540
SWIDTH 560 0
DWIDTH 14 0
BBX 12 21 1 -4
BITMAP
7F80
F3E0
E1E0
E0F0
C0F0
00E0
01E0
01C0
0780
1F80
1FE0
01F0
00F0
00F0
00F0
00F0
00F0
00F0
01E0
EFC0
7F00
ENDCHAR
STARTCHAR 021D
ENCODING 541
SWIDTH 480 0
DWIDTH 12 0
BBX 11 18 1 -6
BITMAP
0E00
FF80
E3C0
E1C0
C1C0
01C0
0380
0700
3E00
3FC0
03C0
01E0
01E0
01E0
01C0
03C0
EF80
7F00
ENDCHAR
STARTCHAR 021E
ENCODING 542
SWIDTH 760 0
DWIDTH 19 0
BBX 17 22 1 0
BITMAP
0E1800
07F000
03E000
018000
000000
FE3F80
FE3F80
3C0F00
3C0F00
3C0F00
3C0F00
3C0F00
3C0F00
3FFF00
3C0F00
3C0F00
3C0F00
3C0F00
3C0F00
3C0F00
FE3F80
FE3F80
ENDCHAR
STARTCHAR 021F
ENCODING 543
SWIDTH 640 0
DWIDTH 16 0
BBX 14 22 1 0
BITMAP
38E0
1FC0
0F00
0600
1800
F800
F800
7800
3800
3800
3880
3BF0
3FF8
3878
3878
3878
3878
3878
3878
7878
FCFC
FEFC
ENDCHAR
STARTCHAR 0228
ENCODING 552
SWIDTH 600 0
DWIDTH 15 0
BBX 14 23 1 -6
BITMAP
FFF8
FFF8
3C38
3C18
3C10
3C00
3C40
3CC0
3FC0
3DC0
3C40
3C00
3C08
3C0C
3C1C
FFF8
FFF8
0200
0700
0780
0180
0180
0700
ENDCHAR
STARTCHAR 0229
ENCODING 553
SWIDTH 480 0
DWIDTH 12 0
BBX 11 18 1 -6
BITMAP
0600
3F80
71C0
F1E0
F1E0
FFE0
FFE0
F000
F000
7800
7FE0
1F80
0400
0E00
0F00
0300
0300
0E00
ENDCHAR
STARTCHAR 022A
ENCODING 554
SWIDTH 720 0
DWIDTH 18 0
BBX 17 25 1 0
BITMAP
0FF800
0FF800
000000
041000
0E7800
0E7800
0E3000
000000
07F000
1FFC00
381E00
781E00
700F00
F00F00
F00780
F00780
F00780
F00780
F00780
F00700
780F00
780E00
3C1E00
1F3C00
07F000
ENDCHAR
STARTCHAR 022B
ENCODING 555
SWIDTH 560 0
DWIDTH 14 0
BBX 12 19 1 0
BITMAP
7FE0
0000
0000
39C0
79E0
39E0
0000
0600
3FC0
71E0
F0F0
F0F0
F070
F070
F070
F070
70F0
7DE0
1F80
ENDCHAR
STARTCHAR 022C
ENCODING 556
SWIDTH 720 0
DWIDTH 18 0
BBX 17 25 1 0
BITMAP
0FF800
0F8000
000000
030000
0FF800
0DF000
000000
000000
07F000
1FFC00
381E00
781E00
700F00
F00F00
F00780
F00780
F00780
F00780
F00780
F00700
780F00
780E00
3C1E00
1F3C00
07F000
ENDCHAR
STARTCHAR 022D
ENCODING 557
SWIDTH 560 0
DWIDTH 14 0
BBX 12 20 1 0
BITMAP
3FE0
7FE0
0000
0000
3E60
7FC0
0380
0000
0600
3FC0
71E0
F0F0
F0F0
F070
F070
F070
F070
70F0
7DE0
1F80
ENDCHAR
STARTCHAR 0230
ENCODING 560
SWIDTH 720 0
DWIDTH 18 0
BBX 17 24 1 0
BITMAP
0FF800
000000
000000
03C000
03C000
01C000
000000
07F000
1FFC00
381E00
781E00
700F00
F00F00
F00780
F00780
F00780
F00780
F00780
F00700
780F00
780E00
3C1E00
1F3C00
07F000
ENDCHAR
STARTCHAR 0231
ENCODING 561
SWIDTH 560 0
DWIDTH 14 0
BBX 12 19 1 0
BITMAP
7FE0
7FE0
0000
0F00
0F00
0F00
0000
0600
3FC0
71E0
F0F0
F0F0
F070
F070
F070
F070
70F0
7DE0
1F80
ENDCHAR
STARTCHAR 0232
ENCODING 562
SWIDTH 600 0
DWIDTH 15 0
BBX 15 20 0 0
BITMAP
0FFC
0000
0000
FF1E
7F1E
3E0C
1E08
1E18
0F10
0F30
07A0
07E0
03C0
03C0
03C0
03C0
03C0
03C0
0FF0
0FF0
ENDCHAR
STARTCHAR 0233
ENCODING 563
SWIDTH 560 0
DWIDTH 14 0
BBX 14 22 0 -6
BITMAP
1FF8
1FF0
0000
0000
C244
FE7C
7C38
3C30
1E30
1E60
0E60
0F40
0FC0
0780
0780
0380
0300
0300
0600
7E00
7C00
7800
ENDCHAR
STARTCHAR 0237
ENCODING 567
SWIDTH 280 0
DWIDTH 7 0
BBX 5 18 1 -6
BITMAP
08
F8
F8
38
38
38
38
38
38
38
38
38
38
78
70
E0
E0
80
ENDCHAR
STARTCHAR 0258
ENCODING 600
SWIDTH 480 0
DWIDTH 12 0
BBX 11 12 1 0
BITMAP
0C00
7F80
73C0
E1C0
E1E0
FFE0
FFE0
01E0
01C0
C1C0
F780
7F00
ENDCHAR
STARTCHAR 0259
ENCODING 601
SWIDTH 480 0
DWIDTH 12 0
BBX 11 12 1 0
BITMAP
0C00
7F80
C7C0
03C0
01E0
01E0
FFE0
E1E0
E1E0
F1C0
7B80
3F00
ENDCHAR
STARTCHAR 0272
ENCODING 626
SWIDTH 640 0
DWIDTH 16 0
BBX 15 18 1 -6
BITMAP
0880
FBF0
FFF8
7C78
3C78
3838
3838
3838
3838
3878
38FC
38FE
3800
7800
7000
F000
E000
8000
ENDCHAR
STARTCHAR 0292
ENCODING 658
SWIDTH 480 0
DWIDTH 12 0
BBX 11 18 1 -6
BITMAP
60C0
7FE0
E3C0
E3C0
0780
0F00
0F00
1E00
3F80
1FC0
01E0
01E0
01E0
01E0
C1E0
E1C0
F780
7F00
ENDCHAR
STARTCHAR 02B9
ENCODING 697
SWIDTH 280 0
DWIDTH 7 0
BBX 4 7 2 11
BITMAP
30
70
60
E0
C0
C0
80
ENDCHAR
STARTCHAR 02BA
ENCODING 698
SWIDTH 440 0
DWIDTH 11 0
BBX 8 7 2 11
BITMAP
31
73
67
E6
C6
CC
8C
ENDCHAR
STARTCHAR 02BB
ENCODING 699
SWIDTH 280 0
DWIDTH 7 0
BBX 4 7 2 11
BITMAP
60
C0
C0
C0
F0
E0
C0
ENDCHAR
STARTCHAR 02BC
ENCODING 700
SWIDTH 280 0
DWIDTH 7 0
BBX 4 8 2 10
BITMAP
60
F0
F0
70
60
60
C0
80
ENDCHAR
STARTCHAR 02BE
ENCODING 702
SWIDTH 240 0
DWIDTH 6 0
BBX 4 7 1 11
BITMAP
E0
F0
30
30
30
F0
E0
ENDCHAR
STARTCHAR 02BF
ENCODING 703
SWIDTH 240 0
DWIDTH 6 0
BBX 4 7 1 11
BITMAP
30
70
E0
E0
E0
70
30
ENDCHAR
STARTCHAR 02C6
ENCODING 710
SWIDTH 280 0
DWIDTH 7 0
BBX 9 5 -1 13
BITMAP
0C00
1E00
3F00
6380
C180
ENDCHAR
STARTCHAR 02C7
ENCODING 711
SWIDTH 280 0
DWIDTH 7 0
BBX 9 5 -1 13
BITMAP
4080
E380
7F00
3E00
1C00
ENDCHAR
STARTCHAR 02C8
ENCODING 712
SWIDTH 200 0
DWIDTH 5 0
BBX 2 7 2 11
BITMAP
40
C0
C0
C0
C0
C0
C0
ENDCHAR
STARTCHAR 02C9
ENCODING 713
SWIDTH 480 0
DWIDTH 12 0
BBX 10 2 1 14
BITMAP
7FC0
FFC0
ENDCHAR
STARTCHAR 02CA
ENCODING 714
SWIDTH 280 0
DWIDTH 7 0
BBX 4 5 4 13
BITMAP
70
70
60
C0
C0
ENDCHAR
STARTCHAR 02CB
ENCODING 715
SWIDTH 280 0
DWIDTH 7 0
BBX 5 5 4 13
BITMAP
E0
60
70
30
18
ENDCHAR
STARTCHAR 02CC
ENCODING 716
SWIDTH 200 0
DWIDTH 5 0
BBX 2 7 2 -4
BITMAP
40
C0
C0
C0
C0
C0
C0
ENDCHAR
STARTCHAR 02D8
ENCODING 728
SWIDTH 280 0
DWIDTH 7 0
BBX 9 5 -1 13
BITMAP
C080
C180
F380
7F80
3E00
ENDCHAR
STARTCHAR 02D9
ENCODING 729
SWIDTH 280 0
DWIDTH 7 0
BBX 4 4 2 13
BITMAP
40
F0
F0
E0
ENDCHAR
STARTCHAR 02DA
ENCODING 730
SWIDTH 280 0
DWIDTH 7 0
BBX 6 5 1 13
BITMAP
78
DC
CC
D8
78
ENDCHAR
STARTCHAR 02DB
ENCODING 731
SWIDTH 280 0
DWIDTH 7 0
BBX 6 7 1 -6
BITMAP
38
60
E0
E0
F0
FC
F8
ENDCHAR
STARTCHAR 02DC
ENCODING 732
SWIDTH 280 0
DWIDTH 7 0
BBX 9 3 -1 14
BITMAP
3880
FF80
CF00
ENDCHAR
STARTCHAR 02DD
ENCODING 733
SWIDTH 280 0
DWIDTH 7 0
BBX 9 5 -1 13
BITMAP
3B80
7300
6700
C600
C400
ENDCHAR
STARTCHAR 0300
ENCODING 768
SWIDTH 0 0
DWIDTH 0 0
BBX 4 5 2 13
BITMAP
E0
E0
60
30
30
ENDCHAR
STARTCHAR 0301
ENCODING 769
SWIDTH 0 0
DWIDTH 0 0
BBX 5 5 1 13
BITMAP
38
70
60
60
C0
ENDCHAR
STARTCHAR 0302
ENCODING 770
SWIDTH 0 0
DWIDTH 0 0
BBX 8 5 2 13
BITMAP
18
3C
7E
E7
83
ENDCHAR
STARTCHAR 0303
ENCODING 771
SWIDTH 0 0
DWIDTH 0 0
BBX 9 3 1 14
BITMAP
3880
7F80
CF80
ENDCHAR
STARTCHAR 0304
ENCODING 772
SWIDTH 0 0
DWIDTH 0 0
BBX 10 2 1 14
BITMAP
FFC0
FF80
ENDCHAR
STARTCHAR 0306
ENCODING 774
SWIDTH 0 0
DWIDTH 0 0
BBX 10 5 1 13
BITMAP
40C0
E0C0
7B80
7F80
1E00
ENDCHAR
STARTCHAR 0307
ENCODING 775
SWIDTH 0 0
DWIDTH 0 0
BBX 4 4 1 13
BITMAP
20
F0
F0
70
ENDCHAR
STARTCHAR 0308
ENCODING 776
SWIDTH 0 0
DWIDTH 0 0
BBX 10 3 1 13
BITMAP
F3C0
F3C0
7380
ENDCHAR
STARTCHAR 0309
ENCODING 777
SWIDTH 0 0
DWIDTH 0 0
BBX 6 5 1 13
BITMAP
30
FC
CC
38
30
ENDCHAR
STARTCHAR 030A
ENCODING 778
SWIDTH 0 0
DWIDTH 0 0
BBX 6 5 1 13
BITMAP
78
EC
CC
EC
78
ENDCHAR
STARTCHAR 030B
ENCODING 779
SWIDTH 0 0
DWIDTH 0 0
BBX 9 5 1 13
BITMAP
3B80
7380
6300
6600
C600
ENDCHAR
STARTCHAR 030C
ENCODING 780
SWIDTH 0 0
DWIDTH 0 0
BBX 9 5 1 13
BITMAP
4080
E380
7F00
3E00
1C00
ENDCHAR
STARTCHAR 030F
ENCODING 783
SWIDTH 0 0
DWIDTH 0 0
BBX 9 5 1 13
BITMAP
F700
7300
3380
1980
1880
ENDCHAR
STARTCHAR 0311
ENCODING 785
SWIDTH 0 0
DWIDTH 0 0
BBX 10 5 1 13
BITMAP
1E00
7F80
7F80
C1C0
C0C0
ENDCHAR
STARTCHAR 0312
ENCODING 786
SWIDTH 0 0
DWIDTH 0 0
BBX 4 5 1 13
BITMAP
30
60
E0
F0
F0
ENDCHAR
STARTCHAR 0313
ENCODING 787
SWIDTH 0 0
DWIDTH 0 0
BBX 4 5 1 13
BITMAP
70
F0
F0
30
60
ENDCHAR
STARTCHAR 031B
ENCODING 795
SWIDTH 0 0
DWIDTH 0 0
BBX 5 4 -2 10
BITMAP
18
18
38
F0
ENDCHAR
STARTCHAR 0323
ENCODING 803
SWIDTH 0 0
DWIDTH 0 0
BBX 4 4 1 -6
BITMAP
70
F0
F0
20
ENDCHAR
STARTCHAR 0324
ENCODING 804
SWIDTH 0 0
DWIDTH 0 0
BBX 10 3 1 -6
BITMAP
7380
F3C0
F3C0
ENDCHAR
STARTCHAR 0325
ENCODING 805
SWIDTH 0 0
DWIDTH 0 0
BBX 6 5 1 -6
BITMAP
38
7C
CC
EC
78
ENDCHAR
STARTCHAR 0326
ENCODING 806
SWIDTH 0 0
DWIDTH 0 0
BBX 4 6 1 -7
BITMAP
30
F0
F0
30
70
60
ENDCHAR
STARTCHAR 0327
ENCODING 807
SWIDTH 0 0
DWIDTH 0 0
BBX 4 6 1 -6
BITMAP
60
E0
70
30
30
E0
ENDCHAR
STARTCHAR 0328
ENCODING 808
SWIDTH 0 0
DWIDTH 0 0
BBX 6 7 1 -6
BITMAP
1C
30
60
E0
F0
FC
78
ENDCHAR
STARTCHAR 032E
ENCODING 814
SWIDTH 0 0
DWIDTH 0 0
BBX 9 4 1 -5
BITMAP
C180
E300
7F00
3E00
ENDCHAR
STARTCHAR 0331
ENCODING 817
SWIDTH 0 0
DWIDTH 0 0
BBX 9 1 1 -4
BITMAP
FF80
ENDCHAR
STARTCHAR 0335
ENCODING 821
SWIDTH 0 0
DWIDTH 0 0
BBX 8 1 1 8
BITMAP
FF
ENDCHAR
STARTCHAR 0336
ENCODING 822
SWIDTH 0 0
DWIDTH 0 0
BBX 16 2 1 5
BITMAP
FFFF
C000
ENDCHAR
STARTCHAR 0337
ENCODING 823
SWIDTH 0 0
DWIDTH 0 0
BBX 10 7 2 5
BITMAP
0040
01C0
0780
1E00
7C00
F000
C000
ENDCHAR
STARTCHAR 0338
ENCODING 824
SWIDTH 0 0
DWIDTH 0 0
BBX 10 7 2 5
BITMAP
0040
01C0
0780
1E00
7C00
F000
C000
ENDCHAR
STARTCHAR 0374
ENCODING 884
SWIDTH 280 0
DWIDTH 7 0
BBX 4 7 2 11
BITMAP
30
70
60
E0
C0
C0
80
ENDCHAR
STARTCHAR 0375
ENCODING 885
SWIDTH 280 0
DWIDTH 7 0
BBX 4 6 2 -5
BITMAP
30
60
60
E0
C0
C0
ENDCHAR
STARTCHAR 037E
ENCODING 894
SWIDTH 280 0
DWIDTH 7 0
BBX 4 17 2 -5
BITMAP
60
F0
F0
E0
00
00
00
00
00
F0
F0
F0
70
60
60
C0
80
ENDCHAR
STARTCHAR 0384
ENCODING 900
SWIDTH 280 0
DWIDTH 7 0
BBX 3 5 2 13
BITMAP
E0
E0
C0
C0
C0
ENDCHAR
STARTCHAR 0385
ENCODING 901
SWIDTH 280 0
DWIDTH 7 0
BBX 10 5 -1 13
BITMAP
0C00
0C00
EDC0
EFC0
C980
ENDCHAR
STARTCHAR 0386
ENCODING 902
SWIDTH 680 0
DWIDTH 17 0
BBX 17 17 0 0
BITMAP
78C000
71C000
71C000
73E000
63E000
02F000
06F000
047800
0C7800
0C3C00
083C00
1FFE00
181E00
301E00
300F00
781F80
F83F80
ENDCHAR
STARTCHAR 0387
ENCODING 903
SWIDTH 280 0
DWIDTH 7 0
BBX 5 4 1 8
BITMAP
20
70
F8
70
ENDCHAR
STARTCHAR 0388
ENCODING 904
SWIDTH 600 0
DWIDTH 15 0
BBX 18 17 -3 0
BITMAP
EFFF80
EFFF80
C3C380
C3C180
C3C100
03C000
03C400
03CC00
03FC00
03DC00
03C400
03C000
03C080
03C0C0
03C1C0
0FFF80
0FFF80
ENDCHAR
STARTCHAR 0389
ENCODING 905
SWIDTH 760 0
DWIDTH 19 0
BBX 21 17 -3 0
BITMAP
EFE3F8
CFE3F8
C3C0F0
C3C0F0
C3C0F0
03C0F0
03C0F0
03C0F0
03FFF0
03C0F0
03C0F0
03C0F0
03C0F0
03C0F0
03C0F0
0FE3F8
0FE3F8
ENDCHAR
STARTCHAR 038A
ENCODING 906
SWIDTH 360 0
DWIDTH 9 0
BBX 11 17 -3 0
BITMAP
EFE0
CFE0
C3C0
C3C0
C3C0
03C0
03C0
03C0
03C0
03C0
03C0
03C0
03C0
03C0
03C0
0FE0
0FE0
ENDCHAR
STARTCHAR 038C
ENCODING 908
SWIDTH 720 0
DWIDTH 18 0
BBX 20 17 -2 0
BITMAP
E0FE00
E3FF80
C703C0
CF03C0
CE01E0
1E01E0
1E00F0
1E00F0
1E00F0
1E00F0
1E00F0
1E00E0
0F01E0
0F01C0
0783C0
03E780
00FE00
ENDCHAR
STARTCHAR 038E
ENCODING 910
SWIDTH 600 0
DWIDTH 15 0
BBX 19 17 -4 0
BITMAP
EFF1E0
E7F1E0
E3E0C0
C1E080
C1E180
00F100
00F300
007A00
007E00
003C00
003C00
003C00
003C00
003C00
003C00
00FF00
00FF00
ENDCHAR
STARTCHAR 038F
ENCODING 911
SWIDTH 840 0
DWIDTH 21 0
BBX 21 17 -1 0
BITMAP
E0FE00
E3EF80
E783C0
CF01E0
CF00E0
1E00F0
1E00F0
1E00F0
1E00F0
1E00F0
0E00E0
0701C0
1301D0
318318
3FC7F8
3FC7F8
3FC7F8
ENDCHAR
STARTCHAR 0390
ENCODING 912
SWIDTH 320 0
DWIDTH 8 0
BBX 10 18 0 0
BITMAP
0C00
0C00
EDC0
EDC0
C980
0000
0400
7C00
7C00
1C00
1C00
1C00
1C00
1C00
1C00
1C00
1F00
1F00
ENDCHAR
STARTCHAR 0391
ENCODING 913
SWIDTH 680 0
DWIDTH 17 0
BBX 17 17 0 0
BITMAP
00C000
01C000
01C000
03E000
03E000
02F000
06F000
047800
0C7800
0C3C00
083C00
1FFE00
181E00
301E00
300F00
781F80
F83F80
ENDCHAR
STARTCHAR 0392
ENCODING 914
SWIDTH 640 0
DWIDTH 16 0
BBX 15 17 1 0
BITMAP
FFE0
FFF8
3C78
3C3C
3C3C
3C38
3C78
3FE0
3FF8
3C7C
3C3C
3C3E
3C1E
3C3E
3C3C
FFF8
FFE0
ENDCHAR
STARTCHAR 0393
ENCODING 915
SWIDTH 560 0
DWIDTH 14 0
BBX 13 17 1 0
BITMAP
FFF0
FFF8
3C38
3C18
3C10
3C00
3C00
3C00
3C00
3C00
3C00
3C00
3C00
3C00
3C00
FF00
FF00
ENDCHAR
STARTCHAR 0394
ENCODING 916
SWIDTH 640 0
DWIDTH 16 0
BBX 16 17 0 0
BITMAP
0180
01C0
03C0
03E0
03E0
07F0
04F0
0CF8
0878
1878
103C
303C
201E
601E
600F
FFFF
7FFF
ENDCHAR
STARTCHAR 0395
ENCODING 917
SWIDTH 600 0
DWIDTH 15 0
BBX 14 17 1 0
BITMAP
FFF8
FFF8
3C38
3C18
3C10
3C00
3C40
3CC0
3FC0
3DC0
3C40
3C00
3C08
3C0C
3C1C
FFF8
FFF8
ENDCHAR
STARTCHAR 0396
ENCODING 918
SWIDTH 600 0
DWIDTH 15 0
BBX 13 17 1 0
BITMAP
7FF0
7FF8
70F0
61F0
61E0
03C0
07C0
0780
0F80
0F00
1F00
1E00
3C10
7C18
7838
F9F8
FFF0
ENDCHAR
STARTCHAR 0397
ENCODING 919
SWIDTH 760 0
DWIDTH 19 0
BBX 17 17 1 0
BITMAP
FE3F80
FE3F80
3C0F00
3C0F00
3C0F00
3C0F00
3C0F00
3C0F00
3FFF00
3C0F00
3C0F00
3C0F00
3C0F00
3C0F00
3C0F00
FE3F80
FE3F80
ENDCHAR
STARTCHAR 0398
ENCODING 920
SWIDTH 720 0
DWIDTH 18 0
BBX 17 17 1 0
BITMAP
07F000
1FFC00
381E00
781E00
700F00
F00F00
F00780
F00780
F7F780
F00780
F00780
F00700
780F00
780E00
3C1E00
1F3C00
07F000
ENDCHAR
STARTCHAR 0399
ENCODING 921
SWIDTH 360 0
DWIDTH 9 0
BBX 7 17 1 0
BITMAP
FE
FE
3C
3C
3C
3C
3C
3C
3C
3C
3C
3C
3C
3C
3C
FE
FE
ENDCHAR
STARTCHAR 039A
ENCODING 922
SWIDTH 720 0
DWIDTH 18 0
BBX 17 17 1 0
BITMAP
FE3F00
FE3F00
3C1800
3C3000
3C6000
3CC000
3D8000
3F8000
3FC000
3FE000
3DE000
3CF000
3CF800
3C7C00
3C3C00
FE3F80
FE1F80
ENDCHAR
STARTCHAR 039B
ENCODING 923
SWIDTH 640 0
DWIDTH 16 0
BBX 16 17 0 0
BITMAP
0180
01C0
01C0
03C0
03E0
07E0
04F0
04F0
0CF8
0878
1878
183C
103C
303E
301E
783F
F87F
ENDCHAR
STARTCHAR 039C
ENCODING 924
SWIDTH 960 0
DWIDTH 24 0
BBX 23 17 1 0
BITMAP
7C00FC
7E00F8
3E01F0
1F01F0
3F03F0
3F83F0
3782F0
3786F0
33C6F0
33C4F0
31EC70
21E878
21F878
20F878
60F078
F871FC
F861FE
ENDCHAR
STARTCHAR 039D
ENCODING 925
SWIDTH 720 0
DWIDTH 18 0
BBX 16 17 1 0
BITMAP
F81F
FC1F
3E06
3E06
3F06
3F86
37C6
33C6
33E6
31F6
30FE
307E
307E
303E
301E
F80E
F80E
ENDCHAR
STARTCHAR 039E
ENCODING 926
SWIDTH 600 0
DWIDTH 15 0
BBX 14 17 1 0
BITMAP
FFF8
FFF8
FFF8
C018
4000
0000
3060
3FE0
3FE0
3FE0
3060
0000
C008
C01C
FFF8
FFF8
FFF8
ENDCHAR
STARTCHAR 039F
ENCODING 927
SWIDTH 720 0
DWIDTH 18 0
BBX 17 17 1 0
BITMAP
07F000
1FFC00
381E00
781E00
700F00
F00F00
F00780
F00780
F00780
F00780
F00780
F00700
780F00
780E00
3C1E00
1F3C00
07F000
ENDCHAR
STARTCHAR 03A0
ENCODING 928
SWIDTH 760 0
DWIDTH 19 0
BBX 17 17 1 0
BITMAP
FFFF80
FFFF80
3C0E00
3C0E00
3C0E00
3C0E00
3C0E00
3C0E00
3C0E00
3C0E00
3C0E00
3C0E00
3C0E00
3C0E00
3C1E00
FE3F80
FE3F80
ENDCHAR
STARTCHAR 03A1
ENCODING 929
SWIDTH 600 0
DWIDTH 15 0
BBX 14 17 1 0
BITMAP
FFE0
FFF8
3C7C
3C3C
3C3C
3C3C
3C3C
3C3C
3C38
3EF0
3FE0
3C00
3C00
3C00
3C00
FF00
FF00
ENDCHAR
STARTCHAR 03A3
ENCODING 931
SWIDTH 600 0
DWIDTH 15 0
BBX 14 17 1 0
BITMAP
7FF0
FFF0
7830
3C38
1E18
1F00
0F80
0780
07C0
0780
0F00
1F00
3E08
3C1C
7818
F8F8
FFF8
ENDCHAR
STARTCHAR 03A4
ENCODING 932
SWIDTH 640 0
DWIDTH 16 0
BBX 15 17 1 0
BITMAP
FFFC
FFFC
C78C
C786
C784
0780
0780
0780
0780
0780
0780
0780
0780
0780
0780
1FE0
1FE0
ENDCHAR
STARTCHAR 03A5
ENCODING 933
SWIDTH 600 0
DWIDTH 15 0
BBX 15 17 0 0
BITMAP
FF1E
7F1E
3E0C
1E08
1E18
0F10
0F30
07A0
07E0
03C0
03C0
03C0
03C0
03C0
03C0
0FF0
0FF0
ENDCHAR
STARTCHAR 03A6
ENCODING 934
SWIDTH 760 0
DWIDTH 19 0
BBX 17 17 1 0
BITMAP
07F000
07F000
01C000
1FFC00
3FFF00
79CF80
F1C780
F1C780
F1C380
F1C380
F1C780
79C700
7DDF00
1FFC00
01C000
07F000
07F000
ENDCHAR
STARTCHAR 03A7
ENCODING 935
SWIDTH 680 0
DWIDTH 17 0
BBX 16 17 1 0
BITMAP
FF3E
FE3E
3E1C
3E18
1F30
0F20
0FE0
07C0
03C0
03E0
07E0
0CF0
18F8
1878
307C
F8FE
FCFF
ENDCHAR
STARTCHAR 03A8
ENCODING 936
SWIDTH 800 0
DWIDTH 20 0
BBX 20 17 0 0
BITMAP
79FCF0
F9FDE0
38F1E0
38F1E0
38F1E0
38F1C0
3CF1C0
3CF1C0
3CF3C0
1FF780
07FF00
00F000
00F000
00F000
00F000
01FC00
03FE00
ENDCHAR
STARTCHAR 03A9
ENCODING 937
SWIDTH 840 0
DWIDTH 21 0
BBX 19 17 1 0
BITMAP
03F800
0FBE00
1E0F00
3C0780
3C0380
7803C0
7803C0
7803C0
7803C0
7803C0
380380
1C0700
4C0740
C60C60
FF1FE0
FF1FE0
FF1FE0
ENDCHAR
STARTCHAR 03AA
ENCODING 938
SWIDTH 360 0
DWIDTH 9 0
BBX 9 22 0 0
BITMAP
6100
F380
F380
6380
0000
7F00
7F00
1E00
1E00
1E00
1E00
1E00
1E00
1E00
1E00
1E00
1E00
1E00
1E00
1E00
7F00
7F00
ENDCHAR
STARTCHAR 03AB
ENCODING 939
SWIDTH 600 0
DWIDTH 15 0
BBX 15 22 0 0
BITMAP
0610
0F3C
0F3C
0618
0000
FF1E
7F1E
3E0C
1E08
1E18
0F10
0F30
07A0
07E0
03C0
03C0
03C0
03C0
03C0
03C0
0FF0
0FF0
ENDCHAR
STARTCHAR 03AC
ENCODING 940
SWIDTH 640 0
DWIDTH 16 0
BBX 15 18 1 0
BITMAP
0700
0700
0700
0600
0600
0000
0638
3F3C
71B8
70F8
F0F0
F070
F0F0
F0E0
F0E0
F1F0
7BBE
3F1E
ENDCHAR
STARTCHAR 03AD
ENCODING 941
SWIDTH 440 0
DWIDTH 11 0
BBX 9 18 1 0
BITMAP
0E00
0E00
0C00
0C00
0C00
0000
0E00
7F80
7180
F180
7000
3E00
7E00
F000
E000
F180
F180
3F80
ENDCHAR
STARTCHAR 03AE
ENCODING 942
SWIDTH 600 0
DWIDTH 15 0
BBX 13 24 1 -6
BITMAP
0380
0380
0300
0300
0300
0000
08C0
FBF0
FFF0
3C78
3C78
3878
3878
3878
3878
3878
3878
3878
0078
0078
0078
0078
0078
0060
ENDCHAR
STARTCHAR 03AF
ENCODING 943
SWIDTH 320 0
DWIDTH 8 0
BBX 7 18 1 0
BITMAP
1C
18
18
18
10
00
08
F8
F8
38
38
38
38
38
38
38
3E
3E
ENDCHAR
STARTCHAR 03B0
ENCODING 944
SWIDTH 520 0
DWIDTH 13 0
BBX 12 18 0 0
BITMAP
0380
0300
3B70
3AF0
3660
0000
0800
F8F0
F8F0
3830
3830
3830
3830
3830
3C30
3C60
1FE0
0F80
ENDCHAR
STARTCHAR 03B1
ENCODING 945
SWIDTH 640 0
DWIDTH 16 0
BBX 15 12 1 0
BITMAP
0638
3F3C
71B8
70F8
F0F0
F070
F0F0
F0E0
F0E0
F1F0
7BBE
3F1E
ENDCHAR
STARTCHAR 03B2
ENCODING 946
SWIDTH 560 0
DWIDTH 14 0
BBX 13 24 1 -6
BITMAP
0F80
3FE0
70F0
70F0
70F0
F0F0
F0E0
F1E0
F780
F7E0
F0F0
F070
F078
F078
F070
F0F0
F9E0
FFC0
F000
F000
F000
F000
F000
C000
ENDCHAR
STARTCHAR 03B3
ENCODING 947
SWIDTH 520 0
DWIDTH 13 0
BBX 13 18 0 -6
BITMAP
7040
FC78
3C30
1E30
1E60
0E60
0F40
07C0
0780
0380
0380
0380
07C0
05C0
0DC0
0CC0
0DC0
0780
ENDCHAR
STARTCHAR 03B4
ENCODING 948
SWIDTH 520 0
DWIDTH 13 0
BBX 12 18 1 0
BITMAP
0F80
1FC0
3FC0
3000
3000
3C00
3E00
1F80
1FC0
7FE0
71F0
F0F0
F0F0
F0F0
F0F0
F0E0
7FE0
3F80
ENDCHAR
STARTCHAR 03B5
ENCODING 949
SWIDTH 440 0
DWIDTH 11 0
BBX 9 12 1 0
BITMAP
0E00
7F80
7180
F180
7000
3E00
7E00
F000
E000
F180
F180
3F80
ENDCHAR
STARTCHAR 03B6
ENCODING 950
SWIDTH 440 0
DWIDTH 11 0
BBX 10 24 1 -6
BITMAP
FFC0
FFC0
FFC0
F1C0
C300
0600
1C00
3C00
3800
7000
F000
F000
F000
F000
F800
FF00
7F80
1FC0
03C0
01C0
03C0
0380
0700
0E00
ENDCHAR
STARTCHAR 03B7
ENCODING 951
SWIDTH 600 0
DWIDTH 15 0
BBX 13 18 1 -6
BITMAP
08C0
FBF0
FFF0
3C78
3C78
3878
3878
3878
3878
3878
3878
3878
0078
0078
0078
0078
0078
0060
ENDCHAR
STARTCHAR 03B8
ENCODING 952
SWIDTH 560 0
DWIDTH 14 0
BBX 12 18 1 0
BITMAP
0F80
3FC0
79E0
70F0
F0F0
F0F0
F070
F070
FFF0
FFF0
F070
F070
F070
F0F0
70F0
78E0
3DC0
1F80
ENDCHAR
STARTCHAR 03B9
ENCODING 953
SWIDTH 320 0
DWIDTH 8 0
BBX 7 12 1 0
BITMAP
08
F8
F8
38
38
38
38
38
38
38
3E
3E
ENDCHAR
STARTCHAR 03BA
ENCODING 954
SWIDTH 600 0
DWIDTH 15 0
BBX 14 12 1 0
BITMAP
0800
F9F8
F8E0
39C0
3B80
3F80
3FC0
3BC0
39E0
38F0
38FC
387C
ENDCHAR
STARTCHAR 03BB
ENCODING 955
SWIDTH 560 0
DWIDTH 14 0
BBX 14 18 0 0
BITMAP
3C00
7E00
0F00
0F00
0700
0780
0780
0780
0FC0
0FC0
1FC0
19C0
19E0
39E0
38E0
78F0
78FC
F07C
ENDCHAR
STARTCHAR 03BC
ENCODING 956
SWIDTH 600 0
DWIDTH 15 0
BBX 14 18 1 -6
BITMAP
0810
F9F8
F9F8
7878
7878
7878
7878
7878
7878
78F8
7FFC
7F38
7000
7000
7800
7800
7800
6000
ENDCHAR
STARTCHAR 03BD
ENCODING 957
SWIDTH 480 0
DWIDTH 12 0
BBX 12 12 0 0
BITMAP
0010
F8F0
FCF0
3C30
3C30
1E20
1E60
0E40
0FC0
0F80
0700
0700
ENDCHAR
STARTCHAR 03BE
ENCODING 958
SWIDTH 440 0
DWIDTH 11 0
BBX 10 24 1 -6
BITMAP
FFC0
FFC0
FFC0
C780
1E00
3800
7800
7800
7800
7C00
0F00
3F00
7000
F000
F000
FC00
7F80
3FC0
07C0
01C0
03C0
0380
0700
0E00
ENDCHAR
STARTCHAR 03BF
ENCODING 959
SWIDTH 560 0
DWIDTH 14 0
BBX 12 12 1 0
BITMAP
0600
3FC0
71E0
F0F0
F0F0
F070
F070
F070
F070
70F0
7DE0
1F80
ENDCHAR
STARTCHAR 03C0
ENCODING 960
SWIDTH 560 0
DWIDTH 14 0
BBX 13 13 1 0
BITMAP
0018
0E38
7FF8
FFF8
FFF0
19C0
19C0
19C0
19C0
39C0
39C0
71F8
70F0
ENDCHAR
STARTCHAR 03C1
ENCODING 961
SWIDTH 560 0
DWIDTH 14 0
BBX 12 18 1 -6
BITMAP
0700
3FE0
78E0
70F0
F0F0
F070
F070
F0F0
F0F0
F0E0
F1C0
FF80
F000
F000
F000
F000
F000
C000
ENDCHAR
STARTCHAR 03C2
ENCODING 962
SWIDTH 440 0
DWIDTH 11 0
BBX 10 18 1 -6
BITMAP
0600
3FC0
71C0
F180
E180
E000
F000
F000
7C00
7F00
3F80
0FC0
03C0
03C0
03C0
0380
0700
0E00
ENDCHAR
STARTCHAR 03C3
ENCODING 963
SWIDTH 640 0
DWIDTH 16 0
BBX 15 13 1 0
BITMAP
0006
03CE
3FFC
7FFC
F0FC
F0F0
F070
F070
F070
F070
70F0
7DE0
1F80
ENDCHAR
STARTCHAR 03C4
ENCODING 964
SWIDTH 360 0
DWIDTH 9 0
BBX 9 13 0 0
BITMAP
0180
1B80
7F80
7F80
FF00
1C00
1C00
1C00
1C00
1C00
1C00
1F80
0F80
ENDCHAR
STARTCHAR 03C5
ENCODING 965
SWIDTH 520 0
DWIDTH 13 0
BBX 12 12 0 0
BITMAP
0800
F8F0
F8F0
3830
3830
3830
3830
3830
3C30
3C60
1FE0
0F80
ENDCHAR
STARTCHAR 03C6
ENCODING 966
SWIDTH 760 0
DWIDTH 19 0
BBX 18 18 1 -6
BITMAP
080800
1C7F00
78E780
71E3C0
F1E3C0
F1E3C0
F1E3C0
F1E3C0
F1E380
79E780
3DEF00
1FFC00
01E000
01E000
01E000
01E000
01E000
018000
ENDCHAR
STARTCHAR 03C7
ENCODING 967
SWIDTH 520 0
DWIDTH 13 0
BBX 13 18 0 -6
BITMAP
0880
7CF8
FC30
1E60
1E60
0F40
0FC0
0780
0780
0780
0F80
0F80
1BC0
19C0
11E0
31F0
78F8
F8F8
ENDCHAR
STARTCHAR 03C8
ENCODING 968
SWIDTH 760 0
DWIDTH 19 0
BBX 18 24 0 -6
BITMAP
003000
03F000
01F000
00F000
00F000
00F000
08F080
F8F7C0
F8F7C0
38F1C0
38F1C0
38F1C0
38F1C0
3CF1C0
3CF180
1EF380
1FFF00
07FC00
00F000
00F000
00F000
00F000
00F000
00C000
ENDCHAR
STARTCHAR 03C9
ENCODING 969
SWIDTH 760 0
DWIDTH 19 0
BBX 17 12 1 0
BITMAP
080800
380E00
780700
F08780
F1C780
F1C780
F1C780
F0C780
F1C780
F9C780
7F6F00
3E3E00
ENDCHAR
STARTCHAR 03CA
ENCODING 970
SWIDTH 320 0
DWIDTH 8 0
BBX 9 16 0 0
BITMAP
F380
F380
E380
0000
0400
7C00
7C00
1C00
1C00
1C00
1C00
1C00
1C00
1C00
1F00
1F00
ENDCHAR
STARTCHAR 03CB
ENCODING 971
SWIDTH 520 0
DWIDTH 13 0
BBX 12 16 0 0
BITMAP
38E0
3DE0
38E0
0000
0800
F8F0
F8F0
3830
3830
3830
3830
3830
3C30
3C60
1FE0
0F80
ENDCHAR
STARTCHAR 03CC
ENCODING 972
SWIDTH 560 0
DWIDTH 14 0
BBX 12 18 1 0
BITMAP
0700
0700
0600
0600
0600
0000
0600
3FC0
71E0
F0F0
F0F0
F070
F070
F070
F070
70F0
7DE0
1F80
ENDCHAR
STARTCHAR 03CD
ENCODING 973
SWIDTH 520 0
DWIDTH 13 0
BBX 12 18 0 0
BITMAP
0380
0300
0300
0300
0200
0000
0800
F8F0
F8F0
3830
3830
3830
3830
3830
3C30
3C60
1FE0
0F80
ENDCHAR
STARTCHAR 03CE
ENCODING 974
SWIDTH 760 0
DWIDTH 19 0
BBX 17 18 1 0
BITMAP
00E000
00C000
00C000
00C000
008000
000000
080800
380E00
780700
F08780
F1C780
F1C780
F1C780
F0C780
F1C780
F9C780
7F6F00
3E3E00
ENDCHAR
STARTCHAR 03CF
ENCODING 975
SWIDTH 720 0
DWIDTH 18 0
BBX 17 23 1 -6
BITMAP
FE3F00
FE3F00
3C1800
3C3000
3C6000
3CC000
3D8000
3F8000
3FC000
3FE000
3DE000
3CF000
3CF800
3C7C00
3C3C00
FE3F80
FE1F80
003C00
007000
007000
00F000
00F800
00F800
ENDCHAR
STARTCHAR 03D1
ENCODING 977
SWIDTH 600 0
DWIDTH 15 0
BBX 15 18 0 0
BITMAP
0780
1FE0
3C70
3C78
3C78
3C38
3C38
1E38
0FFE
00FE
0838
FC38
7C38
3C78
3C78
3C70
1EE0
0FC0
ENDCHAR
STARTCHAR 03D2
ENCODING 978
SWIDTH 680 0
DWIDTH 17 0
BBX 16 17 1 0
BITMAP
780F
FC1E
BE3E
1E66
0F40
0F40
07C0
07C0
0780
0780
0380
0380
0380
0380
0780
1FE0
1FF0
ENDCHAR
STARTCHAR 03D5
ENCODING 981
SWIDTH 760 0
DWIDTH 19 0
BBX 18 24 1 -6
BITMAP
00C000
07E000
03E000
01E000
01E000
01E000
03F800
3FFE00
79EF00
F1E780
F1E380
F1E3C0
F1E3C0
F1E3C0
F1E380
79E780
7DFF00
1FFC00
01E000
01E000
01E000
01E000
01E000
018000
ENDCHAR
STARTCHAR 03D6
ENCODING 982
SWIDTH 800 0
DWIDTH 20 0
BBX 19 13 1 0
BITMAP
000060
07F8E0
3FFFE0
7FFFE0
E63FC0
0E0380
1C6380
3C73C0
3C63C0
3C63C0
1E63C0
1FFF80
0F9F00
ENDCHAR
STARTCHAR 03D7
ENCODING 983
SWIDTH 600 0
DWIDTH 15 0
BBX 14 18 1 -6
BITMAP
0800
F9F8
F8E0
39C0
3B80
3F80
3FC0
3BC0
39E0
38F0
38FC
387C
001C
001C
003C
0038
1FF0
0FE0
ENDCHAR
STARTCHAR 03F0
ENCODING 1008
SWIDTH 600 0
DWIDTH 15 0
BBX 13 12 1 0
BITMAP
3060
F878
F8F0
39E0
1BE0
1FC0
3FC0
3EC0
3EC0
7CF8
F8F8
7078
ENDCHAR
STARTCHAR 03F1
ENCODING 1009
SWIDTH 560 0
DWIDTH 14 0
BBX 12 18 1 -6
BITMAP
0E00
3FC0
71E0
70F0
F070
F070
F070
F070
F0F0
F8E0
FFC0
C600
C000
F000
7FC0
7FE0
3FE0
0070
ENDCHAR
STARTCHAR 03F2
ENCODING 1010
SWIDTH 440 0
DWIDTH 11 0
BBX 10 12 1 0
BITMAP
0F00
3FC0
71C0
F1C0
F080
E000
E000
F000
F000
7840
7FC0
1F80
ENDCHAR
STARTCHAR 03F4
ENCODING 1012
SWIDTH 720 0
DWIDTH 18 0
BBX 17 17 1 0
BITMAP
07F000
1FFC00
381E00
781E00
700F00
F00F00
F00780
F00780
FFFF80
F00780
F00780
F00700
780F00
780E00
3C1E00
1F7C00
07F000
ENDCHAR
STARTCHAR 03F6
ENCODING 1014
SWIDTH 440 0
DWIDTH 11 0
BBX 10 12 1 0
BITMAP
1800
FF00
C780
C3C0
03C0
03C0
3FC0
03C0
C3C0
C380
EF00
FE00
ENDCHAR
STARTCHAR 03F7
ENCODING 1015
SWIDTH 600 0
DWIDTH 15 0
BBX 14 17 1 0
BITMAP
FE00
FE00
3C00
3F80
3FF0
3C78
3C3C
3C3C
3C3C
3C3C
3C38
3C78
3FE0
3C00
3C00
FF00
FF00
ENDCHAR
STARTCHAR 03F8
ENCODING 1016
SWIDTH 600 0
DWIDTH 15 0
BBX 14 24 1 -6
BITMAP
1800
F800
F800
7800
3800
3800
38C0
3BF0
3EF8
3C38
383C
383C
383C
3838
3838
3878
3CF0
3FC0
3800
3800
3800
7800
7800
6000
ENDCHAR
STARTCHAR 03F9
ENCODING 1017
SWIDTH 640 0
DWIDTH 16 0
BBX 14 17 1 0
BITMAP
07F0
1F7C
3C1C
781C
700C
F000
F000
F000
F000
F000
F000
F000
7800
7C00
3E04
1FFC
07F0
ENDCHAR
STARTCHAR 0400
ENCODING 1024
SWIDTH 600 0
DWIDTH 15 0
BBX 14 22 1 0
BITMAP
0E00
0E00
0700
0200
0000
FFF8
FFF8
3C38
3C18
3C10
3C00
3C40
3CC0
3FC0
3DC0
3C40
3C00
3C08
3C0C
3C1C
FFF8
FFF8
ENDCHAR
STARTCHAR 0401
ENCODING 1025
SWIDTH 600 0
DWIDTH 15 0
BBX 14 22 1 0
BITMAP
38E0
3DE0
38E0
1040
0000
FFF8
FFF8
3C38
3C18
3C10
3C00
3C40
3CC0
3FC0
3DC0
3C40
3C00
3C08
3C0C
3C1C
FFF8
FFF8
ENDCHAR
STARTCHAR 0402
ENCODING 1026
SWIDTH 800 0
DWIDTH 20 0
BBX 18 17 1 0
BITMAP
FFFC00
FFFC00
C78C00
C78600
C78400
078000
078000
07BC00
07FF80
078780
0783C0
0783C0
0783C0
0783C0
0783C0
0FCF80
1FCF00
ENDCHAR
STARTCHAR 0403
ENCODING 1027
SWIDTH 560 0
DWIDTH 14 0
BBX 13 23 1 0
BITMAP
03C0
0380
0300
0600
0000
0000
FFF0
FFF8
3C38
3C18
3C10
3C00
3C00
3C00
3C00
3C00
3C00
3C00
3C00
3C00
3C00
FF00
FF00
ENDCHAR
STARTCHAR 0404
ENCODING 1028
SWIDTH 640 0
DWIDTH 16 0
BBX 14 17 1 0
BITMAP
07F0
1F78
3818
7818
7018
F000
F000
F000
FFE0
F020
F000
F000
700C
780C
3C1C
1F3C
0FF0
ENDCHAR
STARTCHAR 0405
ENCODING 1029
SWIDTH 520 0
DWIDTH 13 0
BBX 12 17 1 0
BITMAP
1FC0
3FE0
70E0
70E0
7060
7800
7E00
7F80
3FC0
0FE0
03F0
01F0
E0F0
E070
E0F0
FBE0
3F80
ENDCHAR
STARTCHAR 0406
ENCODING 1030
SWIDTH 360 0
DWIDTH 9 0
BBX 7 17 1 0
BITMAP
FE
FE
3C
3C
3C
3C
3C
3C
3C
3C
3C
3C
3C
3C
3C
FE
FE
ENDCHAR
STARTCHAR 0407
ENCODING 1031
SWIDTH 360 0
DWIDTH 9 0
BBX 8 21 1 0
BITMAP
EF
EF
E6
00
FE
FE
3C
3C
3C
3C
3C
3C
3C
3C
3C
3C
3C
3C
3C
FE
FE
ENDCHAR
STARTCHAR 0408
ENCODING 1032
SWIDTH 360 0
DWIDTH 9 0
BBX 8 23 0 -6
BITMAP
7F
7F
3C
1C
1C
1C
1C
1C
1C
1C
1C
1C
1C
1C
1C
1C
1C
3C
3C
38
78
F0
C0
ENDCHAR
STARTCHAR 0409
ENCODING 1033
SWIDTH 920 0
DWIDTH 23 0
BBX 23 17 0 0
BITMAP
1FFF00
1FFF00
063C00
063C00
063C00
063C00
063C00
063FC0
063FF8
063C7C
043C3C
043C3E
0C3C3E
1C3C3C
FC3C3C
F87FF8
F07FF0
ENDCHAR
STARTCHAR 040A
ENCODING 1034
SWIDTH 1000 0
DWIDTH 25 0
BBX 23 17 1 0
BITMAP
FE7FC0
FE3FC0
3C1E00
3C1E00
3C1E00
3C1E00
3C1E00
3C1FC0
3FFFFC
3C1E3E
3C1E1E
3C1E1E
3C1E1E
3C1E1E
3C1E1E
FE3FFC
FE7FF0
ENDCHAR
STARTCHAR 040B
ENCODING 1035
SWIDTH 840 0
DWIDTH 21 0
BBX 20 17 1 0
BITMAP
FFFC00
FFFC00
C78C00
C78600
C78400
078000
078000
07BE00
07FF80
078780
0783C0
0783C0
0783C0
0783C0
0783C0
0FC7F0
1FE7F0
ENDCHAR
STARTCHAR 040C
ENCODING 1036
SWIDTH 720 0
DWIDTH 18 0
BBX 17 23 1 0
BITMAP
00F000
00E000
00C000
018000
000000
000000
FE3F00
FE1F00
3C1C00
3C3800
3C3000
3C6000
3CC000
3DC000
3DE000
3DE000
3CF000
3CF800
3C7C00
3C3C00
3C3E00
FE1F80
FE0F80
ENDCHAR
STARTCHAR 040D
ENCODING 1037
SWIDTH 760 0
DWIDTH 19 0
BBX 17 22 1 0
BITMAP
038000
038000
01C000
008000
000000
FE0F80
FE0F80
3C1F00
3C3F00
3C3F00
3C6F00
3C6F00
3CCF00
3CCF00
3D8F00
3D8F00
3F0F00
3F0F00
3E0F00
3C0F00
FC3F80
F83F80
ENDCHAR
STARTCHAR 040E
ENCODING 1038
SWIDTH 640 0
DWIDTH 16 0
BBX 17 22 0 0
BITMAP
0E0E00
0F1C00
07FC00
01F000
000000
FF0F80
7E0F00
3C0600
1E0600
1E0C00
0F0C00
079800
079800
03F000
03F000
01E000
01E000
00C000
01C000
3F8000
3F0000
1E0000
ENDCHAR
STARTCHAR 040F
ENCODING 1039
SWIDTH 760 0
DWIDTH 19 0
BBX 17 21 1 -4
BITMAP
FE3F80
FE3F80
3C1E00
3C0E00
3C0E00
3C0E00
3C0E00
3C0E00
3C0E00
3C0E00
3C0E00
3C0E00
3C0E00
3C0E00
3C1E00
FF7F80
FFFF80
01C000
01C000
01C000
01C000
ENDCHAR
STARTCHAR 0410
ENCODING 1040
SWIDTH 680 0
DWIDTH 17 0
BBX 17 17 0 0
BITMAP
00C000
01C000
01C000
03E000
03E000
02F000
06F000
047800
0C7800
0C3C00
083C00
1FFE00
181E00
301E00
300F00
781F80
F83F80
ENDCHAR
STARTCHAR 0411
ENCODING 1041
SWIDTH 640 0
DWIDTH 16 0
BBX 15 17 1 0
BITMAP
FFF8
FFF8
3C38
3C18
3C18
3C00
3C00
3FC0
3FF8
3C7C
3C3C
3C3E
3C3E
3C3C
3C3C
FFF8
FFE0
ENDCHAR
STARTCHAR 0412
ENCODING 1042
SWIDTH 640 0
DWIDTH 16 0
BBX 15 17 1 0
BITMAP
FFE0
FFF8
3C78
3C3C
3C3C
3C38
3C78
3FE0
3FF8
3C7C
3C3C
3C3E
3C1E
3C3E
3C3C
FFF8
FFE0
ENDCHAR
STARTCHAR 0413
ENCODING 1043
SWIDTH 560 0
DWIDTH 14 0
BBX 13 17 1 0
BITMAP
FFF0
FFF8
3C38
3C18
3C10
3C00
3C00
3C00
3C00
3C00
3C00
3C00
3C00
3C00
3C00
FF00
FF00
ENDCHAR
STARTCHAR 0414
ENCODING 1044
SWIDTH 720 0
DWIDTH 18 0
BBX 17 21 1 -4
BITMAP
1FFE00
1FFE00
043C00
043C00
043C00
043C00
0C3C00
0C3C00
0C3C00
0C3C00
0C3C00
083C00
183C00
183C00
303C00
7FFE00
FFFF80
C00380
C00300
C00380
C00300
ENDCHAR
STARTCHAR 0415
ENCODING 1045
SWIDTH 600 0
DWIDTH 15 0
BBX 14 17 1 0
BITMAP
FFF8
FFF8
3C38
3C18
3C10
3C00
3C40
3CC0
3FC0
3DC0
3C40
3C00
3C08
3C0C
3C1C
FFF8
FFF8
ENDCHAR
STARTCHAR 0416
ENCODING 1046
SWIDTH 1040 0
DWIDTH 26 0
BBX 26 17 0 0
BITMAP
7E3F9F80
7E3F9F80
0C1E0C00
061E1800
031E3800
019E3000
00DE6000
01DEE000
03FEF000
03DEF800
07DE7800
079E3C00
0F1E3C00
0F1E1E00
1E1E1F00
FE3F8FC0
FC3F8FC0
ENDCHAR
STARTCHAR 0417
ENCODING 1047
SWIDTH 560 0
DWIDTH 14 0
BBX 13 17 1 0
BITMAP
3FC0
7FE0
70F0
60F0
60F0
00F0
01E0
0F80
0FC0
01F0
00F0
0078
E078
E070
E0F0
FBE0
3FC0
ENDCHAR
STARTCHAR 0418
ENCODING 1048
SWIDTH 760 0
DWIDTH 19 0
BBX 17 17 1 0
BITMAP
FE0F80
FE0F80
3C1F00
3C3F00
3C3F00
3C6F00
3C6F00
3CCF00
3CCF00
3D8F00
3D8F00
3F0F00
3F0F00
3E0F00
3C0F00
FC3F80
F83F80
ENDCHAR
STARTCHAR 0419
ENCODING 1049
SWIDTH 760 0
DWIDTH 19 0
BBX 17 22 1 0
BITMAP
0C1C00
0E1C00
0FF800
03E000
000000
FE0F80
FE0F80
3C1F00
3C3F00
3C3F00
3C6F00
3C6F00
3CCF00
3CCF00
3D8F00
3D8F00
3F0F00
3F0F00
3E0F00
3C0F00
FC3F80
F83F80
ENDCHAR
STARTCHAR 041A
ENCODING 1050
SWIDTH 720 0
DWIDTH 18 0
BBX 17 17 1 0
BITMAP
FE3F00
FE1F00
3C1C00
3C3800
3C3000
3C6000
3CC000
3DC000
3DE000
3DE000
3CF000
3CF800
3C7C00
3C3C00
3C3E00
FE1F80
FE0F80
ENDCHAR
STARTCHAR 041B
ENCODING 1051
SWIDTH 680 0
DWIDTH 17 0
BBX 17 17 0 0
BITMAP
1FFF80
1FFF00
061E00
061E00
061E00
061E00
061E00
061E00
061E00
061E00
041E00
041E00
0C1E00
1C1E00
FC1E00
F83F00
F07F80
ENDCHAR
STARTCHAR 041C
ENCODING 1052
SWIDTH 960 0
DWIDTH 24 0
BBX 23 17 1 0
BITMAP
7C00FC
7E00F8
3E01F0
1F01F0
3F03F0
3F83F0
3782F0
3786F0
33C6F0
33C4F0
31EC70
21E878
21F878
20F878
60F078
F871FC
F861FE
ENDCHAR
STARTCHAR 041D
ENCODING 1053
SWIDTH 760 0
DWIDTH 19 0
BBX 17 17 1 0
BITMAP
FE3F80
FE3F80
3C0F00
3C0F00
3C0F00
3C0F00
3C0F00
3C0F00
3FFF00
3C0F00
3C0F00
3C0F00
3C0F00
3C0F00
3C0F00
FE3F80
FE3F80
ENDCHAR
STARTCHAR 041E
ENCODING 1054
SWIDTH 720 0
DWIDTH 18 0
BBX 17 17 1 0
BITMAP
07F000
1FFC00
381E00
781E00
700F00
F00F00
F00780
F00780
F00780
F00780
F00780
F00700
780F00
780E00
3C1E00
1F3C00
07F000
ENDCHAR
STARTCHAR 041F
ENCODING 1055
SWIDTH 760 0
DWIDTH 19 0
BBX 17 17 1 0
BITMAP
FFFF80
FFFF80
3C0E00
3C0E00
3C0E00
3C0E00
3C0E00
3C0E00
3C0E00
3C0E00
3C0E00
3C0E00
3C0E00
3C0E00
3C1E00
FE3F80
FE3F80
ENDCHAR
STARTCHAR 0420
ENCODING 1056
SWIDTH 600 0
DWIDTH 15 0
BBX 14 17 1 0
BITMAP
FFE0
FFF8
3C7C
3C3C
3C3C
3C3C
3C3C
3C3C
3C38
3EF0
3FE0
3C00
3C00
3C00
3C00
FF00
FF00
ENDCHAR
STARTCHAR 0421
ENCODING 1057
SWIDTH 640 0
DWIDTH 16 0
BBX 14 17 1 0
BITMAP
07F0
1F7C
3C1C
781C
700C
F000
F000
F000
F000
F000
F000
F000
7800
7C00
3E04
1FFC
07F0
ENDCHAR
STARTCHAR 0422
ENCODING 1058
SWIDTH 640 0
DWIDTH 16 0
BBX 15 17 1 0
BITMAP
FFFC
FFFC
C78C
C786
C784
0780
0780
0780
0780
0780
0780
0780
0780
0780
0780
1FE0
1FE0
ENDCHAR
STARTCHAR 0423
ENCODING 1059
SWIDTH 640 0
DWIDTH 16 0
BBX 17 17 0 0
BITMAP
FF0F80
7E0F00
3C0600
1E0600
1E0C00
0F0C00
079800
079800
03F000
03F000
01E000
01E000
00C000
01C000
3F8000
3F0000
1E0000
ENDCHAR
STARTCHAR 0424
ENCODING 1060
SWIDTH 840 0
DWIDTH 21 0
BBX 20 18 1 0
BITMAP
07FC00
03FC00
00F000
03FC00
1FFF80
7CE3C0
70E1E0
F0E0F0
F0E0F0
F0E0F0
F0E0E0
78E1E0
7CE3C0
1FFF80
03FC00
00F000
03FC00
07FC00
ENDCHAR
STARTCHAR 0425
ENCODING 1061
SWIDTH 680 0
DWIDTH 17 0
BBX 16 17 1 0
BITMAP
FF3E
FE3E
3E1C
3E18
1F30
0F20
0FE0
07C0
03C0
03E0
07E0
0CF0
18F8
1878
307C
F8FE
FCFF
ENDCHAR
STARTCHAR 0426
ENCODING 1062
SWIDTH 800 0
DWIDTH 20 0
BBX 19 21 1 -4
BITMAP
FE3F80
FE3F80
3C1E00
3C0E00
3C0E00
3C0E00
3C0E00
3C0E00
3C0E00
3C0E00
3C0E00
3C0E00
3C0E00
3C0E00
3C0E00
FFFF80
FFFFE0
0000E0
0000C0
0000C0
0000C0
ENDCHAR
STARTCHAR 0427
ENCODING 1063
SWIDTH 720 0
DWIDTH 18 0
BBX 16 17 1 0
BITMAP
FE7F
FE7F
781E
381E
381E
381E
3C1E
3C1E
3E3E
1FFE
001E
001E
001E
001E
001E
007F
00FF
ENDCHAR
STARTCHAR 0428
ENCODING 1064
SWIDTH 1040 0
DWIDTH 26 0
BBX 24 17 1 0
BITMAP
FE7F7F
FE7F7F
3C3C1E
3C3C1C
3C3C1C
3C3C1C
3C3C1C
3C3C1C
3C3C1C
3C3C1C
3C3C1C
3C3C1C
3C3C1C
3C3C1C
3C3C1E
FFFFFF
FFFFFF
ENDCHAR
STARTCHAR 0429
ENCODING 1065
SWIDTH 1080 0
DWIDTH 27 0
BBX 26 21 1 -4
BITMAP
FE7F7F00
FE7F7F00
3C3C1E00
3C3C1C00
3C3C1C00
3C3C1C00
3C3C1C00
3C3C1C00
3C3C1C00
3C3C1C00
3C3C1C00
3C3C1C00
3C3C1C00
3C3C1C00
3C3C1E00
FFFFFF00
FFFFFFC0
000001C0
000001C0
00000180
00000180
ENDCHAR
STARTCHAR 042A
ENCODING 1066
SWIDTH 760 0
DWIDTH 19 0
BBX 17 17 1 0
BITMAP
FFE000
FFE000
C78000
C78000
C78000
078000
078000
07F800
07FF00
078F80
078780
078780
078780
078780
078780
0FDF00
1FFC00
ENDCHAR
STARTCHAR 042B
ENCODING 1067
SWIDTH 920 0
DWIDTH 23 0
BBX 22 17 1 0
BITMAP
FF03FC
FF03F8
3C00F0
3C00F0
3C00F0
3C00F0
3C00F0
3F80F0
3FF0F0
3C78F0
3C7CF0
3C3CF0
3C3CF0
3C3CF0
3C78F0
FEF1F8
FFE3FC
ENDCHAR
STARTCHAR 042C
ENCODING 1068
SWIDTH 640 0
DWIDTH 16 0
BBX 15 17 1 0
BITMAP
FF00
FF00
3C00
3C00
3C00
3C00
3C00
3FC0
3FF8
3C7C
3C3C
3C3E
3C3E
3C3C
3C3C
FEF8
FFE0
ENDCHAR
STARTCHAR 042D
ENCODING 1069
SWIDTH 600 0
DWIDTH 15 0
BBX 14 17 1 0
BITMAP
3FC0
7BE0
60F0
6078
6038
003C
003C
003C
1FFC
103C
003C
003C
C038
C078
E070
F1E0
3FC0
ENDCHAR
STARTCHAR 042E
ENCODING 1070
SWIDTH 1040 0
DWIDTH 26 0
BBX 24 17 1 0
BITMAP
FE07F0
FE1EF8
3C383C
3C781E
3C700F
3CF00F
3CF00F
3CF00F
3FF007
3CF007
3CF00F
3CF00F
3C780F
3C780E
3C3C1C
FE1F78
FE0FF0
ENDCHAR
STARTCHAR 042F
ENCODING 1071
SWIDTH 640 0
DWIDTH 16 0
BBX 16 17 0 0
BITMAP
03FF
0FFF
1E1E
1C1E
3C1E
1C1E
1E1E
1F1E
07FE
03FE
079E
0F9E
0F1E
1E1E
3E1E
FC3F
FC7F
ENDCHAR
STARTCHAR 0430
ENCODING 1072
SWIDTH 480 0
DWIDTH 12 0
BBX 11 12 1 0
BITMAP
0E00
3F80
6780
E3C0
E3C0
07C0
3B80
F380
E380
E3C0
FFE0
7BE0
ENDCHAR
STARTCHAR 0431
ENCODING 1073
SWIDTH 560 0
DWIDTH 14 0
BBX 12 18 1 0
BITMAP
0030
00F0
07F0
1FE0
33C0
7000
7000
E7C0
FFE0
E1F0
E0F0
E0F0
E070
E070
F0F0
F0E0
7DE0
3F80
ENDCHAR
STARTCHAR 0432
ENCODING 1074
SWIDTH 560 0
DWIDTH 14 0
BBX 12 12 1 0
BITMAP
8000
FFE0
78F0
78F0
78E0
7FC0
7FE0
78F0
7870
78F0
FDF0
FFC0
ENDCHAR
STARTCHAR 0433
ENCODING 1075
SWIDTH 480 0
DWIDTH 12 0
BBX 11 12 1 0
BITMAP
C000
FFC0
78C0
7860
7840
7800
7800
7800
7800
7800
FE00
FE00
ENDCHAR
STARTCHAR 0434
ENCODING 1076
SWIDTH 600 0
DWIDTH 15 0
BBX 15 16 0 -4
BITMAP
380C
1FFC
0C78
0C70
0C70
0C70
0870
0870
1870
1870
7FFC
FFFE
E00E
E00E
600E
600E
ENDCHAR
STARTCHAR 0435
ENCODING 1077
SWIDTH 480 0
DWIDTH 12 0
BBX 11 12 1 0
BITMAP
0600
3F80
71C0
F1E0
F1E0
FFE0
FFE0
F000
F000
7800
7FE0
1F80
ENDCHAR
STARTCHAR 0436
ENCODING 1078
SWIDTH 880 0
DWIDTH 22 0
BBX 21 12 1 0
BITMAP
010800
FDF9F0
38F0C0
18F180
0CF300
06F600
0FFF00
0FF780
1EF3C0
3CF3C0
F9F9F8
F9F8F8
ENDCHAR
STARTCHAR 0437
ENCODING 1079
SWIDTH 480 0
DWIDTH 12 0
BBX 10 12 1 0
BITMAP
1C00
FF80
E3C0
C3C0
03C0
1F00
1F80
03C0
C1C0
C3C0
E3C0
FF00
ENDCHAR
STARTCHAR 0438
ENCODING 1080
SWIDTH 640 0
DWIDTH 16 0
BBX 14 12 1 0
BITMAP
8404
FC7C
7878
78F8
79F8
7978
7B78
7E78
7E78
7C78
F8FC
F8FC
ENDCHAR
STARTCHAR 0439
ENCODING 1081
SWIDTH 640 0
DWIDTH 16 0
BBX 14 17 1 0
BITMAP
3870
3870
1FE0
0FC0
0000
8404
FC7C
7878
78F8
79F8
7978
7B78
7E78
7E78
7C78
F8FC
F8FC
ENDCHAR
STARTCHAR 043A
ENCODING 1082
SWIDTH 600 0
DWIDTH 15 0
BBX 14 12 1 0
BITMAP
8400
FCF8
7860
78C0
7980
7B00
7F80
7BC0
79E0
79F0
FCFC
FC7C
ENDCHAR
STARTCHAR 043B
ENCODING 1083
SWIDTH 560 0
DWIDTH 14 0
BBX 14 12 0 0
BITMAP
1804
1FFC
0C78
0C70
0C70
0C70
0C70
0870
1870
F870
F0FC
F1FC
ENDCHAR
STARTCHAR 043C
ENCODING 1084
SWIDTH 720 0
DWIDTH 18 0
BBX 18 12 0 0
BITMAP
400040
7E0F80
1E0F00
1F1F00
1F1700
17B700
37A700
33E780
33C780
31C780
79CFC0
F88FC0
ENDCHAR
STARTCHAR 043D
ENCODING 1085
SWIDTH 640 0
DWIDTH 16 0
BBX 14 12 1 0
BITMAP
8484
FCFC
7878
7878
7878
7FF8
7FF8
7878
7878
7878
FCFC
FCFC
ENDCHAR
STARTCHAR 043E
ENCODING 1086
SWIDTH 560 0
DWIDTH 14 0
BBX 12 12 1 0
BITMAP
0600
3FC0
71E0
F0F0
F0F0
F070
F070
F070
F070
70F0
7DE0
1F80
ENDCHAR
STARTCHAR 043F
ENCODING 1087
SWIDTH 640 0
DWIDTH 16 0
BBX 14 12 1 0
BITMAP
800C
FFFC
7878
7878
7878
7878
7878
7878
7878
7878
FCFC
FCFC
ENDCHAR
STARTCHAR 0440
ENCODING 1088
SWIDTH 600 0
DWIDTH 15 0
BBX 14 18 1 -6
BITMAP
08E0
FBF0
FEF8
383C
383C
383C
383C
383C
3838
3878
3CF0
3FC0
3800
3800
3800
3C00
FE00
FF00
ENDCHAR
STARTCHAR 0441
ENCODING 1089
SWIDTH 440 0
DWIDTH 11 0
BBX 10 12 1 0
BITMAP
0F00
3FC0
71C0
F1C0
F080
E000
E000
F000
F000
7840
7FC0
1F80
ENDCHAR
STARTCHAR 0442
ENCODING 1090
SWIDTH 520 0
DWIDTH 13 0
BBX 13 11 0 1
BITMAP
7FF8
6798
C798
0780
0780
0780
0780
0780
0780
1FC0
1FE0
ENDCHAR
STARTCHAR 0443
ENCODING 1091
SWIDTH 560 0
DWIDTH 14 0
BBX 14 18 0 -6
BITMAP
C244
FE7C
7C38
3C30
1E30
1E60
0E60
0F40
0FC0
0780
0780
0380
0300
0300
0600
7E00
7C00
7800
ENDCHAR
STARTCHAR 0444
ENCODING 1092
SWIDTH 760 0
DWIDTH 19 0
BBX 18 24 1 -6
BITMAP
004000
07E000
03E000
01E000
01E000
01E000
03F000
1FFE00
79EF80
71E780
F1E3C0
F1E3C0
F1E3C0
F1E3C0
F1E3C0
79E780
3FFF00
1FFC00
01E000
01E000
01E000
01E000
03F000
07F800
ENDCHAR
STARTCHAR 0445
ENCODING 1093
SWIDTH 560 0
DWIDTH 14 0
BBX 12 12 1 0
BITMAP
0200
FEF0
7CE0
3CC0
1F80
1F80
0F80
1F80
33C0
33E0
F3F0
F3F0
ENDCHAR
STARTCHAR 0446
ENCODING 1094
SWIDTH 680 0
DWIDTH 17 0
BBX 16 16 1 -4
BITMAP
8484
FCFC
7878
7878
7878
7878
7878
7878
7878
7878
F87C
FFFF
0006
0006
0006
0006
ENDCHAR
STARTCHAR 0447
ENCODING 1095
SWIDTH 560 0
DWIDTH 14 0
BBX 14 12 0 0
BITMAP
C484
FCFC
7878
3878
3878
3C78
3FF8
0FF8
0078
0078
01FC
01FC
ENDCHAR
STARTCHAR 0448
ENCODING 1096
SWIDTH 880 0
DWIDTH 22 0
BBX 20 12 1 0
BITMAP
850A10
FDFBF0
78F1E0
78F1E0
78F1E0
78F1E0
78F1E0
78F1E0
78F1E0
78F1E0
F8F1F0
FFFFF0
ENDCHAR
STARTCHAR 0449
ENCODING 1097
SWIDTH 920 0
DWIDTH 23 0
BBX 22 16 1 -4
BITMAP
850A10
FDFBF0
78F1E0
78F1E0
78F1E0
78F1E0
78F1E0
78F1E0
78F1E0
78F1E0
F8F1F0
FFFFFC
00001C
00001C
00001C
00001C
ENDCHAR
STARTCHAR 044A
ENCODING 1098
SWIDTH 600 0
DWIDTH 15 0
BBX 15 12 0 0
BITMAP
0040
7FC0
6780
E700
4700
07F8
073C
071C
071E
071C
0FFC
1FF8
ENDCHAR
STARTCHAR 044B
ENCODING 1099
SWIDTH 800 0
DWIDTH 20 0
BBX 19 12 1 0
BITMAP
820420
FE07E0
7803C0
7803C0
7803C0
7FC3C0
79E3C0
78F3C0
78F3C0
78F3C0
FFE7E0
FFC7E0
ENDCHAR
STARTCHAR 044C
ENCODING 1100
SWIDTH 560 0
DWIDTH 14 0
BBX 12 12 1 0
BITMAP
8200
FE00
7800
7800
7800
7FC0
79F0
78F0
78F0
78F0
FDF0
FFC0
ENDCHAR
STARTCHAR 044D
ENCODING 1101
SWIDTH 440 0
DWIDTH 11 0
BBX 10 12 1 0
BITMAP
1800
FF00
C780
C3C0
03C0
03C0
3FC0
03C0
C3C0
C380
EF00
FE00
ENDCHAR
STARTCHAR 044E
ENCODING 1102
SWIDTH 800 0
DWIDTH 20 0
BBX 19 12 1 0
BITMAP
840E00
FC7F80
78E3C0
79E1C0
79C1E0
79C1E0
7FC1E0
79E1E0
79E1C0
78E1C0
FCFB80
FC3F00
ENDCHAR
STARTCHAR 044F
ENCODING 1103
SWIDTH 560 0
DWIDTH 14 0
BBX 13 12 0 0
BITMAP
0388
1FF8
3CF0
38F0
38F0
3CF0
1FF0
0FF0
1EF0
1CF0
7CF8
F9F8
ENDCHAR
STARTCHAR 0450
ENCODING 1104
SWIDTH 480 0
DWIDTH 12 0
BBX 11 18 1 0
BITMAP
3800
1800
1C00
0C00
0600
0000
0600
3F80
71C0
F1E0
F1E0
FFE0
FFE0
F000
F000
7800
7FE0
1F80
ENDCHAR
STARTCHAR 0451
ENCODING 1105
SWIDTH 480 0
DWIDTH 12 0
BBX 11 16 1 0
BITMAP
79C0
7BC0
71C0
0000
0600
3F80
71C0
F1E0
F1E0
FFE0
FFE0
F000
F000
7800
7FE0
1F80
ENDCHAR
STARTCHAR 0452
ENCODING 1106
SWIDTH 600 0
DWIDTH 15 0
BBX 14 24 0 -6
BITMAP
0C00
7C00
7C00
3C00
FFC0
FFC0
3C00
3DF8
3FF8
3E3C
3C3C
3C1C
3C1C
3C1C
3C1C
3C1C
7E1C
7F3C
0038
0038
0070
0070
01E0
0180
ENDCHAR
STARTCHAR 0453
ENCODING 1107
SWIDTH 480 0
DWIDTH 12 0
BBX 11 18 1 0
BITMAP
0780
0700
0600
0C00
0C00
0000
C000
FFC0
78C0
7860
7840
7800
7800
7800
7800
7800
FE00
FE00
ENDCHAR
STARTCHAR 0454
ENCODING 1108
SWIDTH 440 0
DWIDTH 11 0
BBX 10 12 1 0
BITMAP
0600
3FC0
79C0
F0C0
F000
FF00
FF00
F000
F080
70C0
79C0
1FC0
ENDCHAR
STARTCHAR 0455
ENCODING 1109
SWIDTH 440 0
DWIDTH 11 0
BBX 10 12 1 0
BITMAP
1E00
7F80
E380
E180
F800
7E00
3F80
0F80
C3C0
C3C0
F780
FF00
ENDCHAR
STARTCHAR 0456
ENCODING 1110
SWIDTH 320 0
DWIDTH 8 0
BBX 7 17 1 0
BITMAP
78
78
78
00
00
08
F8
F8
38
38
38
38
38
38
38
FE
FE
ENDCHAR
STARTCHAR 0457
ENCODING 1111
SWIDTH 320 0
DWIDTH 8 0
BBX 9 16 0 0
BITMAP
F700
F780
E700
0000
0400
7C00
7C00
1C00
1C00
1C00
1C00
1C00
1C00
1C00
7F00
7F00
ENDCHAR
STARTCHAR 0458
ENCODING 1112
SWIDTH 280 0
DWIDTH 7 0
BBX 5 23 1 -6
BITMAP
78
78
78
00
00
08
F8
F8
38
38
38
38
38
38
38
38
38
38
78
70
E0
E0
80
ENDCHAR
STARTCHAR 0459
ENCODING 1113
SWIDTH 800 0
DWIDTH 20 0
BBX 20 12 0 0
BITMAP
180C00
1FFC00
047800
047000
047000
0C7FC0
0C73E0
0C71F0
1870F0
F878F0
F8FFE0
F1FF80
ENDCHAR
STARTCHAR 045A
ENCODING 1114
SWIDTH 840 0
DWIDTH 21 0
BBX 19 12 1 0
BITMAP
858200
FCFE00
787800
787000
787000
7FFE00
7FFFC0
7871E0
7871E0
7879E0
FCFFE0
FDFF80
ENDCHAR
STARTCHAR 045B
ENCODING 1115
SWIDTH 640 0
DWIDTH 16 0
BBX 15 18 0 0
BITMAP
0C00
7C00
7C00
3C00
FFC0
FFC0
1C00
1DF8
1FF8
1E3C
1E3C
1C3C
1C3C
1C3C
1C3C
3C3C
7E7E
7F7E
ENDCHAR
STARTCHAR 045C
ENCODING 1116
SWIDTH 560 0
DWIDTH 14 0
BBX 14 18 1 0
BITMAP
00E0
00C0
01C0
0180
0100
0000
8400
FCF8
7860
78C0
7980
7B00
7F80
7BC0
79E0
79F0
FCFC
FC7C
ENDCHAR
STARTCHAR 045D
ENCODING 1117
SWIDTH 640 0
DWIDTH 16 0
BBX 14 18 1 0
BITMAP
0E00
0E00
0600
0300
0300
0000
8404
FC7C
7878
78F8
79F8
7978
7B78
7E78
7E78
7C78
F8FC
F8FC
ENDCHAR
STARTCHAR 045E
ENCODING 1118
SWIDTH 560 0
DWIDTH 14 0
BBX 14 23 0 -6
BITMAP
1C38
1C38
0FF0
07E0
0000
C244
FE7C
7C38
3C30
1E30
1E60
0E60
0F40
0FC0
0780
0780
0380
0300
0300
0600
7E00
7C00
7800
ENDCHAR
STARTCHAR 045F
ENCODING 1119
SWIDTH 640 0
DWIDTH 16 0
BBX 14 16 1 -4
BITMAP
8484
FCFC
7878
7878
7878
7878
7878
7878
7878
7878
FCFC
FFFC
0780
0300
0300
0300
ENDCHAR
STARTCHAR 0462
ENCODING 1122
SWIDTH 720 0
DWIDTH 18 0
BBX 17 18 0 0
BITMAP
1FE000
1FC000
078000
078000
7FFC00
679C00
678C00
C78C00
078000
07FC00
07FF00
078F80
078780
078780
078780
078780
1FFF00
1FFC00
ENDCHAR
STARTCHAR 0463
ENCODING 1123
SWIDTH 640 0
DWIDTH 16 0
BBX 15 18 0 0
BITMAP
0300
1F00
1F00
0F00
0F00
0F00
0F08
7FF8
EF38
CF18
0F00
0FF8
0FFE
0F1E
0F1E
0F1E
1FBE
1FF8
ENDCHAR
STARTCHAR 046A
ENCODING 1130
SWIDTH 920 0
DWIDTH 23 0
BBX 23 17 0 0
BITMAP
1FFFF8
1FFFF8
078060
07C0C0
03E0C0
01E180
00F300
007E00
01FF80
07FFE0
07BDE0
0F3CF0
0F3CF0
1E3C78
1E3C78
7C7E7E
FCFF3E
ENDCHAR
STARTCHAR 046B
ENCODING 1131
SWIDTH 800 0
DWIDTH 20 0
BBX 20 12 0 0
BITMAP
300040
3FFFC0
0F0180
078700
03CC00
01E800
0FFF00
1FF780
1EF3C0
3CF3C0
7DF9F0
F9F9F0
ENDCHAR
STARTCHAR 0472
ENCODING 1138
SWIDTH 720 0
DWIDTH 18 0
BBX 17 17 1 0
BITMAP
07F000
1FFC00
381E00
781E00
700F00
F00F00
F00780
FF8F80
FFFF80
F8F780
F00780
F00700
780F00
780E00
3C1E00
1F3C00
07F000
ENDCHAR
STARTCHAR 0473
ENCODING 1139
SWIDTH 560 0
DWIDTH 14 0
BBX 12 12 1 0
BITMAP
0600
3FC0
71E0
F0F0
F0F0
FFF0
FFF0
F070
F070
70F0
7DE0
1F80
ENDCHAR
STARTCHAR 0474
ENCODING 1140
SWIDTH 720 0
DWIDTH 18 0
BBX 18 17 0 0
BITMAP
FF0380
7E07C0
3C07C0
3C0C00
1E0C00
1E0800
0F1800
0F1800
0F1000
079000
07B000
03A000
03E000
03E000
01C000
01C000
01C000
ENDCHAR
STARTCHAR 0475
ENCODING 1141
SWIDTH 520 0
DWIDTH 13 0
BBX 13 12 0 0
BITMAP
0010
FC78
7C78
3C60
3CC0
1EC0
1E80
0F80
0F80
0F00
0700
0700
ENDCHAR
STARTCHAR 048A
ENCODING 1162
SWIDTH 800 0
DWIDTH 20 0
BBX 19 26 1 -4
BITMAP
0C1C00
0E1C00
0FF800
03E000
000000
FE0F80
FE0F80
3C1F00
3C3F00
3C3F00
3C6F00
3C6F00
3CCF00
3CCF00
3D8F00
3D8F00
3F0F00
3F0F00
3E0F00
3C0F00
FC3F80
F83FE0
0001C0
0001C0
000380
000380
ENDCHAR
STARTCHAR 048B
ENCODING 1163
SWIDTH 680 0
DWIDTH 17 0
BBX 15 21 1 -4
BITMAP
3870
3870
1FE0
0FC0
0000
8404
FC7C
7878
78F8
79F8
7978
7B78
7E78
7E78
7C78
F8FC
F8FE
000E
000E
001C
0018
ENDCHAR
STARTCHAR 048C
ENCODING 1164
SWIDTH 640 0
DWIDTH 16 0
BBX 16 17 0 0
BITMAP
7F80
7F80
1E00
1E00
FFC0
DE00
1E00
1FE0
1FFC
1E3E
1E1E
1E1F
1E1F
1E1E
1E1E
7F7C
7FF0
ENDCHAR
STARTCHAR 048D
ENCODING 1165
SWIDTH 560 0
DWIDTH 14 0
BBX 14 18 0 0
BITMAP
0C00
7C00
7C00
3C00
3C00
3C00
3C00
FFC0
3C00
3C00
3C00
3FF0
3CF8
3C78
3C3C
3C78
7FF8
7FE0
ENDCHAR
STARTCHAR 048E
ENCODING 1166
SWIDTH 600 0
DWIDTH 15 0
BBX 14 17 1 0
BITMAP
FFE0
FFF8
3C3C
3C3C
3C1C
3C1C
3C1C
3CDC
3CF8
3EF0
3FF8
3C0C
3C00
3C00
3C00
FF00
FF00
ENDCHAR
STARTCHAR 048F
ENCODING 1167
SWIDTH 600 0
DWIDTH 15 0
BBX 14 18 1 -6
BITMAP
08E0
FBF0
FEF8
383C
383C
383C
383C
383C
39B8
38F8
3CF0
3FF0
3810
3800
3800
3C00
FE00
FF00
ENDCHAR
STARTCHAR 0490
ENCODING 1168
SWIDTH 520 0
DWIDTH 13 0
BBX 12 21 1 0
BITMAP
0030
0030
0030
0070
FFF0
FFF0
3C00
3C00
3C00
3C00
3C00
3C00
3C00
3C00
3C00
3C00
3C00
3C00
3C00
FF00
FF00
ENDCHAR
STARTCHAR 0491
ENCODING 1169
SWIDTH 440 0
DWIDTH 11 0
BBX 10 16 1 0
BITMAP
00C0
00C0
00C0
01C0
C3C0
FFC0
7800
7800
7800
7800
7800
7800
7800
7800
FC00
FE00
ENDCHAR
STARTCHAR 0492
ENCODING 1170
SWIDTH 560 0
DWIDTH 14 0
BBX 14 17 0 0
BITMAP
7FF8
7FFC
1E1C
1E0C
1E08
1E00
1E00
1E00
FFE0
FFE0
1E00
1E00
1E00
1E00
1E00
7F80
7F80
ENDCHAR
STARTCHAR 0493
ENCODING 1171
SWIDTH 480 0
DWIDTH 12 0
BBX 12 12 0 0
BITMAP
6000
7FE0
3C60
3C30
3C20
3C00
FF80
3C00
3C00
3C00
7F00
7F00
ENDCHAR
STARTCHAR 0494
ENCODING 1172
SWIDTH 640 0
DWIDTH 16 0
BBX 14 23 1 -6
BITMAP
FFF8
FFF8
3C38
3C18
3C10
3C00
3C00
3C00
3FF0
3CF8
3C7C
3C3C
3C3C
3C3C
3C3C
FE3C
FE3C
003C
0038
0078
0070
00E0
00C0
ENDCHAR
STARTCHAR 0495
ENCODING 1173
SWIDTH 560 0
DWIDTH 14 0
BBX 12 17 1 -5
BITMAP
FFE0
7860
7820
7800
7800
7FE0
78F0
78F0
7870
FC70
FE70
0070
0070
00F0
00E0
01C0
0180
ENDCHAR
STARTCHAR 0496
ENCODING 1174
SWIDTH 1080 0
DWIDTH 27 0
BBX 27 21 0 -4
BITMAP
7E7F9F80
7E3F1F80
0C1E0C00
061E1800
031E3000
019E7000
019E6000
01DEE000
03DEF000
03DEF000
079E7800
079E7800
0F1E3C00
1F1E3E00
3E1E1F00
FC3F0FC0
FC7F8FE0
000000E0
000000C0
000000C0
000000C0
ENDCHAR
STARTCHAR 0497
ENCODING 1175
SWIDTH 840 0
DWIDTH 21 0
BBX 22 16 0 -4
BITMAP
028400
7CFDF8
1878E0
0C78C0
067980
037B00
07FF80
0F7BC0
0F7BC0
1E79E0
7CFCF8
F8FC7C
00001C
00000C
00000C
00000C
ENDCHAR
STARTCHAR 0498
ENCODING 1176
SWIDTH 560 0
DWIDTH 14 0
BBX 13 21 1 -4
BITMAP
3FC0
7FE0
70F0
60F0
60F0
00F0
01E0
0F80
0FC0
01F0
00F0
0078
E078
E070
E0F0
FBE0
3FC0
0E00
0600
0600
0600
ENDCHAR
STARTCHAR 0499
ENCODING 1177
SWIDTH 480 0
DWIDTH 12 0
BBX 10 16 1 -4
BITMAP
1C00
FF80
E3C0
C3C0
03C0
1F00
1F80
03C0
C1C0
C3C0
E3C0
FF00
1C00
1C00
1C00
1C00
ENDCHAR
STARTCHAR 049A
ENCODING 1178
SWIDTH 760 0
DWIDTH 19 0
BBX 18 21 1 -4
BITMAP
FE3F00
FE1F00
3C1C00
3C3800
3C3000
3C6000
3CC000
3DC000
3DE000
3DE000
3CF000
3CF800
3C7C00
3C3C00
3C3E00
FE1F80
FE0FC0
0003C0
0001C0
0001C0
0001C0
ENDCHAR
STARTCHAR 049B
ENCODING 1179
SWIDTH 560 0
DWIDTH 14 0
BBX 15 16 1 -4
BITMAP
8400
FCF8
7860
78C0
7980
7B00
7F80
7BC0
79E0
79F0
FCFC
FC7E
000C
000C
000C
000C
ENDCHAR
STARTCHAR 049C
ENCODING 1180
SWIDTH 720 0
DWIDTH 18 0
BBX 17 17 1 0
BITMAP
FE0700
FE0F00
3C0F00
3C1980
3D1000
3D3000
3D6000
3FC000
3FF000
3D7800
3D7800
3D3C00
3D3C00
3C1E00
3C1E00
FE1F80
FE0F80
ENDCHAR
STARTCHAR 049D
ENCODING 1181
SWIDTH 640 0
DWIDTH 16 0
BBX 15 12 1 0
BITMAP
020E
FE1E
783E
7B26
7B40
7F80
7FE0
7B70
7B78
7878
FC3E
FE1E
ENDCHAR
STARTCHAR 049E
ENCODING 1182
SWIDTH 720 0
DWIDTH 18 0
BBX 18 17 0 0
BITMAP
7F0780
7F0F80
1E0F80
7F9980
FFB000
1E3000
1E6000
1FC000
1FF000
1EF800
1E7C00
1E3C00
1E1E00
1E1E00
1E1F00
7F0FC0
7F07C0
ENDCHAR
STARTCHAR 049F
ENCODING 1183
SWIDTH 600 0
DWIDTH 15 0
BBX 15 18 0 0
BITMAP
0C00
7C00
7C00
3C00
7FC0
FFC0
1C0C
1C3C
1C3C
1C6C
1CC0
1F80
1FE0
1DF0
1CF0
3C78
7E7E
7E3E
ENDCHAR
STARTCHAR 04A0
ENCODING 1184
SWIDTH 840 0
DWIDTH 21 0
BBX 20 17 1 0
BITMAP
FFE1E0
FFE3E0
C383E0
C38660
438600
038C00
039800
03F000
03FC00
039E00
038F00
038F00
038780
078780
0783C0
1FE3F0
1FE1F0
ENDCHAR
STARTCHAR 04A1
ENCODING 1185
SWIDTH 680 0
DWIDTH 17 0
BBX 17 12 0 0
BITMAP
00C300
7FC700
678F00
C79B00
07B000
07E000
07F800
07BC00
079C00
079E00
0FCF80
1FCF80
ENDCHAR
STARTCHAR 04A2
ENCODING 1186
SWIDTH 800 0
DWIDTH 20 0
BBX 19 21 1 -4
BITMAP
FE3F80
FE3F80
3C0F00
3C0F00
3C0F00
3C0F00
3C0F00
3C0F00
3FFF00
3C0F00
3C0F00
3C0F00
3C0F00
3C0F00
3C0F00
FE3F80
FE3FE0
0000E0
0000E0
0000E0
0000E0
ENDCHAR
STARTCHAR 04A3
ENCODING 1187
SWIDTH 680 0
DWIDTH 17 0
BBX 16 16 1 -4
BITMAP
8484
FCFC
7878
7878
7878
7FF8
7FF8
7878
7878
7878
FCFC
FCFF
0007
0007
0007
0007
ENDCHAR
STARTCHAR 04A4
ENCODING 1188
SWIDTH 880 0
DWIDTH 22 0
BBX 21 17 1 0
BITMAP
FE7FF8
FE7FF8
3C1E18
3C1E18
3C1E10
3C1E00
3C1E00
3C1E00
3FFE00
3C1E00
3C1E00
3C1E00
3C1E00
3C1E00
3C1E00
FE3F80
FE7FC0
ENDCHAR
STARTCHAR 04A5
ENCODING 1189
SWIDTH 760 0
DWIDTH 19 0
BBX 18 12 1 0
BITMAP
84C000
FCFF80
7879C0
7878C0
787800
7FF800
7FF800
787800
787800
787800
FCFC00
FCFE00
ENDCHAR
STARTCHAR 04A8
ENCODING 1192
SWIDTH 880 0
DWIDTH 22 0
BBX 21 17 1 0
BITMAP
070000
1F1F00
3C7BC0
78F1E0
70E1E0
F1E0F0
F1E0F0
F1E0F0
F1E0F0
F1E0F0
F1E0E0
F0F1E0
78F1C0
787BC0
3C3F98
1F1FF8
07FFE0
ENDCHAR
STARTCHAR 04A9
ENCODING 1193
SWIDTH 760 0
DWIDTH 19 0
BBX 18 12 1 0
BITMAP
040000
3CFC00
79CE00
F3CF00
F38700
F38700
F38700
F38700
F3CE00
79CE00
3FFBC0
1FFF00
ENDCHAR
STARTCHAR 04AA
ENCODING 1194
SWIDTH 640 0
DWIDTH 16 0
BBX 14 21 1 -4
BITMAP
07F0
1F7C
3C1C
781C
700C
F000
F000
F000
F000
F000
F000
F000
7800
7C00
3E04
1FFC
07F0
01C0
0180
0180
0180
ENDCHAR
STARTCHAR 04AB
ENCODING 1195
SWIDTH 440 0
DWIDTH 11 0
BBX 10 16 1 -4
BITMAP
0F00
3FC0
71C0
F1C0
F080
E000
E000
F000
F000
7840
7FC0
1F80
0600
0600
0600
0600
ENDCHAR
STARTCHAR 04AC
ENCODING 1196
SWIDTH 640 0
DWIDTH 16 0
BBX 15 21 1 -4
BITMAP
FFFC
FFFC
C78C
C786
C784
0780
0780
0780
0780
0780
0780
0780
0780
0780
0780
1FE0
1FF0
0070
0030
0030
0030
ENDCHAR
STARTCHAR 04AD
ENCODING 1197
SWIDTH 520 0
DWIDTH 13 0
BBX 13 15 0 -3
BITMAP
7FF8
6798
C798
0780
0780
0780
0780
0780
0780
1FC0
1FF0
0060
0060
0060
0060
ENDCHAR
STARTCHAR 04AE
ENCODING 1198
SWIDTH 600 0
DWIDTH 15 0
BBX 15 17 0 0
BITMAP
FF1E
7F1E
3E0C
1E08
1E18
0F10
0F30
07A0
07E0
03C0
03C0
03C0
03C0
03C0
03C0
0FF0
0FF0
ENDCHAR
STARTCHAR 04AF
ENCODING 1199
SWIDTH 560 0
DWIDTH 14 0
BBX 14 18 0 -6
BITMAP
C244
FE7C
7C38
3C30
1C20
1E60
0E60
0F40
0FC0
0780
0780
0780
0780
0780
0780
0780
0FC0
0FE0
ENDCHAR
STARTCHAR 04B0
ENCODING 1200
SWIDTH 600 0
DWIDTH 15 0
BBX 15 17 0 0
BITMAP
FF1E
7F1E
3E0C
1E08
1E18
0F10
0F30
07A0
07E0
03C0
1FF8
1FF8
03C0
03C0
03C0
0FF0
0FF0
ENDCHAR
STARTCHAR 04B1
ENCODING 1201
SWIDTH 560 0
DWIDTH 14 0
BBX 14 18 0 -6
BITMAP
C244
FE7C
7C38
3C30
1C20
1E60
0E60
0F40
0FC0
0780
1FF0
3FF0
0780
0780
0780
0780
0FC0
0FE0
ENDCHAR
STARTCHAR 04B2
ENCODING 1202
SWIDTH 720 0
DWIDTH 18 0
BBX 17 21 1 -4
BITMAP
FF3E00
FE3E00
3E1C00
3E1800
1F3000
0F2000
0FE000
07C000
03C000
03E000
07E000
0CF000
18F800
187800
307C00
F8FE00
FCFF80
000380
000300
000300
000300
ENDCHAR
STARTCHAR 04B3
ENCODING 1203
SWIDTH 560 0
DWIDTH 14 0
BBX 13 16 1 -4
BITMAP
0200
FEF0
7CE0
3CC0
1F80
1F80
0F80
1F80
33C0
33E0
F3F0
F3F8
0038
0018
0018
0018
ENDCHAR
STARTCHAR 04B4
ENCODING 1204
SWIDTH 1000 0
DWIDTH 25 0
BBX 24 21 1 -4
BITMAP
FFFDFC
FFFDFC
C79C78
C78C70
C78870
078070
078070
078070
078070
078070
078070
078070
078070
078070
078078
0FF7FC
0FFFFF
000007
000007
000007
000007
ENDCHAR
STARTCHAR 04B5
ENCODING 1205
SWIDTH 840 0
DWIDTH 21 0
BBX 21 15 0 -3
BITMAP
7FF7E0
67B3C0
C7B3C0
0783C0
0783C0
0783C0
0783C0
0783C0
0783C0
0FC7E0
0FFFF8
000038
000030
000030
000030
ENDCHAR
STARTCHAR 04B6
ENCODING 1206
SWIDTH 760 0
DWIDTH 19 0
BBX 18 21 1 -4
BITMAP
FE7F00
FE7F00
781E00
381E00
381E00
381E00
3C1E00
3C1E00
3E3E00
1FFE00
001E00
001E00
001E00
001E00
001E00
007F00
00FFC0
0001C0
0001C0
0001C0
0001C0
ENDCHAR
STARTCHAR 04B7
ENCODING 1207
SWIDTH 600 0
DWIDTH 15 0
BBX 15 16 0 -4
BITMAP
C484
FCFC
7878
3878
3878
3C78
3FF8
0FF8
0078
0078
01FC
01FE
0006
0006
0006
0006
ENDCHAR
STARTCHAR 04B8
ENCODING 1208
SWIDTH 760 0
DWIDTH 19 0
BBX 17 17 1 0
BITMAP
FE3F80
FE3F80
780F00
380F00
388F00
38CF00
3CCF00
3ECF00
1FFF00
07EF00
00CF00
00CF00
00CF00
000F00
001F00
003F80
007F80
ENDCHAR
STARTCHAR 04B9
ENCODING 1209
SWIDTH 640 0
DWIDTH 16 0
BBX 16 12 0 0
BITMAP
C243
FE7E
3C3C
393C
3DBC
3DBC
1FFC
01BC
01BC
00BC
007E
00FF
ENDCHAR
STARTCHAR 04BA
ENCODING 1210
SWIDTH 720 0
DWIDTH 18 0
BBX 17 17 1 0
BITMAP
FF0000
FF0000
3C0000
3C0000
3C0000
3C0000
3C0000
3FF800
3E7C00
3C3C00
3C1E00
3C1E00
3C1E00
3C1E00
3C1E00
FE3F00
FE7F80
ENDCHAR
STARTCHAR 04BB
ENCODING 1211
SWIDTH 640 0
DWIDTH 16 0
BBX 14 18 1 0
BITMAP
1800
F800
F800
7800
3800
3800
3880
3BF0
3FF8
3878
3878
3878
3878
3878
3878
7878
FCFC
FEFC
ENDCHAR
STARTCHAR 04BC
ENCODING 1212
SWIDTH 800 0
DWIDTH 20 0
BBX 19 17 1 0
BITMAP
007E00
01FF00
038380
6703C0
E701C0
CF01C0
EF01E0
FFFFE0
7FFFC0
0F0000
0F0000
0F0000
0F8000
078040
03C0C0
03FF80
00FF00
ENDCHAR
STARTCHAR 04BD
ENCODING 1213
SWIDTH 640 0
DWIDTH 16 0
BBX 15 12 1 0
BITMAP
00C0
03F8
673C
EE1C
EE1C
FFFE
3FFC
0E00
0F00
0F04
07FC
03F8
ENDCHAR
STARTCHAR 04BE
ENCODING 1214
SWIDTH 800 0
DWIDTH 20 0
BBX 19 21 1 -4
BITMAP
007E00
01FF00
038380
6703C0
E701C0
CF01C0
EF01E0
FFFFE0
7FFFC0
0F0000
0F0000
0F0000
0F8000
078040
03C0C0
01FF80
00FF00
001800
001800
001800
001800
ENDCHAR
STARTCHAR 04BF
ENCODING 1215
SWIDTH 640 0
DWIDTH 16 0
BBX 15 16 1 -4
BITMAP
00C0
03F8
673C
EE1C
EE1C
FFFE
3FFC
0E00
0F00
0F04
07FC
03F8
00E0
00E0
0060
0060
ENDCHAR
STARTCHAR 04C0
ENCODING 1216
SWIDTH 360 0
DWIDTH 9 0
BBX 7 17 1 0
BITMAP
FE
FE
3C
3C
3C
3C
3C
3C
3C
3C
3C
3C
3C
3C
3C
FE
FE
ENDCHAR
STARTCHAR 04C1
ENCODING 1217
SWIDTH 1040 0
DWIDTH 26 0
BBX 26 22 0 0
BITMAP
00E1C000
00E1C000
007F8000
003E0000
00000000
7E7F9F80
7E3F1F80
0C1E0C00
061E1800
031E3000
019E7000
019E6000
01DEE000
03DEF000
03DEF000
079E7800
079E7800
0F1E3C00
1F1E3E00
3E1E1F00
FC3F0FC0
FC7F8FC0
ENDCHAR
STARTCHAR 04C2
ENCODING 1218
SWIDTH 840 0
DWIDTH 21 0
BBX 21 17 0 0
BITMAP
038700
038700
01FE00
00FC00
000000
028400
7CFDF8
1878E0
0C78C0
067980
037B00
07FF80
0F7BC0
0F7BC0
1E79E0
7CFCF8
F8FC78
ENDCHAR
STARTCHAR 04C3
ENCODING 1219
SWIDTH 680 0
DWIDTH 17 0
BBX 16 23 1 -6
BITMAP
FE0E
FE1E
3C3E
3C66
3C60
3CC0
3C80
3F80
3FF0
3C7C
3C3E
3C1E
3C1E
3C0F
3C0F
FE0F
FE0E
001E
001E
003C
0038
0070
00C0
ENDCHAR
STARTCHAR 04C4
ENCODING 1220
SWIDTH 560 0
DWIDTH 14 0
BBX 13 18 1 -6
BITMAP
8430
FC70
78F0
79B0
7B00
7E00
7FC0
78F0
7870
7878
FC78
FC78
0078
0070
00F0
00E0
01C0
0300
ENDCHAR
STARTCHAR 04C5
ENCODING 1221
SWIDTH 720 0
DWIDTH 18 0
BBX 18 21 0 -4
BITMAP
1FFF80
1FFF00
061E00
061E00
061E00
061E00
061E00
061E00
061E00
061E00
041E00
041E00
0C1E00
1C1E00
FC1E00
F83F00
F07FC0
0003C0
000380
000300
000700
ENDCHAR
STARTCHAR 04C6
ENCODING 1222
SWIDTH 600 0
DWIDTH 15 0
BBX 15 16 0 -4
BITMAP
1804
1FFC
0C78
0C70
0C70
0C70
0C70
0870
1870
F870
F0FC
F1FE
000E
001C
001C
0038
ENDCHAR
STARTCHAR 04C7
ENCODING 1223
SWIDTH 760 0
DWIDTH 19 0
BBX 17 23 1 -6
BITMAP
FE3F80
FE3F80
3C0F00
3C0F00
3C0F00
3C0F00
3C0F00
3C0F00
3FFF00
3C0F00
3C0F00
3C0F00
3C0F00
3C0F00
3C0F00
FE0F00
FE0E00
000E00
000E00
001C00
001C00
003800
003000
ENDCHAR
STARTCHAR 04C8
ENCODING 1224
SWIDTH 640 0
DWIDTH 16 0
BBX 14 18 1 -6
BITMAP
8484
FCFC
7878
7878
7878
7FF8
7FF8
7878
7878
7878
FC78
FC78
0078
0070
0070
00E0
01C0
0180
ENDCHAR
STARTCHAR 04C9
ENCODING 1225
SWIDTH 800 0
DWIDTH 20 0
BBX 19 21 1 -4
BITMAP
FE3F80
FE3F80
3C0F00
3C0F00
3C0F00
3C0F00
3C0F00
3C0F00
3FFF00
3C0F00
3C0F00
3C0F00
3C0F00
3C0F00
3C0F00
FE3F80
FE3FE0
0001C0
0001C0
000380
000380
ENDCHAR
STARTCHAR 04CA
ENCODING 1226
SWIDTH 680 0
DWIDTH 17 0
BBX 15 16 1 -4
BITMAP
8484
FCFC
7878
7878
7878
7FF8
7FF8
7878
7878
7878
FCFC
FCFE
000E
000E
000C
0018
ENDCHAR
STARTCHAR 04CB
ENCODING 1227
SWIDTH 720 0
DWIDTH 18 0
BBX 16 21 1 -4
BITMAP
FE7F
FE7F
781E
381E
381E
381E
3C1E
3C1E
3E3E
1FFE
001E
001E
001E
001E
003E
00FF
01FF
01C0
01C0
00C0
00C0
ENDCHAR
STARTCHAR 04CC
ENCODING 1228
SWIDTH 560 0
DWIDTH 14 0
BBX 14 16 0 -4
BITMAP
C484
FCFC
7878
3878
3878
3C78
3FF8
0FF8
0078
0078
01FC
03FC
0380
0380
0380
0380
ENDCHAR
STARTCHAR 04CD
ENCODING 1229
SWIDTH 1000 0
DWIDTH 25 0
BBX 24 21 1 -4
BITMAP
7C00FC
7E00F8
3E01F0
1F01F0
3F03F0
3F83F0
3782F0
3786F0
33C6F0
33C4F0
31EC70
21E878
21F878
20F878
60F078
F871FC
F861FF
00000F
00000E
00000E
00001C
ENDCHAR
STARTCHAR 04CE
ENCODING 1230
SWIDTH 760 0
DWIDTH 19 0
BBX 19 16 0 -4
BITMAP
400040
7E0F80
1E0F00
1F1F00
1F1700
17B700
37A700
33E780
33C780
31C780
79CFC0
F88FE0
0000E0
0000E0
0001C0
000180
ENDCHAR
STARTCHAR 04CF
ENCODING 1231
SWIDTH 320 0
DWIDTH 8 0
BBX 7 18 1 0
BITMAP
18
F8
F8
78
38
38
38
38
38
38
38
38
38
38
38
78
FE
FE
ENDCHAR
STARTCHAR 04D0
ENCODING 1232
SWIDTH 680 0
DWIDTH 17 0
BBX 17 22 0 0
BITMAP
1C1C00
0E1C00
0FF800
03E000
000000
00C000
01C000
01C000
03E000
03E000
02F000
06F000
047800
0C7800
0C3C00
083C00
1FFE00
181E00
301E00
300F00
781F80
F83F80
ENDCHAR
STARTCHAR 04D1
ENCODING 1233
SWIDTH 520 0
DWIDTH 13 0
BBX 11 17 2 0
BITMAP
E380
E380
7700
3E00
0000
0E00
3F80
6780
E3C0
E3C0
07C0
1FC0
F3C0
E3C0
E3C0
F7E0
7BE0
ENDCHAR
STARTCHAR 04D2
ENCODING 1234
SWIDTH 680 0
DWIDTH 17 0
BBX 17 22 0 0
BITMAP
061000
0F3800
0F3800
063800
000000
00C000
01C000
01C000
03E000
03E000
02F000
06F000
047800
0C7800
0C3C00
083C00
1FFE00
181E00
301E00
300F00
781F80
F83F80
ENDCHAR
STARTCHAR 04D3
ENCODING 1235
SWIDTH 520 0
DWIDTH 13 0
BBX 11 16 2 0
BITMAP
E780
E780
E380
0000
0E00
3F80
6780
E3C0
E3C0
07C0
1FC0
F3C0
E3C0
E3C0
F7E0
7BE0
ENDCHAR
STARTCHAR 04D4
ENCODING 1236
SWIDTH 920 0
DWIDTH 23 0
BBX 23 17 0 0
BITMAP
00FFFC
00FFFC
006E0C
007E0C
00DE08
009E00
019E30
011E30
03FFF0
07FFF0
061E30
0C1E30
081E04
181E06
381E0E
7C3FFE
FC3FFE
ENDCHAR
STARTCHAR 04D5
ENCODING 1237
SWIDTH 720 0
DWIDTH 18 0
BBX 16 12 1 0
BITMAP
1C18
7FFE
63C7
63C7
23C7
0FFF
7FFF
F3C0
E3C0
E3E1
FEFF
7C7E
ENDCHAR
STARTCHAR 04D6
ENCODING 1238
SWIDTH 600 0
DWIDTH 15 0
BBX 14 22 1 0
BITMAP
3070
3870
1FE0
0F80
0000
FFF8
FFF8
3C38
3C18
3C10
3C00
3C40
3CC0
3FC0
3DC0
3C40
3C00
3C08
3C0C
3C1C
FFF8
FFF8
ENDCHAR
STARTCHAR 04D7
ENCODING 1239
SWIDTH 480 0
DWIDTH 12 0
BBX 11 17 1 0
BITMAP
71C0
71C0
3B80
1F00
0000
0600
3F80
71C0
F1E0
F1E0
FFE0
FFE0
F000
F000
7800
7FE0
1F80
ENDCHAR
STARTCHAR 04D8
ENCODING 1240
SWIDTH 640 0
DWIDTH 16 0
BBX 15 17 1 0
BITMAP
3FC0
79F0
6078
603C
603C
001E
001E
001E
FFFE
FFFE
F01E
F01C
F01C
703C
7838
3EF0
0FC0
ENDCHAR
STARTCHAR 04D9
ENCODING 1241
SWIDTH 480 0
DWIDTH 12 0
BBX 11 12 1 0
BITMAP
3E00
FF80
E3C0
C1C0
01E0
01E0
FFE0
E1E0
E1E0
F1C0
7B80
3F00
ENDCHAR
STARTCHAR 04DA
ENCODING 1242
SWIDTH 640 0
DWIDTH 16 0
BBX 15 22 1 0
BITMAP
0820
1CF0
1CF0
1C60
0000
3FC0
79F0
6078
603C
603C
001E
001E
001E
FFFE
FFFE
F01E
F01C
F01C
703C
7838
3EF0
0FC0
ENDCHAR
STARTCHAR 04DB
ENCODING 1243
SWIDTH 480 0
DWIDTH 12 0
BBX 11 16 1 0
BITMAP
73C0
73C0
71C0
0000
3E00
FF80
E3C0
C1C0
01E0
01E0
FFE0
E1E0
E1E0
F1C0
7B80
3F00
ENDCHAR
STARTCHAR 04DC
ENCODING 1244
SWIDTH 1040 0
DWIDTH 26 0
BBX 26 22 0 0
BITMAP
00610000
00F3C000
00F3C000
00618000
00000000
7E7F9F80
7E3F1F80
0C1E0C00
061E1800
031E3000
019E7000
019E6000
01DEE000
03DEF000
03DEF000
079E7800
079E7800
0F1E3C00
1F1E3E00
3E1E1F00
FC3F0FC0
FC7F8FC0
ENDCHAR
STARTCHAR 04DD
ENCODING 1245
SWIDTH 840 0
DWIDTH 21 0
BBX 21 16 0 0
BITMAP
03CF00
03CF00
01CE00
000000
028400
7CFDF8
1878E0
0C78C0
067980
037B00
07FF80
0F7BC0
0F7BC0
1E79E0
7CFCF8
F8FC78
ENDCHAR
STARTCHAR 04DE
ENCODING 1246
SWIDTH 560 0
DWIDTH 14 0
BBX 13 22 1 0
BITMAP
3080
39E0
79E0
30C0
0000
3FC0
7FE0
70F0
60F0
60F0
00F0
01E0
0F80
0FC0
01F0
00F0
0078
E078
E070
E0F0
FBE0
3FC0
ENDCHAR
STARTCHAR 04DF
ENCODING 1247
SWIDTH 480 0
DWIDTH 12 0
BBX 10 16 1 0
BITMAP
73C0
F3C0
7180
0000
1C00
FF80
E3C0
C3C0
03C0
1F00
1F80
03C0
C1C0
C3C0
E3C0
FF00
ENDCHAR
STARTCHAR 04E0
ENCODING 1248
SWIDTH 560 0
DWIDTH 14 0
BBX 12 17 1 0
BITMAP
7FE0
7FE0
7FE0
70C0
E180
0300
0700
0F80
0FE0
0FF0
01F0
00F0
C0F0
E0F0
E0F0
FBE0
7F80
ENDCHAR
STARTCHAR 04E1
ENCODING 1249
SWIDTH 480 0
DWIDTH 12 0
BBX 11 18 1 -6
BITMAP
0040
7FC0
7FC0
7180
C380
4300
0600
0C00
1F00
1F80
07C0
03C0
01E0
C1E0
C1C0
E1C0
F780
7F00
ENDCHAR
STARTCHAR 04E2
ENCODING 1250
SWIDTH 760 0
DWIDTH 19 0
BBX 17 20 1 0
BITMAP
0FF800
000000
000000
FE0F80
FE0F80
3C1F00
3C3F00
3C3F00
3C6F00
3C6F00
3CCF00
3CCF00
3D8F00
3D8F00
3F0F00
3F0F00
3E0F00
3C0F00
FC3F80
F83F80
ENDCHAR
STARTCHAR 04E3
ENCODING 1251
SWIDTH 640 0
DWIDTH 16 0
BBX 14 16 1 0
BITMAP
3FF0
3FF0
0000
0000
8404
FC7C
7878
78F8
79F8
7978
7B78
7E78
7E78
7C78
F8FC
F8FC
ENDCHAR
STARTCHAR 04E4
ENCODING 1252
SWIDTH 760 0
DWIDTH 19 0
BBX 17 22 1 0
BITMAP
061000
0F3800
0F3800
063800
000000
FE0F80
FE0F80
3C1F00
3C3F00
3C3F00
3C6F00
3C6F00
3CCF00
3CCF00
3D8F00
3D8F00
3F0F00
3F0F00
3E0F00
3C0F00
FC3F80
F83F80
ENDCHAR
STARTCHAR 04E5
ENCODING 1253
SWIDTH 640 0
DWIDTH 16 0
BBX 14 16 1 0
BITMAP
3CF0
3CF0
1CE0
0000
8404
FC7C
7878
78F8
79F8
7978
7B78
7E78
7E78
7C78
F8FC
F8FC
ENDCHAR
STARTCHAR 04E6
ENCODING 1254
SWIDTH 720 0
DWIDTH 18 0
BBX 17 22 1 0
BITMAP
041000
0E7800
0E7800
0E3000
000000
07F000
1FFC00
381E00
781E00
700F00
F00F00
F00780
F00780
F00780
F00780
F00780
F00700
780F00
780E00
3C1E00
1F3C00
07F000
ENDCHAR
STARTCHAR 04E7
ENCODING 1255
SWIDTH 560 0
DWIDTH 14 0
BBX 12 16 1 0
BITMAP
79E0
79E0
39C0
0000
0600
3FC0
71E0
F0F0
F0F0
F070
F070
F070
F070
70F0
7DE0
1F80
ENDCHAR
STARTCHAR 04E8
ENCODING 1256
SWIDTH 720 0
DWIDTH 18 0
BBX 17 17 1 0
BITMAP
07F000
1FFC00
381E00
781E00
700F00
F00F00
F00780
F00780
FFFF80
F00780
F00780
F00700
780F00
780E00
3C1E00
1F7C00
07F000
ENDCHAR
STARTCHAR 04E9
ENCODING 1257
SWIDTH 560 0
DWIDTH 14 0
BBX 12 12 1 0
BITMAP
0600
3FC0
71E0
F0F0
F0F0
F070
FFF0
F070
F070
70F0
7DE0
1F80
ENDCHAR
STARTCHAR 04EA
ENCODING 1258
SWIDTH 720 0
DWIDTH 18 0
BBX 17 22 1 0
BITMAP
041000
0E7800
0E7800
0E3000
000000
07F000
1FFC00
381E00
781E00
700F00
F00F00
F00780
F00780
FFFF80
F00780
F00780
F00700
780F00
780E00
3C1E00
1F7C00
07F000
ENDCHAR
STARTCHAR 04EB
ENCODING 1259
SWIDTH 560 0
DWIDTH 14 0
BBX 12 16 1 0
BITMAP
79E0
79E0
39C0
0000
0600
3FC0
71E0
F0F0
F0F0
F070
FFF0
F070
F070
70F0
7DE0
1F80
ENDCHAR
STARTCHAR 04EC
ENCODING 1260
SWIDTH 600 0
DWIDTH 15 0
BBX 14 22 1 0
BITMAP
3080
39E0
79E0
30C0
0000
3FC0
7BE0
60F0
6078
6038
003C
003C
003C
1FFC
103C
003C
003C
C038
C078
E070
F1E0
3FC0
ENDCHAR
STARTCHAR 04ED
ENCODING 1261
SWIDTH 440 0
DWIDTH 11 0
BBX 11 16 0 0
BITMAP
F3C0
F3C0
7380
0000
0C00
7F80
63C0
61E0
01E0
01E0
1FE0
01E0
61E0
61C0
7780
7F00
ENDCHAR
STARTCHAR 04EE
ENCODING 1262
SWIDTH 640 0
DWIDTH 16 0
BBX 17 20 0 0
BITMAP
07FC00
000000
000000
FF0F80
7E0F00
3C0600
1E0600
1E0C00
0F0C00
079800
079800
03F000
03F000
01E000
01E000
00C000
01C000
3F8000
3F0000
1E0000
ENDCHAR
STARTCHAR 04EF
ENCODING 1263
SWIDTH 560 0
DWIDTH 14 0
BBX 14 22 0 -6
BITMAP
1FF8
1FF0
0000
0000
C244
FE7C
7C38
3C30
1E30
1E60
0E60
0F40
0FC0
0780
0780
0380
0300
0300
0600
7E00
7C00
7800
ENDCHAR
STARTCHAR 04F0
ENCODING 1264
SWIDTH 640 0
DWIDTH 16 0
BBX 17 22 0 0
BITMAP
020800
073C00
073C00
071C00
000000
FF0F80
7E0F00
3C0600
1E0600
1E0C00
0F0C00
079800
079800
03F000
03F000
01E000
01E000
00C000
01C000
3F8000
3F0000
1E0000
ENDCHAR
STARTCHAR 04F1
ENCODING 1265
SWIDTH 560 0
DWIDTH 14 0
BBX 14 22 0 -6
BITMAP
1E78
1E78
0E70
0000
C244
FE7C
7C38
3C30
1E30
1E60
0E60
0F40
0FC0
0780
0780
0380
0300
0300
0600
7E00
7C00
7800
ENDCHAR
STARTCHAR 04F2
ENCODING 1266
SWIDTH 640 0
DWIDTH 16 0
BBX 17 22 0 0
BITMAP
01CE00
019C00
039800
010000
000000
FF0F80
7E0F00
3C0600
1E0600
1E0C00
0F0C00
079800
079800
03F000
03F000
01E000
01E000
00C000
01C000
3F8000
3F0000
1E0000
ENDCHAR
STARTCHAR 04F3
ENCODING 1267
SWIDTH 560 0
DWIDTH 14 0
BBX 14 24 0 -6
BITMAP
039C
0338
0730
0660
0460
0000
C244
FE7C
7C38
3C30
1E30
1E60
0E60
0F40
0FC0
0780
0780
0380
0300
0300
0600
7E00
7C00
7800
ENDCHAR
STARTCHAR 04F4
ENCODING 1268
SWIDTH 720 0
DWIDTH 18 0
BBX 16 22 1 0
BITMAP
0C20
1E78
1E78
0C30
0000
FE7F
FE7F
781E
381E
381E
381E
3C1E
3C1E
3E3E
1FFE
001E
001E
001E
001E
001E
007F
00FF
ENDCHAR
STARTCHAR 04F5
ENCODING 1269
SWIDTH 560 0
DWIDTH 14 0
BBX 14 16 0 0
BITMAP
1CF0
3CF0
1C60
0000
C484
FCFC
7878
3878
3878
3C78
3FF8
0FF8
0078
0078
01FC
01FC
ENDCHAR
STARTCHAR 04F6
ENCODING 1270
SWIDTH 560 0
DWIDTH 14 0
BBX 13 21 1 -4
BITMAP
FFF0
FFF8
3C38
3C18
3C10
3C00
3C00
3C00
3C00
3C00
3C00
3C00
3C00
3C00
3C00
FF00
FF80
0380
0380
0180
0180
ENDCHAR
STARTCHAR 04F7
ENCODING 1271
SWIDTH 480 0
DWIDTH 12 0
BBX 11 16 1 -4
BITMAP
C000
FFC0
78C0
7860
7840
7800
7800
7800
7800
7800
FE00
FF00
0700
0700
0700
0700
ENDCHAR
STARTCHAR 04F8
ENCODING 1272
SWIDTH 920 0
DWIDTH 23 0
BBX 22 22 1 0
BITMAP
008200
01CF00
01CF00
018600
000000
FF03FC
FF03F8
3C00F0
3C00F0
3C00F0
3C00F0
3C00F0
3F80F0
3FF0F0
3C78F0
3C7CF0
3C3CF0
3C3CF0
3C3CF0
3C78F0
FEF1F8
FFE3FC
ENDCHAR
STARTCHAR 04F9
ENCODING 1273
SWIDTH 800 0
DWIDTH 20 0
BBX 19 16 1 0
BITMAP
073C00
07BC00
071C00
000000
820420
FE07E0
7803C0
7803C0
7803C0
7FC3C0
79E3C0
78F3C0
78F3C0
78F3C0
FFE7E0
FFC7E0
ENDCHAR
STARTCHAR 04FA
ENCODING 1274
SWIDTH 560 0
DWIDTH 14 0
BBX 14 23 0 -6
BITMAP
7FF8
7FFC
1E1C
1E0C
1E08
1E00
1E00
1E00
FFE0
FFE0
1E00
1E00
1E00
1E00
1E00
7F80
7FE0
01E0
01E0
01C0
03C0
0780
0600
ENDCHAR
STARTCHAR 04FB
ENCODING 1275
SWIDTH 480 0
DWIDTH 12 0
BBX 12 18 0 -6
BITMAP
6000
7FE0
3C60
3C30
3C20
3C00
FF80
3C00
3C00
3C00
7F00
7F80
03C0
03C0
0380
0780
0F00
1C00
ENDCHAR
STARTCHAR 04FC
ENCODING 1276
SWIDTH 680 0
DWIDTH 17 0
BBX 16 23 1 -6
BITMAP
FE3E
FE3E
3C18
3E18
1F30
0F60
07E0
07C0
03E0
03E0
06F0
0CF8
187C
183C
301E
F81E
FC0F
000F
000E
000E
001C
0038
0030
ENDCHAR
STARTCHAR 04FD
ENCODING 1277
SWIDTH 560 0
DWIDTH 14 0
BBX 13 17 1 -5
BITMAP
FCF0
7C60
3CC0
1F80
0F00
0F80
0FC0
1BE0
31E0
F0F0
F870
0078
0070
0070
0070
00E0
00C0
ENDCHAR
STARTCHAR 04FE
ENCODING 1278
SWIDTH 680 0
DWIDTH 17 0
BBX 16 17 1 0
BITMAP
FF3E
FE3E
3E1C
3E18
1F30
0F20
0FE0
07C0
7FFE
03E0
07E0
0CF0
18F8
1878
307C
F8FE
FCFF
ENDCHAR
STARTCHAR 04FF
ENCODING 1279
SWIDTH 560 0
DWIDTH 14 0
BBX 12 12 1 0
BITMAP
0200
FEF0
7CE0
3CC0
1F80
FFF0
FFF0
1F80
33C0
33E0
F3F0
F3F0
ENDCHAR
STARTCHAR 0510
ENCODING 1296
SWIDTH 560 0
DWIDTH 14 0
BBX 13 17 1 0
BITMAP
1FE0
3FF0
7870
7870
7830
7800
3C00
1F80
1F80
7C00
7800
F000
F038
F030
F870
7EF0
1FE0
ENDCHAR
STARTCHAR 0511
ENCODING 1297
SWIDTH 440 0
DWIDTH 11 0
BBX 10 12 1 0
BITMAP
0F00
7FC0
F1C0
F0C0
7000
3E00
3E00
F000
F080
F0C0
F9C0
3FC0
ENDCHAR
STARTCHAR 0512
ENCODING 1298
SWIDTH 680 0
DWIDTH 17 0
BBX 17 23 0 -6
BITMAP
1FFF80
1FFF00
061E00
061E00
061E00
061E00
061E00
061E00
061E00
061E00
041E00
041E00
0C1E00
1C1E00
FC1E00
F81E00
F01E00
001C00
001C00
003C00
003800
007000
006000
ENDCHAR
STARTCHAR 0513
ENCODING 1299
SWIDTH 560 0
DWIDTH 14 0
BBX 14 18 0 -6
BITMAP
180C
1FFC
0478
0478
0478
0478
0C78
0C78
0878
F878
F878
F078
0070
0070
00F0
00E0
01C0
0180
ENDCHAR
STARTCHAR 051A
ENCODING 1306
SWIDTH 720 0
DWIDTH 18 0
BBX 18 22 1 -5
BITMAP
07F000
1FFC00
381E00
781E00
700F00
F00F00
F00780
F00780
F00780
F00780
F00780
F00700
780F00
780E00
3C1E00
1F3C00
07F000
007800
001E00
000FC0
000FC0
000700
ENDCHAR
STARTCHAR 051B
ENCODING 1307
SWIDTH 560 0
DWIDTH 14 0
BBX 14 18 1 -6
BITMAP
0300
1FF0
78F0
70F0
F0F0
F0F0
F0F0
F0F0
F0F0
F0F0
7FF0
3EF0
00F0
00F0
00F0
00F0
01F8
03FC
ENDCHAR
STARTCHAR 051C
ENCODING 1308
SWIDTH 960 0
DWIDTH 24 0
BBX 24 17 0 0
BITMAP
FF0C1F
7F0E1F
3C0E06
3C1F06
3E1F04
1E1F0C
1E378C
1E3788
0F2788
0F63D8
0F63D0
07C3F0
07C1F0
07C1F0
0380E0
0380E0
0380E0
ENDCHAR
STARTCHAR 051D
ENCODING 1309
SWIDTH 760 0
DWIDTH 19 0
BBX 19 12 0 0
BITMAP
C63120
FE31E0
7C78C0
3C78C0
3C7880
1CFC80
1E9D80
1F9F00
0F9F00
0F0F00
0F0E00
060600
ENDCHAR
STARTCHAR 0524
ENCODING 1316
SWIDTH 800 0
DWIDTH 20 0
BBX 19 21 1 -4
BITMAP
FFFF80
FFFF80
3C0E00
3C0E00
3C0E00
3C0E00
3C0E00
3C0E00
3C0E00
3C0E00
3C0E00
3C0E00
3C0E00
3C0E00
3C1E00
FE3F80
FE3FE0
0000E0
0000C0
0000C0
0000C0
ENDCHAR
STARTCHAR 0525
ENCODING 1317
SWIDTH 680 0
DWIDTH 17 0
BBX 16 16 1 -4
BITMAP
800C
FFFC
7878
7878
7878
7878
7878
7878
7878
7878
FCFC
FCFF
0007
0007
0006
0006
ENDCHAR
STARTCHAR 0526
ENCODING 1318
SWIDTH 760 0
DWIDTH 19 0
BBX 18 21 1 -4
BITMAP
FF0000
FF0000
3C0000
3C0000
3C0000
3C0000
3C0000
3FF800
3E7C00
3C3C00
3C1E00
3C1E00
3C1E00
3C1E00
3C1E00
FE3F00
FE7FC0
0001C0
0001C0
0001C0
0001C0
ENDCHAR
STARTCHAR 0527
ENCODING 1319
SWIDTH 680 0
DWIDTH 17 0
BBX 16 22 1 -4
BITMAP
1800
F800
F800
7800
3800
3800
3880
3BF0
3FF8
3878
3878
3878
3878
3878
3878
7878
FCFC
FEFF
0007
0007
0007
0007
ENDCHAR
STARTCHAR 0528
ENCODING 1320
SWIDTH 760 0
DWIDTH 19 0
BBX 17 23 1 -6
BITMAP
FE3F80
FE3F80
3C0F00
3C0F00
3C0F00
3C0F00
3C0F00
3C0F00
3FFF00
3C0F00
3C0F00
3C0F00
3C0F00
3C0F00
3C0F00
3C3F80
3C3F80
380000
380000
780000
700000
E00000
C00000
ENDCHAR
STARTCHAR 0529
ENCODING 1321
SWIDTH 640 0
DWIDTH 16 0
BBX 15 18 1 -6
BITMAP
8686
FEFE
7878
3878
3838
3FF8
3FF8
3838
3838
3878
38FC
38FE
3800
7800
7000
E000
E000
8000
ENDCHAR
STARTCHAR 052E
ENCODING 1326
SWIDTH 720 0
DWIDTH 18 0
BBX 18 21 0 -4
BITMAP
1FFF80
1FFF00
061E00
061E00
061E00
061E00
061E00
061E00
061E00
061E00
041E00
041E00
0C1E00
1C1E00
FC1E00
F83F00
F07FC0
0001C0
0001C0
0001C0
0001C0
ENDCHAR
STARTCHAR 052F
ENCODING 1327
SWIDTH 600 0
DWIDTH 15 0
BBX 15 16 0 -4
BITMAP
1804
1FFC
0C78
0C70
0C70
0C70
0C70
0870
1870
F870
F0FC
F1FE
000E
0006
0006
0006
ENDCHAR
STARTCHAR 058F
ENCODING 1423
SWIDTH 600 0
DWIDTH 15 0
BBX 14 17 1 0
BITMAP
1F00
7FC0
F1C0
E1E0
E1E0
E1E0
01E0
1FFC
1FFC
01E0
01E0
1FFC
01E0
01E0
01E0
07F0
07F8
ENDCHAR
STARTCHAR 1E08
ENCODING 7688
SWIDTH 640 0
DWIDTH 16 0
BBX 14 28 1 -6
BITMAP
00E0
00E0
01C0
0180
0000
07F0
1F7C
3C1C
781C
700C
F000
F000
F000
F000
F000
F000
F000
7800
7C00
3E04
1FFC
07F0
0180
0380
01C0
00C0
00C0
0380
ENDCHAR
STARTCHAR 1E09
ENCODING 7689
SWIDTH 440 0
DWIDTH 11 0
BBX 10 24 1 -6
BITMAP
0380
0300
0700
0600
0400
0000
0F00
3FC0
71C0
F1C0
F080
E000
E000
F000
F000
7840
7FC0
1F80
0400
0E00
0F00
0300
0300
0E00
ENDCHAR
STARTCHAR 1E0C
ENCODING 7692
SWIDTH 720 0
DWIDTH 18 0
BBX 16 23 1 -6
BITMAP
FFE0
FFFC
3C3E
3C1E
3C0F
3C0F
3C0F
3C07
3C07
3C07
3C07
3C0F
3C0F
3C0E
3C1C
FFF8
FFE0
0000
0000
0380
0780
0780
0300
ENDCHAR
STARTCHAR 1E0D
ENCODING 7693
SWIDTH 600 0
DWIDTH 15 0
BBX 14 24 1 -6
BITMAP
0030
01F0
01F0
00F0
0070
0070
0370
1FF0
78F0
7070
F070
F070
F070
F070
F070
F878
7FFC
3E70
0000
0000
0700
0F80
0780
0200
ENDCHAR
STARTCHAR 1E0E
ENCODING 7694
SWIDTH 720 0
DWIDTH 18 0
BBX 16 21 1 -4
BITMAP
FFE0
FFFC
3C3E
3C1E
3C0F
3C0F
3C0F
3C07
3C07
3C07
3C07
3C0F
3C0F
3C0E
3C1C
FFF8
FFE0
0000
0000
0000
1FF0
ENDCHAR
STARTCHAR 1E0F
ENCODING 7695
SWIDTH 600 0
DWIDTH 15 0
BBX 14 22 1 -4
BITMAP
0030
01F0
01F0
00F0
0070
0070
0370
1FF0
78F0
7070
F070
F070
F070
F070
F070
F878
7FFC
3E70
0000
0000
0000
3FE0
ENDCHAR
STARTCHAR 1E10
ENCODING 7696
SWIDTH 720 0
DWIDTH 18 0
BBX 16 24 1 -7
BITMAP
FFE0
FFFC
3C3E
3C1E
3C0F
3C0F
3C0F
3C07
3C07
3C07
3C07
3C0F
3C0F
3C0E
3C1C
FFF8
FFE0
0000
0180
0780
0780
0380
0300
0300
ENDCHAR
STARTCHAR 1E11
ENCODING 7697
SWIDTH 600 0
DWIDTH 15 0
BBX 14 25 1 -7
BITMAP
0030
01F0
01F0
00F0
0070
0070
0370
1FF0
78F0
7070
F070
F070
F070
F070
F070
F878
7FFC
3E70
0000
0300
0700
0F00
0300
0300
0600
ENDCHAR
STARTCHAR 1E14
ENCODING 7700
SWIDTH 600 0
DWIDTH 15 0
BBX 14 25 1 0
BITMAP
0E00
0600
0700
0000
0000
3FE0
0000
0000
FFF8
FFF8
3C38
3C18
3C10
3C00
3C40
3CC0
3FC0
3DC0
3C40
3C00
3C08
3C0C
3C1C
FFF8
FFF8
ENDCHAR
STARTCHAR 1E15
ENCODING 7701
SWIDTH 480 0
DWIDTH 12 0
BBX 11 20 1 0
BITMAP
3C00
1C00
0E00
0400
0000
7FC0
7800
0000
0600
3F80
71C0
F1E0
F1E0
FFE0
FFE0
F000
F000
7800
7FE0
1F80
ENDCHAR
STARTCHAR 1E16
ENCODING 7702
SWIDTH 600 0
DWIDTH 15 0
BBX 14 26 1 0
BITMAP
0080
0380
0300
0700
0000
0000
3FE0
0000
0000
FFF8
FFF8
3C38
3C18
3C10
3C00
3C40
3CC0
3FC0
3DC0
3C40
3C00
3C08
3C0C
3C1C
FFF8
FFF8
ENDCHAR
STARTCHAR 1E17
ENCODING 7703
SWIDTH 480 0
DWIDTH 12 0
BBX 11 20 1 0
BITMAP
0380
0700
0600
0000
0000
7FC0
7800
0000
0600
3F80
71C0
F1E0
F1E0
FFE0
FFE0
F000
F000
7800
7FE0
1F80
ENDCHAR
STARTCHAR 1E1C
ENCODING 7708
SWIDTH 600 0
DWIDTH 15 0
BBX 14 28 1 -6
BITMAP
3060
3CE0
1FC0
0F80
0000
FFF8
FFF8
3C38
3C18
3C10
3C00
3C40
3CC0
3FC0
3DC0
3C40
3C00
3C08
3C0C
3C1C
FFF8
FFF8
0200
0700
0780
0180
0180
0700
ENDCHAR
STARTCHAR 1E1D
ENCODING 7709
SWIDTH 480 0
DWIDTH 12 0
BBX 11 24 1 -6
BITMAP
6040
60C0
79C0
3F80
1F00
0000
0600
3F80
71C0
F1E0
F1E0
FFE0
FFE0
F000
F000
7800
7FE0
1F80
0400
0E00
0F00
0300
0300
0E00
ENDCHAR
STARTCHAR 1E20
ENCODING 7712
SWIDTH 680 0
DWIDTH 17 0
BBX 16 20 1 0
BITMAP
0FF8
0000
0000
07F8
1F3E
3C0C
780C
700C
F000
F000
F000
F000
F07F
F03E
F01E
781E
781E
3C1E
1F7E
07F8
ENDCHAR
STARTCHAR 1E21
ENCODING 7713
SWIDTH 520 0
DWIDTH 13 0
BBX 12 22 1 -6
BITMAP
7FC0
7FC0
0000
0000
0E00
7FF0
71C0
F1E0
F1E0
F1E0
71C0
3F80
6400
6000
FFC0
7FE0
7FF0
E0F0
E070
E0E0
FBC0
7F00
ENDCHAR
STARTCHAR 1E24
ENCODING 7716
SWIDTH 760 0
DWIDTH 19 0
BBX 17 23 1 -6
BITMAP
FE3F80
FE3F80
3C0F00
3C0F00
3C0F00
3C0F00
3C0F00
3C0F00
3FFF00
3C0F00
3C0F00
3C0F00
3C0F00
3C0F00
3C0F00
FE3F80
FE3F80
000000
000000
01C000
01E000
01E000
008000
ENDCHAR
STARTCHAR 1E25
ENCODING 7717
SWIDTH 640 0
DWIDTH 16 0
BBX 14 24 1 -6
BITMAP
1800
F800
F800
7800
3800
3800
3880
3BF0
3FF8
3878
3878
3878
3878
3878
3878
7878
FCFC
FEFC
0000
0000
0380
0780
0780
0300
ENDCHAR
STARTCHAR 1E2A
ENCODING 7722
SWIDTH 760 0
DWIDTH 19 0
BBX 17 22 1 -5
BITMAP
FE3F80
FE3F80
3C0F00
3C0F00
3C0F00
3C0F00
3C0F00
3C0F00
3FFF00
3C0F00
3C0F00
3C0F00
3C0F00
3C0F00
3C0F00
FE3F80
FE3F80
000000
061800
061800
07F000
03E000
ENDCHAR
STARTCHAR 1E2B
ENCODING 7723
SWIDTH 640 0
DWIDTH 16 0
BBX 14 23 1 -5
BITMAP
1800
F800
F800
7800
3800
3800
3880
3BF0
3FF8
3878
3878
3878
3878
3878
3878
7878
FCFC
FEFC
0000
1820
1C60
0FE0
07C0
ENDCHAR
STARTCHAR 1E2E
ENCODING 7726
SWIDTH 360 0
DWIDTH 9 0
BBX 8 26 1 0
BITMAP
0E
1C
18
30
00
EF
EF
E6
00
FE
FE
3C
3C
3C
3C
3C
3C
3C
3C
3C
3C
3C
3C
3C
FE
FE
ENDCHAR
STARTCHAR 1E2F
ENCODING 7727
SWIDTH 320 0
DWIDTH 8 0
BBX 9 20 0 0
BITMAP
0E00
0C00
1800
0000
6700
F780
F700
0000
0400
7C00
7C00
1C00
1C00
1C00
1C00
1C00
1C00
1C00
7F00
7F00
ENDCHAR
STARTCHAR 1E36
ENCODING 7734
SWIDTH 600 0
DWIDTH 15 0
BBX 14 23 1 -6
BITMAP
FE00
FE00
3C00
3C00
3C00
3C00
3C00
3C00
3C00
3C00
3C00
3C00
3C08
3C1C
3C18
FFF8
FFF8
0000
0000
0700
0780
0780
0200
ENDCHAR
STARTCHAR 1E37
ENCODING 7735
SWIDTH 320 0
DWIDTH 8 0
BBX 7 24 1 -6
BITMAP
18
F8
F8
78
38
38
38
38
38
38
38
38
38
38
38
78
FE
FE
00
00
38
78
78
30
ENDCHAR
STARTCHAR 1E3A
ENCODING 7738
SWIDTH 600 0
DWIDTH 15 0
BBX 14 21 1 -4
BITMAP
FE00
FE00
3C00
3C00
3C00
3C00
3C00
3C00
3C00
3C00
3C00
3C00
3C08
3C1C
3C18
FFF8
FFF8
0000
0000
0000
3FE0
ENDCHAR
STARTCHAR 1E3B
ENCODING 7739
SWIDTH 320 0
DWIDTH 8 0
BBX 8 22 0 -4
BITMAP
0C
7C
7C
3C
1C
1C
1C
1C
1C
1C
1C
1C
1C
1C
1C
3C
7F
7F
00
00
00
FF
ENDCHAR
STARTCHAR 1E42
ENCODING 7746
SWIDTH 960 0
DWIDTH 24 0
BBX 23 23 1 -6
BITMAP
7C00FC
7E00F8
3E01F0
1F01F0
3F03F0
3F83F0
3782F0
3786F0
33C6F0
33C4F0
31EC70
21E878
21F878
20F878
60F078
F871FC
F861FE
000000
000000
007000
00F000
00F000
006000
ENDCHAR
STARTCHAR 1E43
ENCODING 7747
SWIDTH 960 0
DWIDTH 24 0
BBX 22 18 1 -6
BITMAP
08C000
FBF3F0
FFFFF0
387878
387878
383878
383878
383878
383878
387878
FEFCFC
FEFEFC
000000
000000
003800
007800
007800
003000
ENDCHAR
STARTCHAR 1E44
ENCODING 7748
SWIDTH 720 0
DWIDTH 18 0
BBX 16 21 1 1
BITMAP
03C0
03C0
01C0
0000
F81F
FC1F
3E06
3E06
3F06
3F86
37C6
33C6
33E6
31F6
30FE
307E
307E
303E
301E
F80E
F80E
ENDCHAR
STARTCHAR 1E45
ENCODING 7749
SWIDTH 640 0
DWIDTH 16 0
BBX 15 17 1 0
BITMAP
0100
0780
0780
0380
0000
0800
FBF0
FFF8
3878
3838
3838
3838
3838
3838
3878
FCFC
FEFE
ENDCHAR
STARTCHAR 1E46
ENCODING 7750
SWIDTH 720 0
DWIDTH 18 0
BBX 16 23 1 -6
BITMAP
F81F
FC1F
3E06
3E06
3F06
3F86
37C6
33C6
33E6
31F6
30FE
307E
307E
303E
301E
F80E
F80E
0000
0000
01C0
01E0
01E0
00C0
ENDCHAR
STARTCHAR 1E47
ENCODING 7751
SWIDTH 640 0
DWIDTH 16 0
BBX 15 18 1 -6
BITMAP
0800
FBF0
FFF8
3878
3838
3838
3838
3838
3838
3878
FCFC
FEFE
0000
0000
0380
0780
0780
0300
ENDCHAR
STARTCHAR 1E48
ENCODING 7752
SWIDTH 720 0
DWIDTH 18 0
BBX 16 21 1 -4
BITMAP
F81F
FC1F
3E06
3E06
3F06
3F86
37C6
33C6
33E6
31F6
30FE
307E
307E
303E
301E
F80E
F80E
0000
0000
0000
0FF8
ENDCHAR
STARTCHAR 1E49
ENCODING 7753
SWIDTH 640 0
DWIDTH 16 0
BBX 15 16 1 -4
BITMAP
0800
FBF0
FFF8
3878
3838
3838
3838
3838
3838
3878
FCFC
FEFE
0000
0000
0000
1FF0
ENDCHAR
STARTCHAR 1E4C
ENCODING 7756
SWIDTH 720 0
DWIDTH 18 0
BBX 17 27 1 0
BITMAP
002000
00E000
00C000
018000
000000
030000
0FF800
0DF000
000000
000000
07F000
1FFC00
381E00
781E00
700F00
F00F00
F00780
F00780
F00780
F00780
F00780
F00700
780F00
780E00
3C1E00
1F3C00
07F000
ENDCHAR
STARTCHAR 1E4D
ENCODING 7757
SWIDTH 560 0
DWIDTH 14 0
BBX 12 21 1 0
BITMAP
0380
0300
0600
0600
0000
3E60
7FC0
0380
0000
0600
3FC0
71E0
F0F0
F0F0
F070
F070
F070
F070
70F0
7DE0
1F80
ENDCHAR
STARTCHAR 1E4E
ENCODING 7758
SWIDTH 720 0
DWIDTH 18 0
BBX 17 26 1 0
BITMAP
0E3800
0E7800
0E7800
000000
030000
0FF800
0DF000
000000
000000
07F000
1FFC00
381E00
781E00
700F00
F00F00
F00780
F00780
F00780
F00780
F00780
F00700
780F00
780E00
3C1E00
1F3C00
07F000
ENDCHAR
STARTCHAR 1E4F
ENCODING 7759
SWIDTH 560 0
DWIDTH 14 0
BBX 12 21 1 0
BITMAP
3080
79E0
79E0
30C0
0000
3E60
7FC0
0380
0000
0600
3FC0
71E0
F0F0
F0F0
F070
F070
F070
F070
70F0
7DE0
1F80
ENDCHAR
STARTCHAR 1E50
ENCODING 7760
SWIDTH 720 0
DWIDTH 18 0
BBX 17 25 1 0
BITMAP
030000
038000
018000
000000
000000
0FF800
000000
000000
07F000
1FFC00
381E00
781E00
700F00
F00F00
F00780
F00780
F00780
F00780
F00780
F00700
780F00
780E00
3C1E00
1F3C00
07F000
ENDCHAR
STARTCHAR 1E51
ENCODING 7761
SWIDTH 560 0
DWIDTH 14 0
BBX 12 20 1 0
BITMAP
1C00
0C00
0600
0400
0000
7FE0
7800
0000
0600
3FC0
71E0
F0F0
F0F0
F070
F070
F070
F070
70F0
7DE0
1F80
ENDCHAR
STARTCHAR 1E52
ENCODING 7762
SWIDTH 720 0
DWIDTH 18 0
BBX 17 26 1 0
BITMAP
002000
00E000
00C000
018000
000000
000000
0FF800
000000
000000
07F000
1FFC00
381E00
781E00
700F00
F00F00
F00780
F00780
F00780
F00780
F00780
F00700
780F00
780E00
3C1E00
1F3C00
07F000
ENDCHAR
STARTCHAR 1E53
ENCODING 7763
SWIDTH 560 0
DWIDTH 14 0
BBX 12 20 1 0
BITMAP
0380
0300
0600
0600
0000
7FE0
7800
0000
0600
3FC0
71E0
F0F0
F0F0
F070
F070
F070
F070
70F0
7DE0
1F80
ENDCHAR
STARTCHAR 1E5A
ENCODING 7770
SWIDTH 680 0
DWIDTH 17 0
BBX 16 23 1 -6
BITMAP
FFE0
FFF8
3C3C
3C3C
3C3C
3C3C
3C3C
3C78
3FF0
3FE0
3DF0
3CF0
3C78
3C7C
3C3C
FE3F
FE1F
0000
0000
01C0
03C0
03C0
0080
ENDCHAR
STARTCHAR 1E5B
ENCODING 7771
SWIDTH 440 0
DWIDTH 11 0
BBX 10 18 1 -6
BITMAP
0800
FBC0
FFC0
3CC0
38C0
3800
3800
3800
3800
3C00
FE00
FF00
0000
0000
3C00
3C00
3C00
1000
ENDCHAR
STARTCHAR 1E5E
ENCODING 7774
SWIDTH 680 0
DWIDTH 17 0
BBX 16 21 1 -4
BITMAP
FFE0
FFF8
3C3C
3C3C
3C3C
3C3C
3C3C
3C78
3FF0
3FE0
3DF0
3CF0
3C78
3C7C
3C3C
FE3F
FE1F
0000
0000
0000
0FF8
ENDCHAR
STARTCHAR 1E5F
ENCODING 7775
SWIDTH 440 0
DWIDTH 11 0
BBX 11 16 0 -4
BITMAP
0400
7DE0
7FE0
1E60
1C60
1C00
1C00
1C00
1C00
1E00
7F00
7F80
0000
0000
0000
FF80
ENDCHAR
STARTCHAR 1E60
ENCODING 7776
SWIDTH 520 0
DWIDTH 13 0
BBX 12 22 1 0
BITMAP
0200
0F00
0F00
0F00
0000
1FC0
3FE0
70E0
70E0
7060
7800
7E00
7F80
3FC0
0FE0
03F0
01F0
E0F0
E070
E0F0
FBE0
3F80
ENDCHAR
STARTCHAR 1E61
ENCODING 7777
SWIDTH 440 0
DWIDTH 11 0
BBX 10 17 1 0
BITMAP
0800
1E00
1E00
1C00
0000
1E00
7F80
E380
E180
F800
7E00
3F80
0F80
C3C0
C3C0
F780
FF00
ENDCHAR
STARTCHAR 1E62
ENCODING 7778
SWIDTH 520 0
DWIDTH 13 0
BBX 12 23 1 -6
BITMAP
1FC0
3FE0
70E0
70E0
7060
7800
7E00
7F80
3FC0
0FE0
03F0
01F0
E0F0
E070
E0F0
FBE0
3F80
0000
0000
0700
0F00
0F00
0200
ENDCHAR
STARTCHAR 1E63
ENCODING 7779
SWIDTH 440 0
DWIDTH 11 0
BBX 10 18 1 -6
BITMAP
1E00
7F80
E380
E180
F800
7E00
3F80
0F80
C3C0
C3C0
F780
FF00
0000
0000
1C00
1E00
1E00
0800
ENDCHAR
STARTCHAR 1E64
ENCODING 7780
SWIDTH 520 0
DWIDTH 13 0
BBX 12 27 1 0
BITMAP
0200
0780
0F80
0700
0000
0380
0300
0600
0200
0000
1FC0
3FE0
70E0
70E0
7060
7800
7E00
7F80
3FC0
0FE0
03F0
01F0
E0F0
E070
E0F0
FBE0
3F80
ENDCHAR
STARTCHAR 1E65
ENCODING 7781
SWIDTH 440 0
DWIDTH 11 0
BBX 10 21 1 0
BITMAP
1E00
1E00
1E00
0000
0200
0F00
0C00
1C00
0000
1E00
7F80
E380
E180
F800
7E00
3F80
0F80
C3C0
C3C0
F780
FF00
ENDCHAR
STARTCHAR 1E66
ENCODING 7782
SWIDTH 520 0
DWIDTH 13 0
BBX 12 27 1 0
BITMAP
0600
0F00
0F00
0600
0000
30C0
3F80
0F00
0600
0000
1FC0
3FE0
70E0
70E0
7060
7800
7E00
7F80
3FC0
0FE0
03F0
01F0
E0F0
E070
E0F0
FBE0
3F80
ENDCHAR
STARTCHAR 1E67
ENCODING 7783
SWIDTH 440 0
DWIDTH 11 0
BBX 10 21 1 0
BITMAP
1E00
3E00
1C00
0000
4100
F780
3E00
1C00
0000
1E00
7F80
E380
E180
F800
7E00
3F80
0F80
C3C0
C3C0
F780
FF00
ENDCHAR
STARTCHAR 1E68
ENCODING 7784
SWIDTH 520 0
DWIDTH 13 0
BBX 12 28 1 -6
BITMAP
0200
0F00
0F00
0F00
0000
1FC0
3FE0
70E0
70E0
7060
7800
7E00
7F80
3FC0
0FE0
03F0
01F0
E0F0
E070
E0F0
FBE0
3F80
0000
0000
0700
0F00
0F00
0200
ENDCHAR
STARTCHAR 1E69
ENCODING 7785
SWIDTH 440 0
DWIDTH 11 0
BBX 10 23 1 -6
BITMAP
0800
1E00
1E00
1C00
0000
1E00
7F80
E380
E180
F800
7E00
3F80
0F80
C3C0
C3C0
F780
FF00
0000
0000
1C00
1E00
1E00
0800
ENDCHAR
STARTCHAR 1E6C
ENCODING 7788
SWIDTH 640 0
DWIDTH 16 0
BBX 15 23 1 -6
BITMAP
FFFC
FFFC
C78C
C786
C784
0780
0780
0780
0780
0780
0780
0780
0780
0780
0780
1FE0
1FE0
0000
0000
0380
0780
0780
0300
ENDCHAR
STARTCHAR 1E6D
ENCODING 7789
SWIDTH 360 0
DWIDTH 9 0
BBX 9 21 0 -5
BITMAP
1C00
3C00
3C00
3C00
FF80
7F00
3C00
3C00
3C00
3C00
3C00
3C00
3C00
3F80
1F80
0000
0000
0E00
1F00
1E00
0400
ENDCHAR
STARTCHAR 1E6E
ENCODING 7790
SWIDTH 640 0
DWIDTH 16 0
BBX 15 21 1 -4
BITMAP
FFFC
FFFC
C78C
C786
C784
0780
0780
0780
0780
0780
0780
0780
0780
0780
0780
1FE0
1FE0
0000
0000
0000
3FF0
ENDCHAR
STARTCHAR 1E6F
ENCODING 7791
SWIDTH 360 0
DWIDTH 9 0
BBX 10 19 0 -3
BITMAP
1C00
3C00
3C00
3C00
FF80
7F00
3C00
3C00
3C00
3C00
3C00
3C00
3C00
3F80
1F80
0000
0000
0000
7FC0
ENDCHAR
STARTCHAR 1E78
ENCODING 7800
SWIDTH 680 0
DWIDTH 17 0
BBX 15 27 1 0
BITMAP
0020
00E0
00C0
01C0
0000
0300
0FF8
0DF0
0000
0000
FE3E
FE3E
780C
780C
780C
780C
780C
780C
780C
780C
780C
780C
3808
3C08
3C18
1FF0
0FE0
ENDCHAR
STARTCHAR 1E79
ENCODING 7801
SWIDTH 600 0
DWIDTH 15 0
BBX 15 23 0 1
BITMAP
00E0
01C0
0180
0180
0000
0000
0F10
1FF0
11E0
0000
0000
0808
FCF8
FCF8
3C78
3C38
3C38
3C38
3C38
3C38
3C3C
3FFE
1F3C
ENDCHAR
STARTCHAR 1E7A
ENCODING 7802
SWIDTH 680 0
DWIDTH 17 0
BBX 15 25 1 0
BITMAP
0E38
0F78
0E38
0000
0000
0FF8
0000
0000
FE3E
FE3E
780C
780C
780C
780C
780C
780C
780C
780C
780C
780C
3808
3C08
3C18
1FF0
0FE0
ENDCHAR
STARTCHAR 1E7B
ENCODING 7803
SWIDTH 600 0
DWIDTH 15 0
BBX 15 20 0 0
BITMAP
0C20
1CF0
1CF0
1870
0000
1FF0
1E00
0000
0808
FCF8
FCF8
3C78
3C38
3C38
3C38
3C38
3C38
3C3C
3FFE
1F3C
ENDCHAR
STARTCHAR 1E80
ENCODING 7808
SWIDTH 960 0
DWIDTH 24 0
BBX 24 22 0 0
BITMAP
003800
001C00
000C00
000400
000000
FF0C1F
7F0E1F
3C0E06
3C1F06
3E1F04
1E1F0C
1E378C
1E3788
0F2788
0F63D8
0F63D0
07C3F0
07C1F0
07C1F0
0380E0
0380E0
0380E0
ENDCHAR
STARTCHAR 1E81
ENCODING 7809
SWIDTH 760 0
DWIDTH 19 0
BBX 19 18 0 0
BITMAP
01E000
00E000
006000
003000
003000
000000
C63120
FE31E0
7C78C0
3C78C0
3C7880
1CFC80
1E9D80
1F9F00
0F9F00
0F0F00
0F0E00
060600
ENDCHAR
STARTCHAR 1E82
ENCODING 7810
SWIDTH 960 0
DWIDTH 24 0
BBX 24 22 0 0
BITMAP
000700
000700
000E00
000C00
000000
FF0C1F
7F0E1F
3C0E06
3C1F06
3E1F04
1E1F0C
1E378C
1E3788
0F2788
0F63D8
0F63D0
07C3F0
07C1F0
07C1F0
0380E0
0380E0
0380E0
ENDCHAR
STARTCHAR 1E83
ENCODING 7811
SWIDTH 760 0
DWIDTH 19 0
BBX 19 18 0 0
BITMAP
001C00
001C00
001800
003000
003000
000000
C63120
FE31E0
7C78C0
3C78C0
3C7880
1CFC80
1E9D80
1F9F00
0F9F00
0F0F00
0F0E00
060600
ENDCHAR
STARTCHAR 1E84
ENCODING 7812
SWIDTH 960 0
DWIDTH 24 0
BBX 24 22 0 0
BITMAP
002080
0073C0
0073C0
007180
000000
FF0C1F
7F0E1F
3C0E06
3C1F06
3E1F04
1E1F0C
1E378C
1E3788
0F2788
0F63D8
0F63D0
07C3F0
07C1F0
07C1F0
0380E0
0380E0
0380E0
ENDCHAR
STARTCHAR 1E85
ENCODING 7813
SWIDTH 760 0
DWIDTH 19 0
BBX 19 16 0 0
BITMAP
03CE00
03CF00
018E00
000000
C63120
FE31E0
7C78C0
3C78C0
3C7880
1CFC80
1E9D80
1F9F00
0F9F00
0F0F00
0F0E00
060600
ENDCHAR
STARTCHAR 1E8E
ENCODING 7822
SWIDTH 600 0
DWIDTH 15 0
BBX 15 22 0 0
BITMAP
0040
01E0
01E0
01E0
0000
FF1E
7F1E
3E0C
1E08
1E18
0F10
0F30
07A0
07E0
03C0
03C0
03C0
03C0
03C0
03C0
0FF0
0FF0
ENDCHAR
STARTCHAR 1E8F
ENCODING 7823
SWIDTH 560 0
DWIDTH 14 0
BBX 14 23 0 -6
BITMAP
0180
03C0
03C0
0180
0000
C244
FE7C
7C38
3C30
1E30
1E60
0E60
0F40
0FC0
0780
0780
0380
0300
0300
0600
7E00
7C00
7800
ENDCHAR
STARTCHAR 1E90
ENCODING 7824
SWIDTH 600 0
DWIDTH 15 0
BBX 13 22 1 0
BITMAP
0300
0FC0
1DE0
1040
0000
7FF0
7FF8
70F0
61F0
61E0
03C0
07C0
0780
0F80
0F00
1F00
1E00
3C10
7C18
7838
F9F8
FFF0
ENDCHAR
STARTCHAR 1E91
ENCODING 7825
SWIDTH 480 0
DWIDTH 12 0
BBX 11 18 1 0
BITMAP
0600
0F00
1F80
73C0
60C0
0000
60C0
FFE0
E3C0
E780
0F80
0F00
1E00
3E00
3C60
78E0
FFE0
FFE0
ENDCHAR
STARTCHAR 1E92
ENCODING 7826
SWIDTH 600 0
DWIDTH 15 0
BBX 13 23 1 -6
BITMAP
7FF0
7FF8
70F0
61F0
61E0
03C0
07C0
0780
0F80
0F00
1F00
1E00
3C10
7C18
7838
F9F8
FFF0
0000
0000
0700
0F80
0780
0200
ENDCHAR
STARTCHAR 1E93
ENCODING 7827
SWIDTH 480 0
DWIDTH 12 0
BBX 11 18 1 -6
BITMAP
60C0
FFE0
E3C0
E780
0F80
0F00
1E00
3E00
3C60
78E0
FFE0
FFE0
0000
0000
0E00
1E00
1E00
0400
ENDCHAR
STARTCHAR 1E97
ENCODING 7831
SWIDTH 360 0
DWIDTH 9 0
BBX 9 19 0 0
BITMAP
E380
F780
E380
0000
1C00
3C00
3C00
3C00
FF80
7F00
3C00
3C00
3C00
3C00
3C00
3C00
3C00
3F80
1F80
ENDCHAR
STARTCHAR 1E9E
ENCODING 7838
SWIDTH 720 0
DWIDTH 18 0
BBX 17 17 1 0
BITMAP
07FE00
1FFF00
1C1E00
3C3E00
383C00
387800
38F800
38F800
387E00
380F00
380780
380780
398780
798780
79C700
F9FF00
F8FC00
ENDCHAR
STARTCHAR 1EA0
ENCODING 7840
SWIDTH 680 0
DWIDTH 17 0
BBX 17 23 0 -6
BITMAP
00C000
01C000
01C000
03E000
03E000
02F000
06F000
047800
0C7800
0C3C00
083C00
1FFE00
181E00
301E00
300F00
781F80
F83F80
000000
000000
038000
03C000
03C000
018000
ENDCHAR
STARTCHAR 1EA1
ENCODING 7841
SWIDTH 520 0
DWIDTH 13 0
BBX 11 18 2 -6
BITMAP
0E00
3F80
6780
E3C0
E3C0
07C0
1FC0
F3C0
E3C0
E3C0
F7E0
7BE0
0000
0000
1E00
1E00
1E00
0800
ENDCHAR
STARTCHAR 1EA2
ENCODING 7842
SWIDTH 680 0
DWIDTH 17 0
BBX 17 22 0 0
BITMAP
03E000
036000
00C000
008000
000000
00C000
01C000
01C000
03E000
03E000
02F000
06F000
047800
0C7800
0C3C00
083C00
1FFE00
181E00
301E00
300F00
781F80
F83F80
ENDCHAR
STARTCHAR 1EA3
ENCODING 7843
SWIDTH 520 0
DWIDTH 13 0
BBX 11 18 2 0
BITMAP
1800
7E00
6600
1C00
1800
0000
0E00
3F80
6780
E3C0
E3C0
07C0
1FC0
F3C0
E3C0
E3C0
F7E0
7BE0
ENDCHAR
STARTCHAR 1EA4
ENCODING 7844
SWIDTH 680 0
DWIDTH 17 0
BBX 17 25 0 0
BITMAP
000700
000E00
000C00
01C000
03E000
077800
041000
000000
00C000
01C000
01C000
03E000
03E000
02F000
06F000
047800
0C7800
0C3C00
083C00
1FFE00
181E00
301E00
300F00
781F80
F83F80
ENDCHAR
STARTCHAR 1EA5
ENCODING 7845
SWIDTH 520 0
DWIDTH 13 0
BBX 11 19 2 0
BITMAP
00E0
00C0
0980
3E00
7F00
E380
0000
0E00
3F80
6780
E3C0
E3C0
07C0
1FC0
F3C0
E3C0
E3C0
F7E0
7BE0
ENDCHAR
STARTCHAR 1EA6
ENCODING 7846
SWIDTH 680 0
DWIDTH 17 0
BBX 17 25 0 0
BITMAP
007000
003800
001800
01C800
03E000
077800
041000
000000
00C000
01C000
01C000
03E000
03E000
02F000
06F000
047800
0C7800
0C3C00
083C00
1FFE00
181E00
301E00
300F00
781F80
F83F80
ENDCHAR
STARTCHAR 1EA7
ENCODING 7847
SWIDTH 520 0
DWIDTH 13 0
BBX 11 19 2 0
BITMAP
0700
0380
0980
3E00
7F00
E380
0000
0E00
3F80
6780
E3C0
E3C0
07C0
1FC0
F3C0
E3C0
E3C0
F7E0
7BE0
ENDCHAR
STARTCHAR 1EA8
ENCODING 7848
SWIDTH 680 0
DWIDTH 17 0
BBX 17 26 0 0
BITMAP
003C00
002600
002C00
001800
01C000
03E000
077800
041000
000000
00C000
01C000
01C000
03E000
03E000
02F000
06F000
047800
0C7800
0C3C00
083C00
1FFE00
181E00
301E00
300F00
781F80
F83F80
ENDCHAR
STARTCHAR 1EA9
ENCODING 7849
SWIDTH 520 0
DWIDTH 13 0
BBX 11 21 2 0
BITMAP
0080
07E0
06E0
01C0
0980
3E00
7F00
E380
0000
0E00
3F80
6780
E3C0
E3C0
07C0
1FC0
F3C0
E3C0
E3C0
F7E0
7BE0
ENDCHAR
STARTCHAR 1EAA
ENCODING 7850
SWIDTH 680 0
DWIDTH 17 0
BBX 17 26 0 0
BITMAP
07D800
0FF800
086000
000000
01C000
03E000
077800
041000
000000
00C000
01C000
01C000
03E000
03E000
02F000
06F000
047800
0C7800
0C3C00
083C00
1FFE00
181E00
301E00
300F00
781F80
F83F80
ENDCHAR
STARTCHAR 1EAB
ENCODING 7851
SWIDTH 520 0
DWIDTH 13 0
BBX 11 21 2 0
BITMAP
7880
FF80
8F00
0000
0800
3E00
7F00
E380
0000
0E00
3F80
6780
E3C0
E3C0
07C0
1FC0
F3C0
E3C0
E3C0
F7E0
7BE0
ENDCHAR
STARTCHAR 1EAC
ENCODING 7852
SWIDTH 680 0
DWIDTH 17 0
BBX 17 28 0 -6
BITMAP
01C000
03E000
077800
041000
000000
00C000
01C000
01C000
03E000
03E000
02F000
06F000
047800
0C7800
0C3C00
083C00
1FFE00
181E00
301E00
300F00
781F80
F83F80
000000
000000
038000
03C000
03C000
018000
ENDCHAR
STARTCHAR 1EAD
ENCODING 7853
SWIDTH 520 0
DWIDTH 13 0
BBX 11 24 2 -6
BITMAP
0C00
1E00
3F00
E380
C180
0000
0E00
3F80
6780
E3C0
E3C0
07C0
1FC0
F3C0
E3C0
E3C0
F7E0
7BE0
0000
0000
1E00
1E00
1E00
0800
ENDCHAR
STARTCHAR 1EAE
ENCODING 7854
SWIDTH 680 0
DWIDTH 17 0
BBX 17 25 0 0
BITMAP
007000
00E000
00C000
0C1800
073800
07F000
03E000
000000
00C000
01C000
01C000
03E000
03E000
02F000
06F000
047800
0C7800
0C3C00
083C00
1FFE00
181E00
301E00
300F00
781F80
F83F80
ENDCHAR
STARTCHAR 1EAF
ENCODING 7855
SWIDTH 520 0
DWIDTH 13 0
BBX 11 20 2 0
BITMAP
0700
0E00
0C00
0800
E180
7F00
7E00
0000
0E00
3F80
6780
E3C0
E3C0
07C0
1FC0
F3C0
E3C0
E3C0
F7E0
7BE0
ENDCHAR
STARTCHAR 1EB0
ENCODING 7856
SWIDTH 680 0
DWIDTH 17 0
BBX 17 25 0 0
BITMAP
038000
018000
00C000
0C1800
073800
07F000
03E000
000000
00C000
01C000
01C000
03E000
03E000
02F000
06F000
047800
0C7800
0C3C00
083C00
1FFE00
181E00
301E00
300F00
781F80
F83F80
ENDCHAR
STARTCHAR 1EB1
ENCODING 7857
SWIDTH 520 0
DWIDTH 13 0
BBX 11 20 2 0
BITMAP
3000
3800
1800
0C00
E180
7F00
7E00
0000
0E00
3F80
6780
E3C0
E3C0
07C0
1FC0
F3C0
E3C0
E3C0
F7E0
7BE0
ENDCHAR
STARTCHAR 1EB2
ENCODING 7858
SWIDTH 680 0
DWIDTH 17 0
BBX 17 26 0 0
BITMAP
01E000
036000
026000
00C000
0C1800
073800
07F000
03E000
000000
00C000
01C000
01C000
03E000
03E000
02F000
06F000
047800
0C7800
0C3C00
083C00
1FFE00
181E00
301E00
300F00
781F80
F83F80
ENDCHAR
STARTCHAR 1EB3
ENCODING 7859
SWIDTH 520 0
DWIDTH 13 0
BBX 11 21 2 0
BITMAP
0800
3E00
2600
0C00
0800
E180
7F00
7E00
0000
0E00
3F80
6780
E3C0
E3C0
07C0
1FC0
F3C0
E3C0
E3C0
F7E0
7BE0
ENDCHAR
STARTCHAR 1EB4
ENCODING 7860
SWIDTH 680 0
DWIDTH 17 0
BBX 17 26 0 0
BITMAP
038800
0FF800
0DF000
000000
0C1800
073800
07F000
03E000
000000
00C000
01C000
01C000
03E000
03E000
02F000
06F000
047800
0C7800
0C3C00
083C00
1FFE00
181E00
301E00
300F00
781F80
F83F80
ENDCHAR
STARTCHAR 1EB5
ENCODING 7861
SWIDTH 520 0
DWIDTH 13 0
BBX 11 20 2 0
BITMAP
7D80
FF00
8E00
0000
E180
7F00
7E00
0000
0E00
3F80
6780
E3C0
E3C0
07C0
1FC0
F3C0
E3C0
E3C0
F7E0
7BE0
ENDCHAR
STARTCHAR 1EB6
ENCODING 7862
SWIDTH 680 0
DWIDTH 17 0
BBX 17 28 0 -6
BITMAP
0C1800
073800
07F000
03E000
000000
00C000
01C000
01C000
03E000
03E000
02F000
06F000
047800
0C7800
0C3C00
083C00
1FFE00
181E00
301E00
300F00
781F80
F83F80
000000
000000
038000
03C000
03C000
018000
ENDCHAR
STARTCHAR 1EB7
ENCODING 7863
SWIDTH 520 0
DWIDTH 13 0
BBX 11 24 2 -6
BITMAP
C180
C180
F780
7F00
3E00
0000
0E00
3F80
6780
E3C0
E3C0
07C0
1FC0
F3C0
E3C0
E3C0
F7E0
7BE0
0000
0000
1E00
1E00
1E00
0800
ENDCHAR
STARTCHAR 1EB8
ENCODING 7864
SWIDTH 600 0
DWIDTH 15 0
BBX 14 23 1 -6
BITMAP
FFF8
FFF8
3C38
3C18
3C10
3C00
3C40
3CC0
3FC0
3DC0
3C40
3C00
3C08
3C0C
3C1C
FFF8
FFF8
0000
0000
0380
0780
0780
0300
ENDCHAR
STARTCHAR 1EB9
ENCODING 7865
SWIDTH 480 0
DWIDTH 12 0
BBX 11 18 1 -6
BITMAP
0600
3F80
71C0
F1E0
F1E0
FFE0
FFE0
F000
F000
7800
7FE0
1F80
0000
0000
0F00
0F00
0F00
0600
ENDCHAR
STARTCHAR 1EBA
ENCODING 7866
SWIDTH 600 0
DWIDTH 15 0
BBX 14 22 1 0
BITMAP
0F80
0D80
0300
0200
0000
FFF8
FFF8
3C38
3C18
3C10
3C00
3C40
3CC0
3FC0
3DC0
3C40
3C00
3C08
3C0C
3C1C
FFF8
FFF8
ENDCHAR
STARTCHAR 1EBB
ENCODING 7867
SWIDTH 480 0
DWIDTH 12 0
BBX 11 18 1 0
BITMAP
0600
1F80
1300
0600
0600
0000
0600
3F80
71C0
F1E0
F1E0
FFE0
FFE0
F000
F000
7800
7FE0
1F80
ENDCHAR
STARTCHAR 1EBC
ENCODING 7868
SWIDTH 600 0
DWIDTH 15 0
BBX 14 22 1 0
BITMAP
0C00
3FE0
37C0
0000
0000
FFF8
FFF8
3C38
3C18
3C10
3C00
3C40
3CC0
3FC0
3DC0
3C40
3C00
3C08
3C0C
3C1C
FFF8
FFF8
ENDCHAR
STARTCHAR 1EBD
ENCODING 7869
SWIDTH 480 0
DWIDTH 12 0
BBX 11 17 1 0
BITMAP
3C40
7FC0
4780
0000
0000
0600
3F80
71C0
F1E0
F1E0
FFE0
FFE0
F000
F000
7800
7FE0
1F80
ENDCHAR
STARTCHAR 1EBE
ENCODING 7870
SWIDTH 600 0
DWIDTH 15 0
BBX 14 25 1 0
BITMAP
0018
0038
0030
0700
0F80
1DC0
1040
0000
FFF8
FFF8
3C38
3C18
3C10
3C00
3C40
3CC0
3FC0
3DC0
3C40
3C00
3C08
3C0C
3C1C
FFF8
FFF8
ENDCHAR
STARTCHAR 1EBF
ENCODING 7871
SWIDTH 480 0
DWIDTH 12 0
BBX 12 19 1 0
BITMAP
0070
0060
06C0
0F00
3F80
71C0
0000
0600
3F80
71C0
F1E0
F1E0
FFE0
FFE0
F000
F000
7800
7FE0
1F80
ENDCHAR
STARTCHAR 1EC0
ENCODING 7872
SWIDTH 600 0
DWIDTH 15 0
BBX 14 25 1 0
BITMAP
01C0
00E0
0060
0720
0F80
1DC0
1040
0000
FFF8
FFF8
3C38
3C18
3C10
3C00
3C40
3CC0
3FC0
3DC0
3C40
3C00
3C08
3C0C
3C1C
FFF8
FFF8
ENDCHAR
STARTCHAR 1EC1
ENCODING 7873
SWIDTH 480 0
DWIDTH 12 0
BBX 11 19 1 0
BITMAP
0180
01C0
06C0
0F00
3F80
71C0
0000
0600
3F80
71C0
F1E0
F1E0
FFE0
FFE0
F000
F000
7800
7FE0
1F80
ENDCHAR
STARTCHAR 1EC2
ENCODING 7874
SWIDTH 600 0
DWIDTH 15 0
BBX 14 26 1 0
BITMAP
00F0
0098
00B0
0060
0700
0F80
1DC0
1040
0000
FFF8
FFF8
3C38
3C18
3C10
3C00
3C40
3CC0
3FC0
3DC0
3C40
3C00
3C08
3C0C
3C1C
FFF8
FFF8
ENDCHAR
STARTCHAR 1EC3
ENCODING 7875
SWIDTH 480 0
DWIDTH 12 0
BBX 12 21 1 0
BITMAP
0040
01F0
0130
0060
06C0
0F00
3F80
71C0
0000
0600
3F80
71C0
F1E0
F1E0
FFE0
FFE0
F000
F000
7800
7FE0
1F80
ENDCHAR
STARTCHAR 1EC4
ENCODING 7876
SWIDTH 600 0
DWIDTH 15 0
BBX 14 26 1 0
BITMAP
1F60
3FC0
2180
0000
0700
0F80
1DC0
1040
0000
FFF8
FFF8
3C38
3C18
3C10
3C00
3C40
3CC0
3FC0
3DC0
3C40
3C00
3C08
3C0C
3C1C
FFF8
FFF8
ENDCHAR
STARTCHAR 1EC5
ENCODING 7877
SWIDTH 480 0
DWIDTH 12 0
BBX 11 21 1 0
BITMAP
3C40
7FC0
4780
0000
0600
0F00
3F80
71C0
0000
0600
3F80
71C0
F1E0
F1E0
FFE0
FFE0
F000
F000
7800
7FE0
1F80
ENDCHAR
STARTCHAR 1EC6
ENCODING 7878
SWIDTH 600 0
DWIDTH 15 0
BBX 14 28 1 -6
BITMAP
0700
0F80
1DC0
1040
0000
FFF8
FFF8
3C38
3C18
3C10
3C00
3C40
3CC0
3FC0
3DC0
3C40
3C00
3C08
3C0C
3C1C
FFF8
FFF8
0000
0000
0380
0780
0780
0300
ENDCHAR
STARTCHAR 1EC7
ENCODING 7879
SWIDTH 480 0
DWIDTH 12 0
BBX 11 24 1 -6
BITMAP
0600
0F00
1F80
31C0
60C0
0000
0600
3F80
71C0
F1E0
F1E0
FFE0
FFE0
F000
F000
7800
7FE0
1F80
0000
0000
0F00
0F00
0F00
0600
ENDCHAR
STARTCHAR 1EC8
ENCODING 7880
SWIDTH 360 0
DWIDTH 9 0
BBX 7 22 1 0
BITMAP
7C
6C
1C
18
00
FE
FE
3C
3C
3C
3C
3C
3C
3C
3C
3C
3C
3C
3C
3C
FE
FE
ENDCHAR
STARTCHAR 1EC9
ENCODING 7881
SWIDTH 320 0
DWIDTH 8 0
BBX 7 18 1 0
BITMAP
30
FC
CC
38
30
00
08
F8
F8
38
38
38
38
38
38
38
FE
FE
ENDCHAR
STARTCHAR 1ECA
ENCODING 7882
SWIDTH 360 0
DWIDTH 9 0
BBX 7 23 1 -6
BITMAP
FE
FE
3C
3C
3C
3C
3C
3C
3C
3C
3C
3C
3C
3C
3C
FE
FE
00
00
38
3C
3C
10
ENDCHAR
STARTCHAR 1ECB
ENCODING 7883
SWIDTH 320 0
DWIDTH 8 0
BBX 7 23 1 -6
BITMAP
78
78
78
00
00
08
F8
F8
38
38
38
38
38
38
38
FE
FE
00
00
38
7C
78
10
ENDCHAR
STARTCHAR 1ECC
ENCODING 7884
SWIDTH 720 0
DWIDTH 18 0
BBX 17 23 1 -6
BITMAP
07F000
1FFC00
381E00
781E00
700F00
F00F00
F00780
F00780
F00780
F00780
F00780
F00700
780F00
780E00
3C1E00
1F3C00
07F000
000000
000000
01C000
03C000
03C000
008000
ENDCHAR
STARTCHAR 1ECD
ENCODING 7885
SWIDTH 560 0
DWIDTH 14 0
BBX 12 18 1 -6
BITMAP
0600
3FC0
71E0
F0F0
F0F0
F070
F070
F070
F070
70F0
7DE0
1F80
0000
0000
0700
0F00
0F00
0600
ENDCHAR
STARTCHAR 1ECE
ENCODING 7886
SWIDTH 720 0
DWIDTH 18 0
BBX 17 22 1 0
BITMAP
03E000
026000
00C000
008000
000000
07F000
1FFC00
381E00
781E00
700F00
F00F00
F00780
F00780
F00780
F00780
F00780
F00700
780F00
780E00
3C1E00
1F3C00
07F000
ENDCHAR
STARTCHAR 1ECF
ENCODING 7887
SWIDTH 560 0
DWIDTH 14 0
BBX 12 18 1 0
BITMAP
0600
1F80
1B80
0700
0600
0000
0600
3FC0
71E0
F0F0
F0F0
F070
F070
F070
F070
70F0
7DE0
1F80
ENDCHAR
STARTCHAR 1ED0
ENCODING 7888
SWIDTH 720 0
DWIDTH 18 0
BBX 17 25 1 0
BITMAP
000E00
000C00
001C00
01C000
03E000
0F7000
0C1000
000000
07F000
1FFC00
381E00
781E00
700F00
F00F00
F00780
F00780
F00780
F00780
F00780
F00700
780F00
780E00
3C1E00
1F3C00
07F000
ENDCHAR
STARTCHAR 1ED1
ENCODING 7889
SWIDTH 560 0
DWIDTH 14 0
BBX 13 19 1 0
BITMAP
0038
0070
0660
0F00
1F80
31C0
0000
0600
3FC0
71E0
F0F0
F0F0
F070
F070
F070
F070
70F0
7DE0
1F80
ENDCHAR
STARTCHAR 1ED2
ENCODING 7890
SWIDTH 720 0
DWIDTH 18 0
BBX 17 25 1 0
BITMAP
007000
003000
001800
01D800
03E000
0F7000
0C1000
000000
07F000
1FFC00
381E00
781E00
700F00
F00F00
F00780
F00780
F00780
F00780
F00780
F00700
780F00
780E00
3C1E00
1F3C00
07F000
ENDCHAR
STARTCHAR 1ED3
ENCODING 7891
SWIDTH 560 0
DWIDTH 14 0
BBX 12 19 1 0
BITMAP
01C0
00C0
0660
0F00
1F80
31C0
0000
0600
3FC0
71E0
F0F0
F0F0
F070
F070
F070
F070
70F0
7DE0
1F80
ENDCHAR
STARTCHAR 1ED4
ENCODING 7892
SWIDTH 720 0
DWIDTH 18 0
BBX 17 26 1 0
BITMAP
003C00
006600
002C00
001800
01C000
03E000
0F7000
0C1000
000000
07F000
1FFC00
381E00
781E00
700F00
F00F00
F00780
F00780
F00780
F00780
F00780
F00700
780F00
780E00
3C1E00
1F3C00
07F000
ENDCHAR
STARTCHAR 1ED5
ENCODING 7893
SWIDTH 560 0
DWIDTH 14 0
BBX 12 21 1 0
BITMAP
0040
01F0
01B0
0060
0660
0F00
1F80
31C0
0000
0600
3FC0
71E0
F0F0
F0F0
F070
F070
F070
F070
70F0
7DE0
1F80
ENDCHAR
STARTCHAR 1ED6
ENCODING 7894
SWIDTH 720 0
DWIDTH 18 0
BBX 17 26 1 0
BITMAP
0FD800
0FF000
08E000
000000
01C000
03E000
0F7000
0C1000
000000
07F000
1FFC00
381E00
781E00
700F00
F00F00
F00780
F00780
F00780
F00780
F00780
F00700
780F00
780E00
3C1E00
1F3C00
07F000
ENDCHAR
STARTCHAR 1ED7
ENCODING 7895
SWIDTH 560 0
DWIDTH 14 0
BBX 12 21 1 0
BITMAP
1E40
3FC0
2780
0000
0600
0F00
1F80
31C0
0000
0600
3FC0
71E0
F0F0
F0F0
F070
F070
F070
F070
70F0
7DE0
1F80
ENDCHAR
STARTCHAR 1ED8
ENCODING 7896
SWIDTH 720 0
DWIDTH 18 0
BBX 17 28 1 -6
BITMAP
01C000
03E000
0F7000
0C1000
000000
07F000
1FFC00
381E00
781E00
700F00
F00F00
F00780
F00780
F00780
F00780
F00780
F00700
780F00
780E00
3C1E00
1F3C00
07F000
000000
000000
01C000
03C000
03C000
008000
ENDCHAR
STARTCHAR 1ED9
ENCODING 7897
SWIDTH 560 0
DWIDTH 14 0
BBX 12 24 1 -6
BITMAP
0600
0F00
1F80
39C0
2060
0000
0600
3FC0
71E0
F0F0
F0F0
F070
F070
F070
F070
70F0
7DE0
1F80
0000
0000
0700
0F00
0F00
0600
ENDCHAR
STARTCHAR 1EDA
ENCODING 7898
SWIDTH 720 0
DWIDTH 18 0
BBX 17 22 1 0
BITMAP
00E000
00E000
01C300
008300
000300
07FF00
1FFC00
381E00
781E00
700F00
F00F00
F00780
F00780
F00780
F00780
F00780
F00700
780F00
780E00
3C1E00
1F3C00
07F000
ENDCHAR
STARTCHAR 1EDB
ENCODING 7899
SWIDTH 600 0
DWIDTH 15 0
BBX 13 18 1 0
BITMAP
03C0
0380
0300
0600
0638
0038
0738
3FE0
71E0
F0F0
F0F0
F070
F070
F070
F070
70F0
7DE0
1F80
ENDCHAR
STARTCHAR 1EDC
ENCODING 7900
SWIDTH 720 0
DWIDTH 18 0
BBX 17 22 1 0
BITMAP
070000
038000
018300
008300
000300
07FF00
1FFC00
381E00
781E00
700F00
F00F00
F00780
F00780
F00780
F00780
F00780
F00700
780F00
780E00
3C1E00
1F3C00
07F000
ENDCHAR
STARTCHAR 1EDD
ENCODING 7901
SWIDTH 600 0
DWIDTH 15 0
BBX 13 18 1 0
BITMAP
1C00
1C00
0C00
0600
0638
0038
0738
3FE0
71E0
F0F0
F0F0
F070
F070
F070
F070
70F0
7DE0
1F80
ENDCHAR
STARTCHAR 1EDE
ENCODING 7902
SWIDTH 720 0
DWIDTH 18 0
BBX 17 22 1 0
BITMAP
03E000
026000
00C300
008300
000300
07FF00
1FFC00
381E00
781E00
700F00
F00F00
F00780
F00780
F00780
F00780
F00780
F00700
780F00
780E00
3C1E00
1F3C00
07F000
ENDCHAR
STARTCHAR 1EDF
ENCODING 7903
SWIDTH 600 0
DWIDTH 15 0
BBX 13 18 1 0
BITMAP
0600
1F80
1B80
0700
0638
0038
0738
3FE0
71E0
F0F0
F0F0
F070
F070
F070
F070
70F0
7DE0
1F80
ENDCHAR
STARTCHAR 1EE0
ENCODING 7904
SWIDTH 720 0
DWIDTH 18 0
BBX 17 22 1 0
BITMAP
030000
0FF800
0DF300
000300
000300
07FF00
1FFC00
381E00
781E00
700F00
F00F00
F00780
F00780
F00780
F00780
F00780
F00700
780F00
780E00
3C1E00
1F3C00
07F000
ENDCHAR
STARTCHAR 1EE1
ENCODING 7905
SWIDTH 600 0
DWIDTH 15 0
BBX 13 17 1 0
BITMAP
1C40
3FC0
67C0
0038
0038
0738
3FE0
71E0
F0F0
F0F0
F070
F070
F070
F070
70F0
7DE0
1F80
ENDCHAR
STARTCHAR 1EE2
ENCODING 7906
SWIDTH 720 0
DWIDTH 18 0
BBX 17 26 1 -6
BITMAP
000300
000300
000300
07FF00
1FFC00
381E00
781E00
700F00
F00F00
F00780
F00780
F00780
F00780
F00780
F00700
780F00
780E00
3C1E00
1F3C00
07F000
000000
000000
01C000
03C000
03C000
008000
ENDCHAR
STARTCHAR 1EE3
ENCODING 7907
SWIDTH 600 0
DWIDTH 15 0
BBX 13 20 1 -6
BITMAP
0038
0038
0738
3FE0
71E0
F0F0
F0F0
F070
F070
F070
F070
70F0
7DE0
1F80
0000
0000
0700
0F00
0F00
0600
ENDCHAR
STARTCHAR 1EE4
ENCODING 7908
SWIDTH 680 0
DWIDTH 17 0
BBX 15 23 1 -6
BITMAP
FE3E
FE3E
780C
780C
780C
780C
780C
780C
780C
780C
780C
780C
3808
3C08
3C18
1FF0
0FE0
0000
0000
0380
03C0
03C0
0100
ENDCHAR
STARTCHAR 1EE5
ENCODING 7909
SWIDTH 600 0
DWIDTH 15 0
BBX 15 18 0 -6
BITMAP
0808
FCF8
FCF8
3C78
3C38
3C38
3C38
3C38
3C38
3C3C
3FFE
1F3C
0000
0000
0380
07C0
03C0
0100
ENDCHAR
STARTCHAR 1EE6
ENCODING 7910
SWIDTH 680 0
DWIDTH 17 0
BBX 15 22 1 0
BITMAP
03E0
0360
00C0
0080
0000
FE3E
FE3E
780C
780C
780C
780C
780C
780C
780C
780C
780C
780C
3808
3C08
3C18
1FF0
0FE0
ENDCHAR
STARTCHAR 1EE7
ENCODING 7911
SWIDTH 600 0
DWIDTH 15 0
BBX 15 18 0 0
BITMAP
0300
0FC0
0CC0
0180
0300
0000
0808
FCF8
FCF8
3C78
3C38
3C38
3C38
3C38
3C38
3C3C
3FFE
1F3C
ENDCHAR
STARTCHAR 1EE8
ENCODING 7912
SWIDTH 760 0
DWIDTH 19 0
BBX 18 22 1 0
BITMAP
007000
00E000
00C180
0081C0
0001C0
FE3F80
FE3E00
780C00
780C00
780C00
780C00
780C00
780C00
780C00
780C00
780C00
780C00
380800
3C0800
3C1800
1FF000
0FE000
ENDCHAR
STARTCHAR 1EE9
ENCODING 7913
SWIDTH 640 0
DWIDTH 16 0
BBX 15 18 0 0
BITMAP
00E0
00C0
01C0
0182
0106
0006
080E
FCFC
FCF8
3C78
3C38
3C38
3C38
3C38
3C38
3C3C
3FFE
1F3C
ENDCHAR
STARTCHAR 1EEA
ENCODING 7914
SWIDTH 760 0
DWIDTH 19 0
BBX 18 22 1 0
BITMAP
070000
038000
018180
0081C0
0001C0
FE3F80
FE3E00
780C00
780C00
780C00
780C00
780C00
780C00
780C00
780C00
780C00
780C00
380800
3C0800
3C1800
1FF000
0FE000
ENDCHAR
STARTCHAR 1EEB
ENCODING 7915
SWIDTH 640 0
DWIDTH 16 0
BBX 15 18 0 0
BITMAP
0E00
0700
0700
0302
0106
0006
080E
FCFC
FCF8
3C78
3C38
3C38
3C38
3C38
3C38
3C3C
3FFE
1F3C
ENDCHAR
STARTCHAR 1EEC
ENCODING 7916
SWIDTH 760 0
DWIDTH 19 0
BBX 18 22 1 0
BITMAP
03E000
036000
00C180
0081C0
0001C0
FE3F80
FE3E00
780C00
780C00
780C00
780C00
780C00
780C00
780C00
780C00
780C00
780C00
380800
3C0800
3C1800
1FF000
0FE000
ENDCHAR
STARTCHAR 1EED
ENCODING 7917
SWIDTH 640 0
DWIDTH 16 0
BBX 15 18 0 0
BITMAP
0300
0FC0
0CC0
0182
0306
0006
080E
FCFC
FCF8
3C78
3C38
3C38
3C38
3C38
3C38
3C3C
3FFE
1F3C
ENDCHAR
STARTCHAR 1EEE
ENCODING 7918
SWIDTH 760 0
DWIDTH 19 0
BBX 18 22 1 0
BITMAP
030000
0FF800
0DF180
0001C0
0001C0
FE3F80
FE3E00
780C00
780C00
780C00
780C00
780C00
780C00
780C00
780C00
780C00
780C00
380800
3C0800
3C1800
1FF000
0FE000
ENDCHAR
STARTCHAR 1EEF
ENCODING 7919
SWIDTH 640 0
DWIDTH 16 0
BBX 15 17 0 0
BITMAP
0F10
1FF0
11E2
0006
0006
080E
FCFC
FCF8
3C78
3C38
3C38
3C38
3C38
3C38
3C3C
3FFE
1F3C
ENDCHAR
STARTCHAR 1EF0
ENCODING 7920
SWIDTH 760 0
DWIDTH 19 0
BBX 18 26 1 -6
BITMAP
000180
0001C0
0001C0
FE3F80
FE3E00
780C00
780C00
780C00
780C00
780C00
780C00
780C00
780C00
780C00
780C00
380800
3C0800
3C1800
1FF000
0FE000
000000
000000
038000
03C000
03C000
010000
ENDCHAR
STARTCHAR 1EF1
ENCODING 7921
SWIDTH 640 0
DWIDTH 16 0
BBX 15 21 0 -6
BITMAP
0002
0006
0006
080E
FCFC
FCF8
3C78
3C38
3C38
3C38
3C38
3C38
3C3C
3FFE
1F3C
0000
0000
0380
07C0
03C0
0100
ENDCHAR
STARTCHAR 1EF2
ENCODING 7922
SWIDTH 600 0
DWIDTH 15 0
BBX 15 22 0 0
BITMAP
0380
0180
00C0
00C0
0000
FF1E
7F1E
3E0C
1E08
1E18
0F10
0F30
07A0
07E0
03C0
03C0
03C0
03C0
03C0
03C0
0FF0
0FF0
ENDCHAR
STARTCHAR 1EF3
ENCODING 7923
SWIDTH 560 0
DWIDTH 14 0
BBX 14 24 0 -6
BITMAP
0700
0700
0300
0180
0180
0000
C244
FE7C
7C38
3C30
1E30
1E60
0E60
0F40
0FC0
0780
0780
0380
0300
0300
0600
7E00
7C00
7800
ENDCHAR
STARTCHAR 1EF4
ENCODING 7924
SWIDTH 600 0
DWIDTH 15 0
BBX 15 23 0 -6
BITMAP
FF1E
7F1E
3E0C
1E08
1E18
0F10
0F30
07A0
07E0
03C0
03C0
03C0
03C0
03C0
03C0
0FF0
0FF0
0000
0000
03C0
03C0
03C0
0100
ENDCHAR
STARTCHAR 1EF5
ENCODING 7925
SWIDTH 560 0
DWIDTH 14 0
BBX 14 18 0 -6
BITMAP
C244
FE7C
7C38
3C30
1E30
1E60
0E60
0F40
0FC0
0780
0780
0380
0300
0300
0670
7EF0
7CF0
7820
ENDCHAR
STARTCHAR 1EF6
ENCODING 7926
SWIDTH 600 0
DWIDTH 15 0
BBX 15 22 0 0
BITMAP
03F0
0370
00E0
00C0
0000
FF1E
7F1E
3E0C
1E08
1E18
0F10
0F30
07A0
07E0
03C0
03C0
03C0
03C0
03C0
03C0
0FF0
0FF0
ENDCHAR
STARTCHAR 1EF7
ENCODING 7927
SWIDTH 560 0
DWIDTH 14 0
BBX 14 24 0 -6
BITMAP
0180
07E0
06E0
01C0
0180
0000
C244
FE7C
7C38
3C30
1E30
1E60
0E60
0F40
0FC0
0780
0780
0380
0300
0300
0600
7E00
7C00
7800
ENDCHAR
STARTCHAR 1EF8
ENCODING 7928
SWIDTH 600 0
DWIDTH 15 0
BBX 15 22 0 0
BITMAP
0180
07F8
0FF8
0000
0000
FF1E
7F1E
3E0C
1E08
1E18
0F10
0F30
07A0
07E0
03C0
03C0
03C0
03C0
03C0
03C0
0FF0
0FF0
ENDCHAR
STARTCHAR 1EF9
ENCODING 7929
SWIDTH 560 0
DWIDTH 14 0
BBX 14 23 0 -6
BITMAP
0710
0FF0
19F0
0000
0000
C244
FE7C
7C38
3C30
1E30
1E60
0E60
0F40
0FC0
0780
0780
0380
0300
0300
0600
7E00
7C00
7800
ENDCHAR
STARTCHAR 2007
ENCODING 8199
SWIDTH 520 0
DWIDTH 13 0
BBX 0 0 0 0
BITMAP
ENDCHAR
STARTCHAR 2008
ENCODING 8200
SWIDTH 200 0
DWIDTH 5 0
BBX 0 0 0 0
BITMAP
ENDCHAR
STARTCHAR 2009
ENCODING 8201
SWIDTH 80 0
DWIDTH 2 0
BBX 0 0 0 0
BITMAP
ENDCHAR
STARTCHAR 200A
ENCODING 8202
SWIDTH 40 0
DWIDTH 1 0
BBX 0 0 0 0
BITMAP
ENDCHAR
STARTCHAR 200B
ENCODING 8203
SWIDTH 0 0
DWIDTH 0 0
BBX 0 0 0 0
BITMAP
ENDCHAR
STARTCHAR 2010
ENCODING 8208
SWIDTH 400 0
DWIDTH 10 0
BBX 8 3 1 5
BITMAP
7F
7F
FF
ENDCHAR
STARTCHAR 2011
ENCODING 8209
SWIDTH 400 0
DWIDTH 10 0
BBX 8 3 1 5
BITMAP
7F
7F
FF
ENDCHAR
STARTCHAR 2012
ENCODING 8210
SWIDTH 520 0
DWIDTH 13 0
BBX 12 1 1 6
BITMAP
FFF0
ENDCHAR
STARTCHAR 2013
ENCODING 8211
SWIDTH 560 0
DWIDTH 14 0
BBX 11 1 2 6
BITMAP
FFE0
ENDCHAR
STARTCHAR 2014
ENCODING 8212
SWIDTH 1000 0
DWIDTH 25 0
BBX 22 1 2 6
BITMAP
FFFFFC
ENDCHAR
STARTCHAR 2015
ENCODING 8213
SWIDTH 1000 0
DWIDTH 25 0
BBX 22 1 2 6
BITMAP
FFFFFC
ENDCHAR
STARTCHAR 2016
ENCODING 8214
SWIDTH 320 0
DWIDTH 8 0
BBX 6 24 1 -6
BITMAP
CC
CC
CC
CC
CC
CC
CC
CC
CC
CC
CC
CC
CC
CC
CC
CC
CC
CC
CC
CC
CC
CC
CC
CC
ENDCHAR
STARTCHAR 2018
ENCODING 8216
SWIDTH 280 0
DWIDTH 7 0
BBX 4 7 2 11
BITMAP
60
C0
C0
C0
F0
E0
C0
ENDCHAR
STARTCHAR 2019
ENCODING 8217
SWIDTH 280 0
DWIDTH 7 0
BBX 5 7 1 11
BITMAP
30
70
F8
30
30
30
60
ENDCHAR
STARTCHAR 201A
ENCODING 8218
SWIDTH 280 0
DWIDTH 7 0
BBX 5 7 1 -4
BITMAP
70
78
F0
30
30
20
60
ENDCHAR
STARTCHAR 201B
ENCODING 8219
SWIDTH 280 0
DWIDTH 7 0
BBX 5 7 1 11
BITMAP
60
70
F8
60
60
60
30
ENDCHAR
STARTCHAR 201C
ENCODING 8220
SWIDTH 440 0
DWIDTH 11 0
BBX 8 7 2 11
BITMAP
63
C6
CC
CE
EF
EF
CC
ENDCHAR
STARTCHAR 201D
ENCODING 8221
SWIDTH 440 0
DWIDTH 11 0
BBX 9 7 1 11
BITMAP
3380
7780
F780
3380
3300
2300
6600
ENDCHAR
STARTCHAR 201E
ENCODING 8222
SWIDTH 440 0
DWIDTH 11 0
BBX 9 7 1 -4
BITMAP
7380
7780
F780
3380
3300
6300
6600
ENDCHAR
STARTCHAR 201F
ENCODING 8223
SWIDTH 440 0
DWIDTH 11 0
BBX 9 7 1 11
BITMAP
6700
7780
F780
6700
6600
2300
3180
ENDCHAR
STARTCHAR 2020
ENCODING 8224
SWIDTH 480 0
DWIDTH 12 0
BBX 10 23 1 -6
BITMAP
0400
1C00
0C00
0C00
0C00
0C00
FFC0
EFC0
0C00
0C00
0C00
0C00
0C00
0C00
0C00
0C00
0C00
0C00
0C00
0C00
0C00
0C00
0C00
ENDCHAR
STARTCHAR 2021
ENCODING 8225
SWIDTH 480 0
DWIDTH 12 0
BBX 10 22 1 -5
BITMAP
0400
1C00
0C00
0C00
0C00
0C00
FFC0
EFC0
0C00
0C00
0C00
0E00
0C00
0C00
0C00
FFC0
FFC0
0C00
0C00
0C00
0E00
0C00
ENDCHAR
STARTCHAR 2022
ENCODING 8226
SWIDTH 360 0
DWIDTH 9 0
BBX 7 7 1 3
BITMAP
18
7E
7E
FE
7E
7E
3C
ENDCHAR
STARTCHAR 2023
ENCODING 8227
SWIDTH 360 0
DWIDTH 9 0
BBX 6 7 2 3
BITMAP
C0
F0
F8
FC
F8
F0
C0
ENDCHAR
STARTCHAR 2024
ENCODING 8228
SWIDTH 280 0
DWIDTH 7 0
BBX 5 4 1 0
BITMAP
70
F8
F8
70
ENDCHAR
STARTCHAR 2025
ENCODING 8229
SWIDTH 600 0
DWIDTH 15 0
BBX 12 4 2 0
BITMAP
6060
E0F0
F0F0
E0F0
ENDCHAR
STARTCHAR 2026
ENCODING 8230
SWIDTH 920 0
DWIDTH 23 0
BBX 21 4 1 0
BITMAP
707070
F87878
F87878
707070
ENDCHAR
STARTCHAR 2027
ENCODING 8231
SWIDTH 280 0
DWIDTH 7 0
BBX 4 3 2 5
BITMAP
E0
F0
E0
ENDCHAR
STARTCHAR 202F
ENCODING 8239
SWIDTH 200 0
DWIDTH 5 0
BBX 0 0 0 0
BITMAP
ENDCHAR
STARTCHAR 2030
ENCODING 8240
SWIDTH 1200 0
DWIDTH 30 0
BBX 27 17 2 0
BITMAP
3C030000
7E030000
E7060000
E30C0000
E3180000
E7300000
7E700000
3C600000
00C00000
018E0780
033F8FC0
06339CE0
0E7198E0
0C7198E0
183198E0
303B9DC0
601F0F80
ENDCHAR
STARTCHAR 2031
ENCODING 8241
SWIDTH 1600 0
DWIDTH 40 0
BBX 36 17 2 0
BITMAP
3C03000000
7E03000000
E706000000
E30C000000
E318000000
E730000000
7E70000000
3C60000000
00C0000000
018E030180
033F0FC7E0
06319CCE70
0E7198EE70
0C7198EE30
183198CE70
303B9DC660
601F0F83C0
ENDCHAR
STARTCHAR 2032
ENCODING 8242
SWIDTH 280 0
DWIDTH 7 0
BBX 4 7 2 11
BITMAP
30
70
60
E0
C0
C0
80
ENDCHAR
STARTCHAR 2033
ENCODING 8243
SWIDTH 440 0
DWIDTH 11 0
BBX 8 7 2 11
BITMAP
31
73
67
E6
C6
CC
8C
ENDCHAR
STARTCHAR 2034
ENCODING 8244
SWIDTH 640 0
DWIDTH 16 0
BBX 13 7 2 11
BITMAP
3108
7338
6730
E630
C660
CC60
8C40
ENDCHAR
STARTCHAR 2035
ENCODING 8245
SWIDTH 280 0
DWIDTH 7 0
BBX 4 7 2 11
BITMAP
40
C0
E0
60
60
20
30
ENDCHAR
STARTCHAR 2036
ENCODING 8246
SWIDTH 440 0
DWIDTH 11 0
BBX 8 7 2 11
BITMAP
46
CE
E6
66
63
23
31
ENDCHAR
STARTCHAR 2037
ENCODING 8247
SWIDTH 640 0
DWIDTH 16 0
BBX 13 7 2 11
BITMAP
4620
CE60
E670
6630
6330
2310
3118
ENDCHAR
STARTCHAR 2038
ENCODING 8248
SWIDTH 520 0
DWIDTH 13 0
BBX 12 8 1 0
BITMAP
0600
0E00
1F00
1980
30C0
60C0
C060
C030
ENDCHAR
STARTCHAR 2039
ENCODING 8249
SWIDTH 280 0
DWIDTH 7 0
BBX 4 8 2 2
BITMAP
30
70
E0
C0
E0
60
30
10
ENDCHAR
STARTCHAR 203A
ENCODING 8250
SWIDTH 320 0
DWIDTH 8 0
BBX 5 8 2 2
BITMAP
C0
E0
70
38
30
60
C0
C0
ENDCHAR
STARTCHAR 203D
ENCODING 8253
SWIDTH 600 0
DWIDTH 15 0
BBX 11 18 3 0
BITMAP
3F00
FFC0
E1C0
CDE0
DDE0
1DC0
1DC0
0D80
0F00
0A00
0E00
0C00
0C00
0000
0C00
1E00
1E00
1E00
ENDCHAR
STARTCHAR 203F
ENCODING 8255
SWIDTH 680 0
DWIDTH 17 0
BBX 14 4 2 -5
BITMAP
C00C
FFFC
3FF0
0780
ENDCHAR
STARTCHAR 2040
ENCODING 8256
SWIDTH 680 0
DWIDTH 17 0
BBX 14 4 2 17
BITMAP
1FE0
7FF8
F03C
8004
ENDCHAR
STARTCHAR 2043
ENCODING 8259
SWIDTH 360 0
DWIDTH 9 0
BBX 7 5 1 4
BITMAP
FE
FE
FE
FE
FE
ENDCHAR
STARTCHAR 2044
ENCODING 8260
SWIDTH 200 0
DWIDTH 5 0
BBX 13 18 -4 0
BITMAP
0008
0018
0018
0030
0060
00C0
00C0
0180
0300
0700
0600
0C00
1800
3800
3000
6000
C000
C000
ENDCHAR
STARTCHAR 204B
ENCODING 8267
SWIDTH 560 0
DWIDTH 14 0
BBX 13 23 1 -6
BITMAP
FFC0
FFF0
6CF0
6C78
6C78
6C78
6C70
6CF0
6FE0
6C00
6C00
6C00
6C00
6C00
6C00
6C00
6C00
6C00
6C00
6C00
6C00
6C00
6C00
ENDCHAR
STARTCHAR 2052
ENCODING 8274
SWIDTH 560 0
DWIDTH 14 0
BBX 13 15 1 1
BITMAP
2018
F038
F070
7060
00C0
0180
0300
0600
0E00
1C00
1800
3070
60F0
C070
C000
ENDCHAR
STARTCHAR 205D
ENCODING 8285
SWIDTH 280 0
DWIDTH 7 0
BBX 4 17 2 0
BITMAP
E0
F0
E0
E0
00
00
00
E0
F0
E0
40
00
00
60
E0
F0
E0
ENDCHAR
STARTCHAR 2070
ENCODING 8304
SWIDTH 400 0
DWIDTH 10 0
BBX 9 9 1 10
BITMAP
3E00
6700
E380
C380
C380
E380
E380
7700
3E00
ENDCHAR
STARTCHAR 2074
ENCODING 8308
SWIDTH 400 0
DWIDTH 10 0
BBX 10 12 0 7
BITMAP
0300
0700
0F00
1F00
1700
2700
7F80
FFC0
7FC0
0700
0700
0200
ENDCHAR
STARTCHAR 2075
ENCODING 8309
SWIDTH 320 0
DWIDTH 8 0
BBX 7 13 1 7
BITMAP
04
7C
7C
C0
80
F0
FC
3E
0E
0E
0C
FC
70
ENDCHAR
STARTCHAR 2076
ENCODING 8310
SWIDTH 360 0
DWIDTH 9 0
BBX 8 11 1 10
BITMAP
1E
38
70
E0
FE
CF
C7
C7
E7
F6
3C
ENDCHAR
STARTCHAR 2077
ENCODING 8311
SWIDTH 320 0
DWIDTH 8 0
BBX 7 12 1 7
BITMAP
FE
FE
E4
88
18
10
30
30
70
70
70
40
ENDCHAR
STARTCHAR 2078
ENCODING 8312
SWIDTH 360 0
DWIDTH 9 0
BBX 8 11 1 10
BITMAP
7E
E6
E6
F6
7C
7E
EF
E7
E7
E6
3C
ENDCHAR
STARTCHAR 2079
ENCODING 8313
SWIDTH 360 0
DWIDTH 9 0
BBX 8 12 1 7
BITMAP
7C
E7
C7
C7
E7
E7
7F
07
0E
1C
78
40
ENDCHAR
STARTCHAR 2080
ENCODING 8320
SWIDTH 400 0
DWIDTH 10 0
BBX 9 9 1 -4
BITMAP
3E00
E700
C380
C380
C380
E380
E380
7F00
0800
ENDCHAR
STARTCHAR 2081
ENCODING 8321
SWIDTH 280 0
DWIDTH 7 0
BBX 5 9 1 -4
BITMAP
F8
70
70
70
70
70
70
F8
F8
ENDCHAR
STARTCHAR 2082
ENCODING 8322
SWIDTH 320 0
DWIDTH 8 0
BBX 7 9 1 -4
BITMAP
FC
CE
CE
0C
18
72
FE
FE
FE
ENDCHAR
STARTCHAR 2083
ENCODING 8323
SWIDTH 320 0
DWIDTH 8 0
BBX 7 11 1 -6
BITMAP
FE
FE
CC
18
30
3C
1E
0E
0E
0E
FC
ENDCHAR
STARTCHAR 2084
ENCODING 8324
SWIDTH 400 0
DWIDTH 10 0
BBX 9 11 1 -6
BITMAP
0600
0E00
1E00
3E00
6E00
4E00
FF80
FF80
FF80
0E00
0E00
ENDCHAR
STARTCHAR 2085
ENCODING 8325
SWIDTH 320 0
DWIDTH 8 0
BBX 7 12 1 -6
BITMAP
04
7C
7C
C0
C0
F8
FC
1E
0E
0E
1C
F8
ENDCHAR
STARTCHAR 2086
ENCODING 8326
SWIDTH 360 0
DWIDTH 9 0
BBX 8 12 1 -4
BITMAP
02
1E
70
60
E0
FE
C7
C7
E7
E7
7E
18
ENDCHAR
STARTCHAR 2087
ENCODING 8327
SWIDTH 320 0
DWIDTH 8 0
BBX 7 12 1 -7
BITMAP
FE
FC
CC
88
18
10
30
30
70
70
70
40
ENDCHAR
STARTCHAR 2088
ENCODING 8328
SWIDTH 360 0
DWIDTH 9 0
BBX 8 12 1 -4
BITMAP
18
7E
E7
E6
FE
7C
7E
EF
E7
E7
FE
1C
ENDCHAR
STARTCHAR 2089
ENCODING 8329
SWIDTH 360 0
DWIDTH 9 0
BBX 8 11 1 -6
BITMAP
7E
E7
C7
C7
E7
F7
7F
06
0E
1C
F0
ENDCHAR
STARTCHAR 20A1
ENCODING 8353
SWIDTH 640 0
DWIDTH 16 0
BBX 14 21 1 -2
BITMAP
0090
0190
07F0
1F7C
3C1C
781C
700C
F000
F000
F000
F000
F000
F000
F000
7800
7C00
3E04
1FFC
0FF0
0D80
0D80
ENDCHAR
STARTCHAR 20A3
ENCODING 8355
SWIDTH 560 0
DWIDTH 14 0
BBX 13 17 1 0
BITMAP
FFF8
FFF8
3C38
3C18
3C10
3C00
3C20
3C60
3FE0
3FE0
3C60
3C60
FF00
FF00
3C00
FF00
FF00
ENDCHAR
STARTCHAR 20A4
ENCODING 8356
SWIDTH 560 0
DWIDTH 14 0
BBX 13 17 1 0
BITMAP
0FE0
3DE0
38E0
7860
7800
7800
7C00
3C00
FF80
FF80
1C00
1C00
1800
37F8
3FF0
7FE0
C1E0
ENDCHAR
STARTCHAR 20A6
ENCODING 8358
SWIDTH 720 0
DWIDTH 18 0
BBX 18 17 0 0
BITMAP
7C0F80
7E0F80
1F0300
1F0300
1F8300
1FC300
1BE300
7FFFC0
FFFFC0
18FB00
187F00
183F00
183F00
181F00
180F00
7C0700
7C0700
ENDCHAR
STARTCHAR 20A7
ENCODING 8359
SWIDTH 600 0
DWIDTH 15 0
BBX 17 17 0 0
BITMAP
7FF000
7FFC00
1E3E00
1E1E00
1E1E00
FFFF80
FFFE00
1E1E00
1E1C00
1F7800
1FF000
1E0000
1E0000
1E0000
1E0000
7F8000
7F8000
ENDCHAR
STARTCHAR 20A9
ENCODING 8361
SWIDTH 960 0
DWIDTH 24 0
BBX 25 17 0 0
BITMAP
FF0C1F00
7F0E1F00
3C0E0600
3C1F0600
3E1F0400
1E1F0C00
FFF7FF80
FFF7FF00
0F278800
0F63D800
FF63DF00
07C3F000
07C1F000
07C1F000
0380E000
0380E000
0380E000
ENDCHAR
STARTCHAR 20AB
ENCODING 8363
SWIDTH 600 0
DWIDTH 15 0
BBX 14 18 1 0
BITMAP
0030
01F0
01F0
0070
0FFC
0070
0670
3FF0
7870
F070
F0F0
F0F0
F0F8
7FFC
3E78
0000
0000
FFF8
ENDCHAR
STARTCHAR 20AC
ENCODING 8364
SWIDTH 720 0
DWIDTH 18 0
BBX 16 17 1 0
BITMAP
01FE
07CF
0F07
0E03
1E03
1C00
FFF0
FFF0
3C00
FFF0
FFF0
1E00
1E00
0F00
0F81
07FF
01FC
ENDCHAR
STARTCHAR 20AD
ENCODING 8365
SWIDTH 720 0
DWIDTH 18 0
BBX 17 17 1 0
BITMAP
FE3F00
FE3F00
3C1800
3C3000
3C6000
3CC000
3D8000
3F0000
FFFE00
3FE000
3DE000
3CF000
3CF800
3C7C00
3C3C00
FE3F80
FE1F80
ENDCHAR
STARTCHAR 20AE
ENCODING 8366
SWIDTH 640 0
DWIDTH 16 0
BBX 15 17 1 0
BITMAP
FFFC
FFFC
C78C
C786
C784
0780
07F0
07E0
3F80
2790
07F0
1FC0
3F80
0780
0780
1FE0
1FE0
ENDCHAR
STARTCHAR 20B1
ENCODING 8369
SWIDTH 600 0
DWIDTH 15 0
BBX 17 17 0 0
BITMAP
7FF000
7FFC00
1E3E00
7E1F80
FE1F80
1E1E00
1E1E00
7E1F80
1E1C00
1F7800
1FF000
1E0000
1E0000
1E0000
1E0000
7F8000
7F8000
ENDCHAR
STARTCHAR 20B2
ENCODING 8370
SWIDTH 680 0
DWIDTH 17 0
BBX 16 21 1 -2
BITMAP
0080
0080
07F8
1F3E
3C0C
780C
700C
F000
F000
F000
F000
F07F
F03E
F01E
781E
781E
3C1E
1F7E
07F8
0080
0080
ENDCHAR
STARTCHAR 20B4
ENCODING 8372
SWIDTH 600 0
DWIDTH 15 0
BBX 14 17 1 0
BITMAP
1FC0
3DF0
38F0
3070
10F0
01E0
FFFC
FFF8
0000
FFFC
FFFC
1C00
7838
7838
7838
7EF8
1FE0
ENDCHAR
STARTCHAR 20B5
ENCODING 8373
SWIDTH 640 0
DWIDTH 16 0
BBX 14 21 1 -2
BITMAP
0080
0080
07F0
1EFC
3C9C
789C
708C
F080
F080
F080
F080
F080
F080
F080
7880
7C80
3E84
1FFC
07F0
0080
0080
ENDCHAR
STARTCHAR 20B8
ENCODING 8376
SWIDTH 640 0
DWIDTH 16 0
BBX 15 17 1 0
BITMAP
FFFC
FFFC
0000
FFFC
FFFC
E78C
C78E
C786
0780
0780
0780
0780
0780
0780
0780
1FE0
1FE0
ENDCHAR
STARTCHAR 20B9
ENCODING 8377
SWIDTH 520 0
DWIDTH 13 0
BBX 12 17 1 0
BITMAP
FFF0
FFF0
0F80
0780
FFF0
FFF0
0780
0780
1F00
FE00
FE00
1F00
0F00
0780
07C0
03F0
01F0
ENDCHAR
STARTCHAR 20BA
ENCODING 8378
SWIDTH 560 0
DWIDTH 14 0
BBX 14 17 0 0
BITMAP
7F80
7F00
1E00
1E00
1EC0
1F80
1F00
3E00
7FC0
DF8C
1E0C
3E0C
FE18
5E18
1E30
1FF0
1FC0
ENDCHAR
STARTCHAR 20BC
ENCODING 8380
SWIDTH 800 0
DWIDTH 20 0
BBX 18 19 1 0
BITMAP
018000
018000
07F000
0FFC00
1D9E00
198F00
318F00
318F00
318F00
318F00
318F00
318F00
318F00
318F00
318F00
318F00
300F00
FC1FC0
FC3FC0
ENDCHAR
STARTCHAR 20BD
ENCODING 8381
SWIDTH 680 0
DWIDTH 17 0
BBX 15 17 1 0
BITMAP
7FF0
7FFC
1E1E
1E1E
1E1E
1E1E
1E1E
1E3C
FFF8
FFC0
1E00
1E00
FFF0
1E00
1E00
3F00
7F80
ENDCHAR
STARTCHAR 2102
ENCODING 8450
SWIDTH 640 0
DWIDTH 16 0
BBX 14 17 1 0
BITMAP
07F0
1F7C
3C1C
7C1C
6C0C
EC00
CC00
CC00
CC00
CC00
EC00
EC00
6C00
7C00
3C04
1FFC
07F0
ENDCHAR
STARTCHAR 210D
ENCODING 8461
SWIDTH 760 0
DWIDTH 19 0
BBX 17 17 1 0
BITMAP
FF9F80
FF9F80
370700
360600
360600
360600
360600
360600
37FE00
360600
360600
360600
360600
360600
370700
F79F80
FF9F80
ENDCHAR
STARTCHAR 2113
ENCODING 8467
SWIDTH 440 0
DWIDTH 11 0
BBX 10 18 0 0
BITMAP
0300
0FC0
0EC0
1E40
1C40
1C40
1CC0
1C80
3D80
3F00
3E00
7C00
FC00
1C00
1C00
1E40
1FC0
0F80
ENDCHAR
STARTCHAR 2115
ENCODING 8469
SWIDTH 760 0
DWIDTH 19 0
BBX 17 17 1 0
BITMAP
FE0F80
FF0F80
338300
398300
3CC300
3C6300
367300
333300
319B00
318F00
30C700
306700
303300
303B00
301B00
F80F00
FC0700
ENDCHAR
STARTCHAR 2116
ENCODING 8470
SWIDTH 1160 0
DWIDTH 29 0
BBX 27 17 1 0
BITMAP
F81F0F80
FC1F39C0
3E0638E0
3E0670E0
3F0670E0
3F8678E0
37C638E0
33C63DC0
33E60F00
31F60000
30FE0000
307E7FE0
307E7F80
303E0000
301E0000
F80E0000
F80E0000
ENDCHAR
STARTCHAR 2117
ENCODING 8471
SWIDTH 800 0
DWIDTH 20 0
BBX 18 17 1 -3
BITMAP
07F800
0E0C00
180700
37F900
679D80
439C80
438EC0
438CC0
C39CC0
43F8C0
438080
638080
27E180
300300
180600
0FFC00
01F000
ENDCHAR
STARTCHAR 2119
ENCODING 8473
SWIDTH 640 0
DWIDTH 16 0
BBX 15 17 1 0
BITMAP
FFF0
FFF8
361C
360E
360E
360E
360E
360C
361C
36B8
36F0
3600
3600
3600
3700
F7C0
FFC0
ENDCHAR
STARTCHAR 211A
ENCODING 8474
SWIDTH 720 0
DWIDTH 18 0
BBX 18 22 1 -5
BITMAP
07F000
1EFC00
3C1E00
7C0E00
6C0700
EC0700
CC0380
CC0380
CC0380
CC0380
EC0380
EC0700
6C0700
7C0600
3C0E00
1F7C00
07F000
007800
001E00
001FC0
000FC0
000700
ENDCHAR
STARTCHAR 211D
ENCODING 8477
SWIDTH 680 0
DWIDTH 17 0
BBX 16 17 1 0
BITMAP
FFF0
FFFC
361C
360E
360E
360E
360C
361C
37F8
37E0
3670
3638
3638
361C
361C
F70F
FF8F
ENDCHAR
STARTCHAR 2122
ENCODING 8482
SWIDTH 960 0
DWIDTH 24 0
BBX 21 9 2 10
BITMAP
FF7878
DB7C78
993CF0
183CF0
182FF0
182F30
382730
7E7678
7E7278
ENDCHAR
STARTCHAR 2124
ENCODING 8484
SWIDTH 680 0
DWIDTH 17 0
BBX 15 17 1 0
BITMAP
7FFC
7FFE
70CC
6198
6198
0330
0770
0660
0EE0
0CC0
19C0
1980
3304
7706
660E
EE7C
FFFC
ENDCHAR
STARTCHAR 2126
ENCODING 8486
SWIDTH 840 0
DWIDTH 21 0
BBX 19 17 1 0
BITMAP
03F800
0FBE00
1E0F00
3C0780
3C0380
7803C0
7803C0
7803C0
7803C0
7803C0
380380
1C0700
4C0740
C60C60
FF1FE0
FF1FE0
FF1FE0
ENDCHAR
STARTCHAR 212E
ENCODING 8494
SWIDTH 560 0
DWIDTH 14 0
BBX 14 15 0 0
BITMAP
0780
1C60
3018
3018
701C
701C
701C
FFFC
7000
7000
7000
7008
3018
1830
07C0
ENDCHAR
STARTCHAR 2153
ENCODING 8531
SWIDTH 920 0
DWIDTH 23 0
BBX 22 18 1 0
BITMAP
780080
F80180
380180
380300
380600
380C00
380C00
381BFC
3C33F8
7C73F8
FE6330
00C060
0180F8
03807C
03001C
06001C
0C0238
0C03F0
ENDCHAR
STARTCHAR 2154
ENCODING 8532
SWIDTH 1000 0
DWIDTH 25 0
BBX 23 18 1 0
BITMAP
FE0060
EF0060
C700C0
C70180
0E0300
1C0300
380600
730CFE
FF1CFE
FF98FC
FFB098
006030
00E07E
00C01E
01800E
03000E
03001E
0600FC
ENDCHAR
STARTCHAR 215B
ENCODING 8539
SWIDTH 960 0
DWIDTH 24 0
BBX 23 18 1 0
BITMAP
780080
F80180
380180
380300
380600
380C00
380C00
3819F8
3C339C
7C739C
FE63DC
00C3F0
0181F8
0383FC
03039E
06079C
0C039C
0C01F8
ENDCHAR
STARTCHAR 215C
ENCODING 8540
SWIDTH 920 0
DWIDTH 23 0
BBX 22 18 1 0
BITMAP
FE0080
FE0180
FC0300
980700
380600
3E0C00
1F1800
0F19F8
0F339C
9E679C
FCC7D8
00C3F0
0181F8
0303FC
06073C
06071C
0C079C
1801F8
ENDCHAR
STARTCHAR 215D
ENCODING 8541
SWIDTH 960 0
DWIDTH 24 0
BBX 23 19 1 0
BITMAP
030000
7F00C0
7F0180
7E0180
C00300
FC0600
FF0E00
0F0C00
0719F8
07339C
9F739C
FC63DC
00C3F0
0181F8
0183FC
03039E
06039E
0C039C
0C01F8
ENDCHAR
STARTCHAR 215E
ENCODING 8542
SWIDTH 880 0
DWIDTH 22 0
BBX 21 18 1 0
BITMAP
FE0300
FF0300
FE0600
8C0C00
1C1C00
181800
383000
3867F0
786E70
78CE38
798F70
0307E0
0303F0
0606F8
0C0E78
1C0E38
180F38
3007E0
ENDCHAR
STARTCHAR 2190
ENCODING 8592
SWIDTH 840 0
DWIDTH 21 0
BBX 19 9 1 1
BITMAP
060000
0C0000
3C0000
FFFFE0
FFFFE0
3C0000
1C0000
060000
020000
ENDCHAR
STARTCHAR 2191
ENCODING 8593
SWIDTH 440 0
DWIDTH 11 0
BBX 8 19 2 -1
BITMAP
18
18
3C
7E
FE
FB
98
18
18
18
18
18
18
18
18
18
18
18
08
ENDCHAR
STARTCHAR 2192
ENCODING 8594
SWIDTH 840 0
DWIDTH 21 0
BBX 19 8 1 3
BITMAP
000C00
000700
000780
7FFFE0
FFFFE0
000380
000700
000400
ENDCHAR
STARTCHAR 2193
ENCODING 8595
SWIDTH 440 0
DWIDTH 11 0
BBX 9 19 1 -1
BITMAP
0C00
0C00
0C00
0C00
0C00
0C00
0C00
0C00
0C00
0C00
0C00
0C00
8D80
FF80
7F00
3E00
1E00
1C00
0C00
ENDCHAR
STARTCHAR 2194
ENCODING 8596
SWIDTH 920 0
DWIDTH 23 0
BBX 21 9 1 2
BITMAP
060380
0C01C0
3C00E0
FFFFF8
FFFFF8
3C00F0
1C01C0
060180
020000
ENDCHAR
STARTCHAR 2195
ENCODING 8597
SWIDTH 440 0
DWIDTH 11 0
BBX 9 19 1 -1
BITMAP
0C00
1C00
1E00
3F00
7F80
ED80
0C00
0C00
0C00
0C00
0C00
0C00
8C80
EF80
7F00
3E00
1E00
1C00
0C00
ENDCHAR
STARTCHAR 2196
ENCODING 8598
SWIDTH 720 0
DWIDTH 18 0
BBX 16 15 1 2
BITMAP
FC00
7F00
7C00
7C00
7E00
6700
6380
01C0
00E0
0070
0038
001C
000E
0007
0002
ENDCHAR
STARTCHAR 2197
ENCODING 8599
SWIDTH 680 0
DWIDTH 17 0
BBX 15 16 1 1
BITMAP
0002
00FE
01FE
003E
003E
007E
00E4
01C4
0384
0700
0E00
1C00
3800
7000
E000
4000
ENDCHAR
STARTCHAR 2198
ENCODING 8600
SWIDTH 720 0
DWIDTH 18 0
BBX 15 15 2 1
BITMAP
C000
E000
7000
3800
1C00
0E00
0700
038C
01CC
00EC
007C
003C
00FE
01FE
000E
ENDCHAR
STARTCHAR 2199
ENCODING 8601
SWIDTH 720 0
DWIDTH 18 0
BBX 16 16 1 1
BITMAP
0002
0007
000E
001C
0038
0070
00E0
01C0
2380
6700
6E00
7C00
7800
7F00
FF00
6000
ENDCHAR
STARTCHAR 21A4
ENCODING 8612
SWIDTH 840 0
DWIDTH 21 0
BBX 19 9 1 1
BITMAP
060060
0C0060
3C0060
FFFFE0
FFFFE0
3C0060
1C0060
060060
020060
ENDCHAR
STARTCHAR 21A5
ENCODING 8613
SWIDTH 480 0
DWIDTH 12 0
BBX 9 18 2 0
BITMAP
1800
1800
3C00
7E00
FE00
FB00
9800
1800
1800
1800
1800
1800
1800
1800
1800
1800
FF80
FF80
ENDCHAR
STARTCHAR 21A6
ENCODING 8614
SWIDTH 840 0
DWIDTH 21 0
BBX 19 10 1 1
BITMAP
000400
C00600
C00700
C003C0
FFFFE0
FFFFE0
C003C0
C00700
C00600
C00000
ENDCHAR
STARTCHAR 21A7
ENCODING 8615
SWIDTH 440 0
DWIDTH 11 0
BBX 10 19 1 -1
BITMAP
7FC0
FF80
0C00
0C00
0C00
0C00
0C00
0C00
0C00
0C00
0C00
0C00
8D80
7F80
7F00
3E00
1E00
1C00
0C00
ENDCHAR
STARTCHAR 21B0
ENCODING 8624
SWIDTH 680 0
DWIDTH 17 0
BBX 14 18 1 0
BITMAP
0600
0C00
3C00
7FFC
FFFC
7C0C
1C0C
060C
020C
000C
000C
000C
000C
000C
000C
000C
000C
000C
ENDCHAR
STARTCHAR 21B1
ENCODING 8625
SWIDTH 680 0
DWIDTH 17 0
BBX 15 19 2 0
BITMAP
0080
00C0
00E0
0078
FFFE
FFFE
C078
C070
C0C0
C080
C000
C000
C000
C000
C000
C000
C000
C000
C000
ENDCHAR
STARTCHAR 21B2
ENCODING 8626
SWIDTH 680 0
DWIDTH 17 0
BBX 14 19 1 -1
BITMAP
000C
000C
000C
000C
000C
000C
000C
000C
000C
000C
060C
0E0C
1C0C
7C0C
FFFC
7DFC
1C00
0E00
0600
ENDCHAR
STARTCHAR 21B3
ENCODING 8627
SWIDTH 720 0
DWIDTH 18 0
BBX 15 19 2 -1
BITMAP
C000
C000
C000
C000
C000
C000
C000
C000
C000
C000
C0C0
C0E0
C070
C03C
FFFE
FFBC
0070
0060
00C0
ENDCHAR
STARTCHAR 21BC
ENCODING 8636
SWIDTH 840 0
DWIDTH 21 0
BBX 19 5 1 6
BITMAP
060000
0C0000
3C0000
FFFFE0
FFFFE0
ENDCHAR
STARTCHAR 21BD
ENCODING 8637
SWIDTH 840 0
DWIDTH 21 0
BBX 19 6 1 1
BITMAP
FFFFE0
FFFFE0
3C0000
1C0000
060000
020000
ENDCHAR
STARTCHAR 21BE
ENCODING 8638
SWIDTH 360 0
DWIDTH 9 0
BBX 6 19 2 -1
BITMAP
C0
E0
E0
F0
F8
DC
C4
C0
C0
C0
C0
C0
C0
C0
C0
E0
E0
E0
20
ENDCHAR
STARTCHAR 21BF
ENCODING 8639
SWIDTH 360 0
DWIDTH 9 0
BBX 5 19 2 -1
BITMAP
18
18
38
78
78
F8
98
18
18
18
18
18
18
18
18
18
18
18
08
ENDCHAR
STARTCHAR 21C0
ENCODING 8640
SWIDTH 840 0
DWIDTH 21 0
BBX 19 6 1 5
BITMAP
000800
000E00
000700
000780
7FFFE0
FFFFE0
ENDCHAR
STARTCHAR 21C1
ENCODING 8641
SWIDTH 840 0
DWIDTH 21 0
BBX 19 5 1 1
BITMAP
7FFFE0
FFFFE0
000380
000700
000600
ENDCHAR
STARTCHAR 21C2
ENCODING 8642
SWIDTH 360 0
DWIDTH 9 0
BBX 6 19 2 -1
BITMAP
E0
E0
E0
E0
C0
C0
C0
C0
C0
C0
C0
C0
CC
DC
F8
F0
E0
E0
C0
ENDCHAR
STARTCHAR 21C3
ENCODING 8643
SWIDTH 360 0
DWIDTH 9 0
BBX 6 19 1 -1
BITMAP
0C
0C
0C
0C
0C
0C
0C
0C
0C
0C
0C
0C
CC
6C
7C
3C
1C
0C
0C
ENDCHAR
STARTCHAR 21C4
ENCODING 8644
SWIDTH 840 0
DWIDTH 21 0
BBX 19 17 1 -3
BITMAP
000C00
000E00
000700
0003C0
FFFFE0
FFFFE0
000780
000600
060C00
0C0000
3C0000
7FFFE0
FFFFE0
7C0000
1C0000
0E0000
020000
ENDCHAR
STARTCHAR 21C5
ENCODING 8645
SWIDTH 760 0
DWIDTH 19 0
BBX 17 19 2 -1
BITMAP
181800
181800
3C1800
7E1800
FE1800
FB1800
981800
181800
181800
181800
181800
181800
189980
18FF00
187E00
187E00
183C00
181800
081800
ENDCHAR
STARTCHAR 21C6
ENCODING 8646
SWIDTH 840 0
DWIDTH 21 0
BBX 19 16 1 -3
BITMAP
020000
060000
1C0000
3C0000
FFFFE0
7FFFE0
3C0000
0E0000
060C00
000700
000780
7FFFE0
FFFFE0
0003C0
000700
000600
ENDCHAR
STARTCHAR 21C7
ENCODING 8647
SWIDTH 840 0
DWIDTH 21 0
BBX 19 16 1 -3
BITMAP
060000
0C0000
3C0000
7FFFE0
FFFFE0
3C0000
1C0000
060000
060000
1C0000
3C0000
FFFFE0
FFFFE0
3C0000
0E0000
060000
ENDCHAR
STARTCHAR 21C8
ENCODING 8648
SWIDTH 760 0
DWIDTH 19 0
BBX 16 19 2 -1
BITMAP
1818
1838
3C3C
7E7C
FEFE
FBDF
9899
1818
1818
1818
1818
1818
1818
1818
1818
1818
1818
1818
0818
ENDCHAR
STARTCHAR 21C9
ENCODING 8649
SWIDTH 840 0
DWIDTH 21 0
BBX 19 16 1 -1
BITMAP
000C00
000700
000780
7FFFE0
FFFFE0
000380
000700
000600
000E00
000700
0003C0
FFFFE0
FFFFE0
000780
000600
000C00
ENDCHAR
STARTCHAR 21CA
ENCODING 8650
SWIDTH 760 0
DWIDTH 19 0
BBX 17 19 1 -1
BITMAP
0C0C00
0C0C00
0C0C00
0C0C00
0C0C00
0C0800
0C0800
0C0800
0C0800
0C0800
0C0800
0C0800
8C8980
FFEF80
7F7F00
3E3E00
1E1C00
1C1C00
0C0800
ENDCHAR
STARTCHAR 21CB
ENCODING 8651
SWIDTH 880 0
DWIDTH 22 0
BBX 18 15 2 -1
BITMAP
040000
0E0000
1C0000
380000
FFFFC0
FFFFC0
000000
000000
000000
000000
FFFFC0
FFFFC0
000700
000E00
000C00
ENDCHAR
STARTCHAR 21CC
ENCODING 8652
SWIDTH 880 0
DWIDTH 22 0
BBX 19 15 2 -1
BITMAP
000800
001C00
000E00
000780
FFFFC0
FFFFC0
000000
000000
000000
000000
FFFFC0
FFFFE0
380000
1C0000
0C0000
ENDCHAR
STARTCHAR 21D2
ENCODING 8658
SWIDTH 840 0
DWIDTH 21 0
BBX 19 14 1 -1
BITMAP
000800
000C00
000600
000700
FFFF80
FFFFC0
0001E0
0001E0
0003C0
FFFF80
FFFB00
000600
000600
000C00
ENDCHAR
STARTCHAR 21D4
ENCODING 8660
SWIDTH 920 0
DWIDTH 23 0
BBX 21 14 1 -1
BITMAP
020100
060300
0C0180
1C00C0
3FFFE0
7FFFF0
F80078
F00078
780078
3FFFF0
1FFFE0
0E01C0
060180
020300
ENDCHAR
STARTCHAR 21F5
ENCODING 8693
SWIDTH 760 0
DWIDTH 19 0
BBX 18 19 1 -1
BITMAP
0C0C00
0C0E00
0C1E00
0C3F00
0C3F80
0C7DC0
0C4C40
0C0C00
0C0C00
0C0C00
0C0C00
0C0C00
8D8C00
FF8C00
7F0C00
3E0C00
1E0C00
1C0C00
0C0000
ENDCHAR
STARTCHAR 2200
ENCODING 8704
SWIDTH 680 0
DWIDTH 17 0
BBX 17 17 0 0
BITMAP
FE0F80
7E0780
3C0300
3C0200
1E0600
1FFE00
0F0400
0F0C00
078800
079800
079800
03D000
03F000
01E000
01E000
00E000
00C000
ENDCHAR
STARTCHAR 2202
ENCODING 8706
SWIDTH 560 0
DWIDTH 14 0
BBX 12 18 1 0
BITMAP
0C00
3F00
1F80
07C0
03C0
01E0
04E0
3FF0
78F0
F0F0
F070
F070
F070
F0F0
F0F0
F0E0
7FE0
1F80
ENDCHAR
STARTCHAR 2203
ENCODING 8707
SWIDTH 600 0
DWIDTH 15 0
BBX 14 17 1 0
BITMAP
7FFC
7FF8
60F0
60F0
00F0
00F0
18F0
1CF0
1FF0
1CF0
18F0
00F0
C0F0
C0F0
E0F0
FFF8
FFFC
ENDCHAR
STARTCHAR 2204
ENCODING 8708
SWIDTH 560 0
DWIDTH 14 0
BBX 14 25 1 -4
BITMAP
0100
0100
0300
0300
7FFC
7FF8
62F0
62F0
06F0
06F0
1CF0
1CF0
1FF0
1CF0
1CF0
0CF0
C8F0
C8F0
E8F0
FFF8
FFFC
1000
1000
1000
1000
ENDCHAR
STARTCHAR 2205
ENCODING 8709
SWIDTH 520 0
DWIDTH 13 0
BBX 12 13 1 0
BITMAP
0410
3FF0
70E0
C0E0
C1B0
C330
C630
CC30
D830
F060
70E0
FFC0
8400
ENDCHAR
STARTCHAR 2206
ENCODING 8710
SWIDTH 640 0
DWIDTH 16 0
BBX 16 17 0 0
BITMAP
0180
01C0
03C0
03E0
03E0
07F0
04F0
0CF8
0878
1878
103C
303C
201E
601E
600F
FFFF
7FFF
ENDCHAR
STARTCHAR 2207
ENCODING 8711
SWIDTH 640 0
DWIDTH 16 0
BBX 15 17 1 0
BITMAP
FFFE
F006
F006
F804
780C
7C08
3C18
3C10
1E30
1E20
0F60
0F60
07C0
07C0
0780
0380
0300
ENDCHAR
STARTCHAR 2208
ENCODING 8712
SWIDTH 520 0
DWIDTH 13 0
BBX 12 11 1 1
BITMAP
1FF0
7800
6000
C000
C000
FFE0
C000
C000
6000
7800
1FF0
ENDCHAR
STARTCHAR 2209
ENCODING 8713
SWIDTH 520 0
DWIDTH 13 0
BBX 12 18 1 -2
BITMAP
0040
0060
0040
00C0
1FF0
7980
6180
C180
C300
FFE0
C200
C600
6600
7C00
3FF0
0C00
1800
1800
ENDCHAR
STARTCHAR 220B
ENCODING 8715
SWIDTH 520 0
DWIDTH 13 0
BBX 12 11 1 1
BITMAP
FF80
01C0
0060
0070
0030
FFF0
0030
0060
0060
01C0
FF80
ENDCHAR
STARTCHAR 220C
ENCODING 8716
SWIDTH 520 0
DWIDTH 13 0
BBX 12 17 1 -1
BITMAP
0180
0180
0100
FF80
03C0
0260
0670
0630
FFF0
0C30
0860
1860
19C0
FF80
3000
3000
6000
ENDCHAR
STARTCHAR 220E
ENCODING 8718
SWIDTH 520 0
DWIDTH 13 0
BBX 11 17 1 0
BITMAP
FFE0
FFE0
FFE0
FFE0
FFE0
FFE0
FFE0
FFE0
FFE0
FFE0
FFE0
FFE0
FFE0
FFE0
FFE0
FFE0
FFE0
ENDCHAR
STARTCHAR 220F
ENCODING 8719
SWIDTH 760 0
DWIDTH 19 0
BBX 17 20 1 -3
BITMAP
FFFF80
FFFF80
3C0F00
3C0F00
3C0F00
3C0F00
3C0F00
3C0F00
3C0F00
3C0F00
3C0F00
3C0F00
3C0F00
3C0F00
3C0F00
3C0F00
3C0F00
3C1F00
FE3F80
FF3F80
ENDCHAR
STARTCHAR 2211
ENCODING 8721
SWIDTH 640 0
DWIDTH 16 0
BBX 15 20 1 -3
BITMAP
7FFC
FFFC
780C
7C06
3C04
1E00
1F00
0F00
0F80
0780
0380
0300
0600
0C00
1806
300E
7FFE
7FFC
FFFC
FFFC
ENDCHAR
STARTCHAR 2212
ENCODING 8722
SWIDTH 520 0
DWIDTH 13 0
BBX 12 1 1 6
BITMAP
FFF0
ENDCHAR
STARTCHAR 2213
ENCODING 8723
SWIDTH 520 0
DWIDTH 13 0
BBX 11 11 1 1
BITMAP
FFE0
FFE0
0000
0600
0600
0600
7FE0
7FC0
0600
0600
0600
ENDCHAR
STARTCHAR 2215
ENCODING 8725
SWIDTH 520 0
DWIDTH 13 0
BBX 8 18 3 -3
BITMAP
02
03
02
06
06
0C
0C
0C
18
18
10
30
30
60
60
60
C0
C0
ENDCHAR
STARTCHAR 2216
ENCODING 8726
SWIDTH 520 0
DWIDTH 13 0
BBX 8 18 3 -2
BITMAP
C0
C0
60
60
60
30
30
10
18
18
0C
0C
0C
06
06
02
03
02
ENDCHAR
STARTCHAR 2217
ENCODING 8727
SWIDTH 520 0
DWIDTH 13 0
BBX 10 11 2 1
BITMAP
0C00
0C00
CC80
EDC0
7F80
1C00
7F80
EDC0
CC80
0C00
0C00
ENDCHAR
STARTCHAR 2218
ENCODING 8728
SWIDTH 520 0
DWIDTH 13 0
BBX 8 7 3 3
BITMAP
3C
6E
C6
C7
C6
66
3C
ENDCHAR
STARTCHAR 2219
ENCODING 8729
SWIDTH 520 0
DWIDTH 13 0
BBX 7 7 3 3
BITMAP
18
7E
7E
FE
7E
7E
3C
ENDCHAR
STARTCHAR 221A
ENCODING 8730
SWIDTH 520 0
DWIDTH 13 0
BBX 16 25 1 -4
BITMAP
003F
003E
0030
0020
0060
0060
0060
0060
00C0
00C0
00C0
00C0
0080
0180
F980
3980
3D00
1D00
1F00
1F00
1F00
0E00
0E00
0E00
0600
ENDCHAR
STARTCHAR 221D
ENCODING 8733
SWIDTH 760 0
DWIDTH 19 0
BBX 17 11 1 1
BITMAP
1F0180
3FC780
73EC00
61F800
40F800
C07800
407C00
60DE00
61CF00
3F8780
0E0180
ENDCHAR
STARTCHAR 221E
ENCODING 8734
SWIDTH 960 0
DWIDTH 24 0
BBX 22 11 1 1
BITMAP
1F01E0
3FC7F0
73EC18
61E818
40F80C
C0780C
407C08
60DE18
61DFF8
3F87F0
0E01C0
ENDCHAR
STARTCHAR 221F
ENCODING 8735
SWIDTH 520 0
DWIDTH 13 0
BBX 11 12 2 0
BITMAP
4000
C000
C000
C000
C000
C000
C000
C000
C000
C000
FFE0
FFE0
ENDCHAR
STARTCHAR 2220
ENCODING 8736
SWIDTH 520 0
DWIDTH 13 0
BBX 13 11 0 0
BITMAP
0060
00C0
0180
0300
0600
0C00
1800
3800
7000
FFF8
7FF8
ENDCHAR
STARTCHAR 2221
ENCODING 8737
SWIDTH 520 0
DWIDTH 13 0
BBX 13 11 0 0
BITMAP
0060
00C0
0F80
0300
0780
0DC0
18C0
38C0
70C0
FFF8
7FF8
ENDCHAR
STARTCHAR 2222
ENCODING 8738
SWIDTH 520 0
DWIDTH 13 0
BBX 12 13 1 0
BITMAP
0600
0300
03F0
03C0
1F80
7980
C180
F180
3F80
0780
03F0
0330
0600
ENDCHAR
STARTCHAR 2223
ENCODING 8739
SWIDTH 520 0
DWIDTH 13 0
BBX 2 24 6 -6
BITMAP
C0
C0
C0
C0
C0
C0
C0
C0
C0
C0
C0
C0
C0
C0
C0
C0
C0
C0
C0
C0
C0
C0
C0
C0
ENDCHAR
STARTCHAR 2224
ENCODING 8740
SWIDTH 520 0
DWIDTH 13 0
BBX 10 24 2 -6
BITMAP
0C00
0C00
0C00
0C00
0C00
0C00
0C00
0C00
0C00
0DC0
0F80
0E00
1C00
7C00
EC00
8C00
0C00
0C00
0C00
0C00
0C00
0C00
0C00
0C00
ENDCHAR
STARTCHAR 2225
ENCODING 8741
SWIDTH 520 0
DWIDTH 13 0
BBX 7 24 3 -6
BITMAP
C2
C2
C2
C2
C2
C2
C2
C2
C2
C2
C2
C2
C2
C2
C2
C2
C2
C2
C2
C2
C2
C2
C2
C2
ENDCHAR
STARTCHAR 2226
ENCODING 8742
SWIDTH 520 0
DWIDTH 13 0
BBX 13 24 0 -6
BITMAP
1840
1840
1840
1840
1840
1840
1840
1848
1858
1878
18E0
1BC0
1F40
1E40
3840
F840
5840
1840
1840
1840
1840
1840
1840
1840
ENDCHAR
STARTCHAR 2227
ENCODING 8743
SWIDTH 520 0
DWIDTH 13 0
BBX 12 12 1 0
BITMAP
0600
0E00
0F00
1900
1980
3080
30C0
60C0
6060
C060
C030
8030
ENDCHAR
STARTCHAR 2228
ENCODING 8744
SWIDTH 520 0
DWIDTH 13 0
BBX 12 12 1 0
BITMAP
C030
C030
6060
6060
20C0
30C0
1180
1980
0B00
0F00
0E00
0600
ENDCHAR
STARTCHAR 2229
ENCODING 8745
SWIDTH 520 0
DWIDTH 13 0
BBX 12 12 1 0
BITMAP
1F80
39C0
6060
C060
C030
C030
C030
C030
C030
C030
C030
C030
ENDCHAR
STARTCHAR 222A
ENCODING 8746
SWIDTH 520 0
DWIDTH 13 0
BBX 12 12 1 0
BITMAP
C030
C030
C030
C030
C030
C030
C030
C020
E060
70E0
3FC0
0F00
ENDCHAR
STARTCHAR 222B
ENCODING 8747
SWIDTH 320 0
DWIDTH 8 0
BBX 9 22 0 -4
BITMAP
0380
0F80
0F80
1C00
1C00
3C00
3C00
3C00
3C00
3C00
3C00
1C00
1C00
1C00
1C00
1C00
1C00
1C00
1800
F800
F000
4000
ENDCHAR
STARTCHAR 222C
ENCODING 8748
SWIDTH 560 0
DWIDTH 14 0
BBX 15 22 0 -4
BITMAP
038E
0F9E
0FBE
1C70
1C70
3C70
3C70
3C70
3C70
3C70
3C70
1C70
1C70
1C70
1C78
1C70
1C70
1C70
1870
FBE0
F3C0
4000
ENDCHAR
ENDFONT
